<?xml version="1.0" encoding="UTF-8"?>
<svg id="Layer_1" data-name="Layer 1" xmlns="http://www.w3.org/2000/svg" viewBox="0 0 258.94 560.16">
  <defs>
    <style>
      .cls-1 {
        fill: #7b4d38;
      }

      .cls-2 {
        fill: #67af44;
      }
    </style>
  </defs>
  <g>
    <g>
      <path class="cls-1" d="M135.66,201.4c-7.57,4.85-8.71,15.25-9.11,24.24-2.1,46.52-5.12,93-9.07,139.4-.12,1.36-.1,3,1.05,3.73.56.36,1.27.4,1.94.42,1.25.04,2.49.09,3.74.13.65.02,1.34.03,1.89-.31.97-.61,1.04-1.98,1-3.12-.82-20.85-2.52-41.79-.13-62.52.87-7.57,2.29-15.08,3.09-22.66,1.91-18.1.31-36.36.34-54.56,0-5.58.23-11.41,2.91-16.31,1.46-2.67,3.69-5.42,2.95-8.37"/>
      <path class="cls-1" d="M134.9,200.1c-7.63,5.02-9.19,14.63-9.73,23.08-.76,11.98-1.15,23.98-1.8,35.96-1.35,24.74-2.97,49.46-4.84,74.17-.46,6.11-.95,12.23-1.44,18.34-.25,3.14-.51,6.28-.78,9.41-.19,2.27-.93,5.2.07,7.37,1.17,2.54,4.05,2.24,6.41,2.32s5.01.01,5.65-2.88c.25-1.14.12-2.34.08-3.49-.06-1.56-.13-3.12-.2-4.68-.14-3.04-.28-6.08-.42-9.12-.56-12.3-1.01-24.64-.31-36.94s3.21-23.88,4.24-35.9.61-24.58.29-36.86c-.15-5.92-.36-11.86-.19-17.79.08-2.74.29-5.48.98-8.14s1.92-4.74,3.23-7.04c1.23-2.15,2.08-4.38,1.56-6.88-.39-1.89-3.29-1.09-2.89.8.49,2.36-1.29,4.59-2.4,6.51-1.27,2.2-2.16,4.57-2.67,7.06-1.08,5.19-.87,10.6-.8,15.88.15,11.73.78,23.45.5,35.18-.14,5.8-.51,11.6-1.24,17.36s-1.69,11.39-2.43,17.1c-1.5,11.64-1.7,23.39-1.4,35.11.15,5.84.41,11.67.68,17.51.14,2.96.28,5.91.41,8.87.06,1.3.17,2.62.15,3.93,0,.34.04.94-.19,1.24-.3.39-1.22.21-1.67.2-1.25-.04-2.64.07-3.88-.16-1.06-.19-.95-1.23-.91-2.13.12-2.88.48-5.78.72-8.65.49-5.86.96-11.73,1.41-17.59,1.84-23.63,3.43-47.27,4.79-70.93.67-11.75,1.29-23.5,1.84-35.25.23-4.94.28-9.93.94-14.83.54-4,1.52-8.11,3.76-11.52,1.06-1.61,2.41-2.98,4.02-4.03s.11-3.66-1.51-2.59h0Z"/>
    </g>
    <g>
      <path class="cls-1" d="M134.46,202.1c5.92-7.6,12.34-14.81,19.18-21.59,4.19-2.9-.06,3.28-.92,4.71-5.28,8.79-12.7,16.05-20.04,23.21"/>
      <path class="cls-1" d="M135.52,203.16c3.06-3.92,6.24-7.74,9.55-11.45,1.66-1.85,3.34-3.68,5.06-5.48.86-.9,1.72-1.79,2.6-2.68.44-.44.87-.89,1.31-1.32.36-.36.84-.6,1.19-.94.32-.31.05-.02.07-.04.17-.24-1.03-.67-1.3-.91s.18-.49-.12-.08c-.26.36-.47.97-.72,1.4-.54.94-1.13,1.84-1.7,2.76-2.48,4.03-5.31,7.76-8.45,11.3-3.61,4.06-7.5,7.86-11.38,11.66-1.38,1.35.74,3.47,2.12,2.12,7.59-7.41,14.88-14.89,20.53-23.93.92-1.48,4.24-5.57,1.86-7.05-1.46-.91-3.26.64-4.21,1.59-2.04,2.03-4.03,4.1-5.99,6.21-4.39,4.73-8.57,9.64-12.54,14.73-1.18,1.5.93,3.64,2.12,2.12h0Z"/>
    </g>
    <g>
      <path class="cls-1" d="M137.23,199.46c-.56,1.78-1.71,3.36-3.23,4.43-6.6-6.51-13.39-13.28-16.82-21.89-.99-2.48-1.96-5.39-4.43-6.4.93,6.94,5.74,12.6,9.81,18.3,4.07,5.7,7.7,12.68,5.83,19.43"/>
      <path class="cls-1" d="M135.78,199.06c-.47,1.41-1.34,2.65-2.54,3.54l1.82.23c-4.51-4.45-9.09-8.94-12.64-14.22-1.7-2.52-3.06-5.18-4.18-8-.99-2.48-2.15-5.14-4.73-6.31-1.26-.57-2.4.36-2.2,1.69.99,6.78,5.33,12.27,9.24,17.65,3.97,5.46,8.24,12.24,6.41,19.28-.49,1.87,2.41,2.67,2.89.8,4.01-15.42-13.61-24.55-15.65-38.53l-2.2,1.69c2.43,1.1,3.11,4.02,4.07,6.28,1.19,2.83,2.72,5.48,4.49,7.98,3.59,5.06,7.99,9.45,12.39,13.79.43.43,1.29.63,1.82.23,1.87-1.38,3.18-3.13,3.92-5.33.62-1.83-2.28-2.62-2.89-.8h0Z"/>
    </g>
    <path class="cls-1" d="M114.72,180.19c1.93,0,1.93-3,0-3s-1.93,3,0,3h0Z"/>
    <path class="cls-1" d="M114.22,179.32c1.93,0,1.93-3,0-3s-1.93,3,0,3h0Z"/>
    <path class="cls-2" d="M144.65,48.01c-3.56-7.11-13.36-16.28-20.72-19.3-11.45-4.7-15.35-13.73-15.13-24.18,8.48,2.11,27.51,4.42,30.67,12.57,3.15,8.15,4.74,22.19,5.18,30.92-.36-9.21,5.13-18.91,7.8-27.74,2.2-7.26,16.36-15.22,22.01-20.27,6.99,17.8-17.24,33.16-29.81,48.01"/>
    <path class="cls-2" d="M143.47,45.35l.78,36.53c.04,1.93,3.04,1.93,3,0l-.78-36.53c-.04-1.93-3.04-1.93-3,0h0Z"/>
    <path class="cls-2" d="M186.21,43.77c.65-.05-1.11,16.06-4.9,19.19-3.79,3.12-4.9,6.5-9.48,8.26-8.4,3.24-16.8,6.47-25.2,9.71-.71.27-1.46.58-1.88,1.22"/>
    <path class="cls-2" d="M145.54,81.97c-.92-6.9-6.04-12.66-12.08-16.12s-26.37-7.17-33.17-8.64c1.71,6.43,18.31,16.42,24.4,19.09,6.09,2.68,15.76.98,20.58,5.56,1.72-2.9,3.44-5.8,5.16-8.7,3.56-5.99,7.28-12.16,12.97-16.18,7.28-5.14,13.93-12.53,22.81-13.22"/>
    <path class="cls-2" d="M144.21,81.36c.55,11.88-1.1,24.13-4.1,35.62-.49,1.87,2.4,2.67,2.89.8,1.55-5.93,2.6-11.99,3.34-18.07.74-6.08,1.15-12.23.87-18.35-.09-1.92-3.09-1.93-3,0h0Z"/>
    <path class="cls-2" d="M144.77,51.47c-7.33,2.39-25.01-5.07-31.07-9.83,3.72-.9,15.34-.71,19.17-.74s9.15,5.73,12.13,8.13"/>
    <path class="cls-2" d="M145.19,103.24c13.94.7,28.04-6.12,36.12-17.5-6.26-3.17-13.97-2.63-20.33.34-6.36,2.96-11.49,8.11-15.55,13.83-.38.54-.77,1.1-1.34,1.43-1.15.68-2.62.25-3.89-.18-10.09-3.37-20.78-4.9-31.41-4.48,8.21,10.3,24.45,13.05,35.59,6.02"/>
    <path class="cls-2" d="M141.29,112.18c-.59,3.89-2.19,7.46-3.51,11.13-1.23,3.39-1.96,6.77-1.96,10.38,0,3.28.41,6.67-.23,9.92-.31,1.56-.86,3-1.79,4.3-1.09,1.53-2.23,2.9-2.16,4.89s3.07,1.93,3,0c-.06-1.68,1.57-2.94,2.35-4.31s1.29-2.9,1.56-4.44c.58-3.31.3-6.65.27-9.98-.03-3.57.7-6.81,1.93-10.16,1.31-3.6,2.86-7.12,3.44-10.93.28-1.89-2.61-2.7-2.89-.8h0Z"/>
    <path class="cls-2" d="M131.47,152.76c-.69,9.18,1.03,18.36.09,27.53-.87,8.48-3.32,17.22-.34,25.56.64,1.81,3.54,1.03,2.89-.8-2.92-8.19-.3-16.9.5-25.22.87-9.02-.81-18.05-.13-27.08.14-1.93-2.86-1.92-3,0h0Z"/>
    <path class="cls-2" d="M138.14,128.24c6.77-5.78,15.3-9.46,24.15-10.43-1.46,4.72-5.61,8.22-10.19,10.07-4.58,1.85-9.59,2.26-14.52,2.55"/>
    <path class="cls-2" d="M137.41,139.56c-.81-2.28-2.9-3.83-5-5.03-5.72-3.27-12.22-4.93-18.75-5.82,1.87,4.21,5.95,7.13,10.31,8.64,4.36,1.51,9.03,1.8,13.63,2.05"/>
    <g>
      <path class="cls-1" d="M130.46,205.88c-1.49-6.5.38-13.23,1.39-19.82,1.25-8.14,1.21-16.41.93-24.64-.13-3.61-.29-7.3.74-10.76.77-2.6,3-4.76,3.2-7.46.19-2.54-.26-5.56.86-7.91-.13,2.64-.26,5.27-.38,7.91-.09,1.85-.18,3.72-.61,5.53-.37,1.55-.98,3.03-1.43,4.55-2.23,7.63-.2,15.79-.51,23.73-.23,5.97-1.78,11.82-2.02,17.79-.16,4.12.3,8.23.77,12.33-1.11.17-1.96-.66-2.93-1.24"/>
      <path class="cls-1" d="M131.91,205.48c-1.03-4.74-.26-9.58.58-14.29s1.55-9.62,1.8-14.51.18-9.69.02-14.53c-.15-4.55-.56-9.34,1.76-13.44,1.03-1.82,2.02-3.57,2.16-5.7.16-2.28-.3-4.8.64-6.96l-2.8-.76c-.12,2.47-.24,4.94-.36,7.41-.11,2.3-.23,4.56-.9,6.77s-1.45,4.29-1.8,6.57-.45,4.57-.41,6.87c.09,4.54.68,9.07.56,13.62s-1.14,9.44-1.69,14.16c-.65,5.51-.2,10.93.43,16.42l1.5-1.5c-.82.05-1.5-.62-2.17-1.03-1.64-1.03-3.15,1.57-1.51,2.59,1.17.73,2.23,1.53,3.68,1.44.74-.04,1.6-.65,1.5-1.5-.55-4.82-1.05-9.65-.63-14.5s1.46-9.41,1.8-14.17-.19-9.11-.4-13.66c-.1-2.32-.13-4.66.12-6.97s.91-4.45,1.63-6.64c1.68-5.04,1.4-10.64,1.66-15.89.07-1.42-2.19-2.14-2.8-.76-.88,2.02-1,4.1-1,6.28,0,.89.06,1.83-.1,2.71-.19,1.03-.72,1.95-1.23,2.85-1.04,1.84-1.92,3.61-2.3,5.71-.45,2.46-.49,4.95-.42,7.45.14,4.99.32,9.98.15,14.97s-.75,10.14-1.65,15.18c-.98,5.5-1.9,11.05-.71,16.6.41,1.89,3.3,1.09,2.89-.8h0Z"/>
    </g>
    <g>
      <path class="cls-2" d="M208.06,138.73c5.73-.65,15.19,1.67,19.94,4.94,7.39,5.09,14.43,3.88,20.69-.39-4.64-4.32-13.59-14.96-19.79-13.65-6.2,1.31-15.36,5.91-20.83,9.1,5.74-3.43,9.46-10.61,13.76-15.73,3.54-4.21,2.76-15.97,3.59-21.41-13.58,2.81-13.32,23.62-17.35,37.14"/>
      <path class="cls-2" d="M208.79,136.18c-7.5,4.67-15,9.34-22.5,14-1.64,1.02-.13,3.61,1.51,2.59,7.5-4.67,15-9.34,22.5-14,1.64-1.02.13-3.61-1.51-2.59h0Z"/>
      <path class="cls-2" d="M194.16,111.79c-.23-.41-9.32,7.04-9.71,10.58s-2.01,5.55-1.26,9.03c1.36,6.39,2.73,12.77,4.09,19.16.11.54.23,1.12,0,1.62"/>
      <path class="cls-2" d="M187.08,151.64c4.55-2.18,10.09-1.35,14.58.95s14.8,13.18,18.39,16.73c-4.58,1.51-17.23-4.62-21.27-7.26-4.04-2.64-6.84-9.19-11.54-10.3,1.08-2.19,2.16-4.39,3.24-6.58,2.23-4.53,4.5-9.24,4.69-14.29.24-6.46,2.09-13.43-1.01-19.1"/>
      <path class="cls-2" d="M186.62,150c-7.62,4.48-14.61,10.5-20.54,17.03-1.3,1.43.82,3.55,2.12,2.12,5.77-6.35,12.52-12.21,19.93-16.56,1.66-.98.16-3.57-1.51-2.59h0Z"/>
      <path class="cls-2" d="M205.91,140.02c1.45,5.4,12.99,13.19,18.29,14.98-.93-2.62-5.65-9.6-7.15-11.94s-7.11-3.28-9.75-4.15"/>
      <path class="cls-2" d="M174.29,160.29c-5.95-8.19-7.39-19.46-3.68-28.88,4.4,2.55,7.13,7.45,7.85,12.48s-.37,10.19-2.24,14.93c-.17.44-.36.9-.34,1.38.04.97.89,1.69,1.65,2.29,6.05,4.79,11.21,10.69,15.17,17.31-9.51-.9-17.62-9.68-17.76-19.24"/>
      <path class="cls-2" d="M168.53,164.42c-4.24,3.72-7.61,8.32-11.75,12.13-1.42,1.31.7,3.43,2.12,2.12,4.14-3.82,7.51-8.42,11.75-12.13.61-.53.55-1.57,0-2.12-.6-.6-1.51-.54-2.12,0h0Z"/>
      <path class="cls-2" d="M161.89,174.47c.83-6.4-.31-13.05-3.23-18.8-2.29,2.76-2.77,6.67-2.08,10.18s2.43,6.72,4.21,9.83"/>
      <path class="cls-2" d="M155.31,179.4c1.7-.41,3.48.25,5.03,1.05,4.25,2.18,7.84,5.47,10.97,9.08-3.3.53-6.69-.79-9.33-2.84s-4.67-4.77-6.65-7.47"/>
      <g>
        <path class="cls-1" d="M153.37,181.27c1.47-1.12,3.48-2.05,4.47-3.65-1.55,1.12-3.1,2.24-4.65,3.37"/>
        <path class="cls-1" d="M154.13,182.56c1.75-1.32,3.81-2.27,5-4.19.34-.54.24-1.38-.23-1.82-.19-.18-.41-.31-.66-.39-.33-.11-.87-.06-1.16.15-1.55,1.12-3.1,2.24-4.65,3.37-.33.24-.58.5-.69.9-.1.36-.05.84.15,1.16.41.63,1.37,1.03,2.05.54,1.55-1.12,3.1-2.24,4.65-3.37l-2.05-2.05c-.08.13-.17.26-.27.39l.23-.3c-.38.49-.84.91-1.33,1.29l.3-.23c-.92.71-1.94,1.28-2.87,1.98-.32.25-.58.49-.69.9-.1.36-.05.84.15,1.16s.51.6.9.69.84.09,1.16-.15h0Z"/>
      </g>
    </g>
    <g>
      <path class="cls-2" d="M59.96,133.78c-5.73-.65-15.19,1.67-19.94,4.94-7.39,5.09-14.43,3.88-20.69-.39,4.64-4.32,13.59-14.96,19.79-13.65s15.36,5.91,20.83,9.1c-5.74-3.43-9.46-10.61-13.76-15.73-3.54-4.21-2.76-15.97-3.59-21.41,13.58,2.81,13.32,23.62,17.35,37.14"/>
      <path class="cls-2" d="M57.72,133.83l22.5,14c1.64,1.02,3.15-1.57,1.51-2.59l-22.5-14c-1.64-1.02-3.15,1.57-1.51,2.59h0Z"/>
      <path class="cls-2" d="M73.86,106.85c.23-.41,9.32,7.04,9.71,10.58s2.01,5.55,1.26,9.03c-1.36,6.39-2.73,12.77-4.09,19.16-.11.54-.23,1.12,0,1.62"/>
      <path class="cls-2" d="M80.95,146.7c-4.55-2.18-10.09-1.35-14.58.95s-14.8,13.18-18.39,16.73c4.58,1.51,17.23-4.62,21.27-7.26,4.04-2.64,6.84-9.19,11.54-10.3-1.08-2.19-2.16-4.39-3.24-6.58-2.23-4.53-4.5-9.24-4.69-14.29-.24-6.46-2.09-13.43,1.01-19.1"/>
      <path class="cls-2" d="M79.89,147.65c7.41,4.36,14.16,10.21,19.93,16.56,1.3,1.43,3.42-.69,2.12-2.12-5.93-6.53-12.92-12.55-20.54-17.03-1.67-.98-3.18,1.61-1.51,2.59h0Z"/>
      <path class="cls-2" d="M62.11,135.08c-1.45,5.4-12.99,13.19-18.29,14.98.93-2.62,5.65-9.6,7.15-11.94s7.11-3.28,9.75-4.15"/>
      <path class="cls-2" d="M93.73,155.34c5.95-8.19,7.39-19.46,3.68-28.88-4.4,2.55-7.13,7.45-7.85,12.48s.37,10.19,2.24,14.93c.17.44.36.9.34,1.38-.04.97-.89,1.69-1.65,2.29-6.05,4.79-11.21,10.69-15.17,17.31,9.51-.9,17.62-9.68,17.76-19.24"/>
      <path class="cls-2" d="M97.37,161.59c4.24,3.72,7.61,8.32,11.75,12.13,1.42,1.31,3.54-.81,2.12-2.12-4.14-3.82-7.51-8.42-11.75-12.13-.61-.53-1.52-.6-2.12,0-.54.54-.61,1.58,0,2.12h0Z"/>
      <path class="cls-2" d="M106.13,169.53c-.83-6.4.31-13.05,3.23-18.8,2.29,2.76,2.77,6.67,2.08,10.18s-2.43,6.72-4.21,9.83"/>
      <path class="cls-2" d="M112.71,174.46c-1.7-.41-3.48.25-5.03,1.05-4.25,2.18-7.84,5.47-10.97,9.08,3.3.53,6.69-.79,9.33-2.84s4.67-4.77,6.65-7.47"/>
      <g>
        <path class="cls-1" d="M114.65,177.43c-1.08-1.5-3.48-3.15-4.47-4.76,1.55,1.12,3.1,3.35,4.65,4.47"/>
        <path class="cls-1" d="M115.94,176.67c-1.26-1.72-3.07-2.91-4.37-4.59l.23.3c-.12-.15-.23-.31-.33-.47l-2.05,2.05c.05.04.11.08.16.12l-.3-.23c.84.65,1.55,1.45,2.27,2.23.79.85,1.58,1.67,2.52,2.35.3.22.82.24,1.16.15s.73-.36.9-.69c.18-.35.28-.77.15-1.16s-.36-.65-.69-.9c-.05-.04-.11-.08-.16-.12l.3.23c-.84-.65-1.55-1.45-2.27-2.23-.79-.85-1.58-1.67-2.52-2.35-.26-.19-.65-.22-.96-.18s-.64.17-.86.41c-.44.48-.6,1.24-.23,1.82,1.2,1.93,3.21,3.14,4.59,4.92l-.23-.3s.07.1.11.15c.24.33.49.58.9.69.36.1.84.05,1.16-.15s.6-.51.69-.9.08-.84-.15-1.16h0Z"/>
      </g>
    </g>
  </g>
  <g>
    <path class="cls-1" d="M127.08,365.88c1.96,18.88,3.6,37.8,4.9,56.74.36,5.22.63,10.75-1.8,15.39s-8.62,7.72-13.08,4.98c-3.59-2.2-4.55-6.93-4.94-11.12-2.02-21.62,1.32-45.49,5.31-66.84"/>
    <path class="cls-1" d="M125.58,365.88c1.23,11.82,2.33,23.66,3.3,35.51.49,5.92.94,11.85,1.36,17.78.37,5.16,1.14,10.69-.4,15.73-1.17,3.83-4.37,7.38-8.6,7.62-4.6.26-6.54-4.17-7.24-8.02-.9-4.98-.92-10.23-.95-15.28-.03-5.56.21-11.13.64-16.67.98-12.47,2.93-24.83,5.22-37.11.35-1.89-2.54-2.7-2.89-.8-2.17,11.63-4.03,23.33-5.09,35.11-.53,5.94-.86,11.9-.88,17.86-.02,5.57.08,11.27.91,16.79.65,4.34,2.46,8.99,6.91,10.62,4.19,1.53,9-.56,11.83-3.73,3.47-3.89,4.11-9.37,4-14.38-.14-6.12-.78-12.26-1.25-18.36-1.1-14.24-2.4-28.46-3.87-42.67-.2-1.9-3.2-1.92-3,0h0Z"/>
  </g>
  <g>
    <path class="cls-1" d="M124.58,261.75c7.75-16.61,18.94-31.6,32.65-43.76-1.74,2.52-3.49,5.03-5.23,7.55-8.26,11.9-16.55,23.87-22.92,36.88"/>
    <path class="cls-1" d="M125.88,262.5c6.02-12.85,14.04-24.73,23.77-35.06,2.75-2.93,5.64-5.72,8.65-8.39l-2.36-1.82c-9.98,14.39-20.4,28.66-28.15,44.42-.85,1.73,1.74,3.25,2.59,1.51,7.75-15.77,18.17-30.03,28.15-44.42,1.02-1.46-1.14-2.9-2.36-1.82-10.73,9.55-19.95,20.79-27.2,33.2-2.06,3.53-3.95,7.16-5.69,10.86-.81,1.74,1.77,3.26,2.59,1.51h0Z"/>
  </g>
  <g>
    <path class="cls-1" d="M126.62,260.55c-5.12-12.83-17.04-21.79-23.29-34.11,9.05,7.81,17.24,16.6,24.41,26.17"/>
    <path class="cls-1" d="M128.06,260.15c-5.31-13.13-17.05-22-23.44-34.47l-2.36,1.82c8.94,7.74,17.07,16.4,24.17,25.86,1.15,1.53,3.75.03,2.59-1.51-7.26-9.67-15.5-18.55-24.64-26.47-1.28-1.11-3.15.27-2.36,1.82,6.26,12.21,17.95,20.93,23.14,33.75.72,1.77,3.62.99,2.89-.8h0Z"/>
  </g>
  <path class="cls-1" d="M158.37,179.39c4.54-4.88,9.17-9.67,13.89-14.38,1.37-1.37-.75-3.49-2.12-2.12-4.72,4.71-9.35,9.5-13.89,14.38-1.31,1.41.8,3.54,2.12,2.12h0Z"/>
  <path class="cls-1" d="M138.91,134.72c-1.22-7.22,3.87-13.82,5.2-20.67.36-1.89-2.53-2.69-2.89-.8-1.47,7.58-6.55,14.23-5.2,22.27.32,1.9,3.21,1.09,2.89-.8h0Z"/>
  <path class="cls-1" d="M111.02,171.82c.17.13.06.05-.04-.04-.08-.07-.16-.13-.25-.2-.15-.12-.29-.24-.43-.37-.3-.26-.59-.53-.88-.81-.59-.58-1.12-1.2-1.64-1.83-.14-.17.14.19,0,0-.06-.08-.13-.17-.19-.25-.12-.17-.25-.34-.37-.51-.23-.33-.44-.66-.65-1.01-.42-.7-.8-1.43-1.13-2.18s-1.42-.94-2.05-.54c-.74.48-.88,1.28-.54,2.05,1.47,3.29,3.8,6.09,6.65,8.27.63.48,1.71.12,2.05-.54.42-.79.13-1.54-.54-2.05h0Z"/>
  <g>
    <path class="cls-2" d="M32.64,174.93c-4.63-.4-12.2,1.68-15.96,4.42-5.85,4.27-11.54,3.45-16.68.14,3.65-3.58,10.62-12.36,15.65-11.43,5.03.92,12.51,4.43,16.99,6.88-4.7-2.64-7.85-8.35-11.43-12.38-2.95-3.32-2.58-12.81-3.36-17.17,11.01,1.97,11.25,18.74,14.8,29.55"/>
    <path class="cls-2" d="M30.66,175.25c6.15,3.6,12.3,7.2,18.44,10.79,1.67.98,3.18-1.61,1.51-2.59-6.15-3.6-12.3-7.2-18.44-10.79-1.67-.98-3.18,1.61-1.51,2.59h0Z"/>
    <path class="cls-2" d="M43.25,152.92c.17-.34,7.66,5.47,8.06,8.31.4,2.84,1.74,4.43,1.22,7.25-.96,5.18-1.92,10.35-2.88,15.53-.08.44-.16.91.03,1.31"/>
    <path class="cls-2" d="M49.84,184.88c-3.72-1.65-8.16-.86-11.73,1.09s-11.64,10.94-14.46,13.88c3.73,1.12,13.78-4.1,16.98-6.31,3.2-2.22,5.31-7.55,9.07-8.55-.92-1.74-1.84-3.49-2.75-5.23-1.9-3.61-3.83-7.35-4.09-11.41-.33-5.2-1.98-10.78.4-15.41"/>
    <path class="cls-2" d="M48.83,185.9c6.05,3.34,11.6,7.88,16.37,12.86,1.34,1.4,3.46-.73,2.12-2.12-4.94-5.15-10.72-9.88-16.98-13.33-1.69-.93-3.21,1.66-1.51,2.59h0Z"/>
    <path class="cls-2" d="M34.4,175.93c-1.05,4.38-10.18,10.91-14.41,12.47.69-2.13,4.34-7.86,5.5-9.78,1.15-1.92,5.66-2.8,7.76-3.56"/>
    <path class="cls-2" d="M60.33,191.57c4.62-6.73,5.53-15.85,2.34-23.36-3.49,2.15-5.58,6.16-6.06,10.23-.47,4.08.52,8.21,2.13,11.98.15.35.31.72.3,1.1-.01.78-.68,1.38-1.28,1.88-4.77,3.99-8.8,8.86-11.85,14.28,7.65-.94,13.99-8.19,13.89-15.89"/>
    <path class="cls-2" d="M63.17,196.71c1.83,1.54,3.15,3.52,4.64,5.37,1.36,1.69,2.9,3.05,4.76,4.17,1.57.95,3.3,1.75,4.63,3.03.62.59,1.06,1.25,1.39,2.04.45,1.1.91,2.1,1.99,2.72,1.68.96,3.19-1.64,1.51-2.59-.69-.39-.85-1.64-1.21-2.3-.44-.8-1.05-1.53-1.72-2.14-1.46-1.33-3.21-2.24-4.89-3.24-1.76-1.05-3.15-2.32-4.43-3.93-1.45-1.81-2.76-3.75-4.55-5.26-.62-.52-1.51-.61-2.12,0-.54.54-.62,1.6,0,2.12h0Z"/>
    <path class="cls-2" d="M70.63,202.73c-.81-5.14-.03-10.52,2.2-15.23,1.9,2.17,2.38,5.31,1.9,8.16-.48,2.85-1.81,5.47-3.18,8.01"/>
    <path class="cls-2" d="M76.05,206.56c-1.38-.29-2.8.27-4.03.95-3.38,1.85-6.2,4.58-8.64,7.56,2.67.36,5.37-.78,7.46-2.49,2.09-1.71,3.66-3.95,5.19-6.17"/>
    <g>
      <path class="cls-1" d="M106.97,230.32c-3.69-1.25-6.48-4.24-9.45-6.76-3.67-3.12-7.81-5.63-11.99-8-1.84-1.04-3.72-2.09-5.14-3.66-1.06-1.18-1.45-2.95-2.74-3.88-1.21-.87-2.85-1.57-3.68-2.85,1.27.87,2.55,1.74,3.82,2.61.9.61,1.8,1.23,2.57,2,.66.66,1.21,1.41,1.83,2.1,3.12,3.45,7.8,4.93,11.67,7.52,2.9,1.94,5.34,4.51,8.25,6.45,2,1.34,2.69,1.62,4.87,2.64-.25.61.57,1.53,0,1.83"/>
      <path class="cls-1" d="M107.36,228.87c-3.21-1.15-5.65-3.65-8.17-5.85-2.8-2.44-5.85-4.56-9.01-6.48-1.53-.93-3.08-1.81-4.63-2.7s-3.22-1.8-4.28-3.24c-.83-1.12-1.24-2.47-2.29-3.43-1.12-1.04-2.8-1.49-3.71-2.75l-2.05,2.05c1.61,1.1,3.26,2.15,4.83,3.31,1.33.98,2.23,2.28,3.36,3.46,2.31,2.41,5.34,3.89,8.24,5.44,3.18,1.7,5.84,3.85,8.62,6.13,2.48,2.04,5.06,3.62,7.96,4.98l-.69-1.69c-.08.38-.1.71-.05,1.1.01.16.04.31.09.47.09.49.2.35.34-.39-1.44,1.3.69,3.41,2.12,2.12.4-.36.63-.85.65-1.39.01-.3-.28-.99-.26-1.1.12-.6-.07-1.4-.69-1.69-2.94-1.37-5.53-2.98-8.02-5.07-2.72-2.28-5.41-4.36-8.55-6.04-2.93-1.56-5.95-3.02-8.17-5.56-1.08-1.24-2.1-2.36-3.44-3.34-1.58-1.15-3.22-2.21-4.83-3.31-1.21-.82-2.93.84-2.05,2.05,1.02,1.41,2.38,2.12,3.78,3.09,1.28.89,1.69,2.5,2.65,3.68,2.31,2.83,6.11,4.35,9.17,6.2,3.33,2.01,6.49,4.21,9.4,6.79,2.72,2.41,5.41,4.84,8.89,6.08,1.82.65,2.61-2.25.8-2.89h0Z"/>
    </g>
  </g>
  <g>
    <path class="cls-2" d="M200.68,186.86c2.98-.27,7.84,1.06,10.26,2.81,3.76,2.73,7.42,2.19,10.72.06-2.35-2.29-6.85-7.92-10.07-7.32-3.23.6-8.03,2.87-10.9,4.45,3.02-1.7,5.03-5.37,7.32-7.97,1.89-2.14,1.63-8.23,2.13-11.04-7.07,1.28-7.19,12.06-9.45,19.01"/>
    <path class="cls-2" d="M200.71,184.94c-3.94,2.32-7.89,4.64-11.83,6.97-1.66.98-.15,3.57,1.51,2.59,3.94-2.32,7.89-4.64,11.83-6.97,1.66-.98.15-3.57-1.51-2.59h0Z"/>
    <path class="cls-2" d="M193.83,172.74c-.11-.22-4.91,3.53-5.16,5.36s-1.11,2.85-.77,4.66c.62,3.32,1.25,6.65,1.87,9.97.05.28.1.58-.02.84"/>
    <path class="cls-2" d="M189.65,193.28c2.39-1.07,5.24-.57,7.54.68s7.5,7.01,9.31,8.89c-2.39.72-8.86-2.61-10.92-4.03s-3.42-4.84-5.84-5.48c.59-1.12,1.17-2.24,1.76-3.37,1.21-2.32,2.45-4.73,2.61-7.34.21-3.34,1.25-6.93-.28-9.9"/>
    <path class="cls-2" d="M189.06,191.81c-2.08,1.15-4.01,2.55-5.86,4.03s-3.54,2.98-5.13,4.65c-.56.59-.58,1.54,0,2.12s1.56.59,2.12,0c3.06-3.2,6.52-6.06,10.39-8.21.71-.39.94-1.36.54-2.05s-1.34-.93-2.05-.54h0Z"/>
    <path class="cls-2" d="M199.55,187.51c.68,2.81,6.56,6.99,9.28,7.99-.45-1.37-2.8-5.04-3.55-6.27s-3.64-1.79-4.99-2.27"/>
    <path class="cls-2" d="M182.92,197.6c-2.98-4.32-3.58-10.17-1.54-15,2.25,1.38,3.6,3.95,3.91,6.56s-.32,5.27-1.35,7.7c-.1.23-.2.46-.19.71,0,.5.44.88.82,1.21,3.07,2.56,5.67,5.67,7.63,9.15-4.91-.59-9-5.24-8.95-10.18"/>
    <path class="cls-2" d="M179.36,199.17c-.93.79-1.67,1.76-2.4,2.72-.08.1-.15.2-.23.3-.05.06-.09.12-.14.18.07-.09.07-.09,0,0-.17.21-.34.43-.51.63-.37.43-.76.85-1.19,1.22-.07.06-.27.2-.09.08-.1.07-.21.15-.32.21-.18.11-.36.21-.55.3-.31.15.09-.02-.03.01-.08.03-.16.06-.24.09-.19.07-.38.13-.57.2-1.14.42-2.09,1-3,1.8-.59.52-.57,1.6,0,2.12.63.58,1.49.55,2.12,0,.37-.32.64-.53,1.18-.81.09-.04.17-.08.26-.13.31-.15-.25.09.04-.02.19-.07.38-.14.57-.21,1.02-.37,1.9-.82,2.73-1.53.91-.77,1.62-1.74,2.35-2.69.09-.12.18-.24.27-.36.15-.2,0,0,.08-.11.17-.21.34-.43.51-.63.38-.45.79-.87,1.25-1.26.6-.51.56-1.6,0-2.12-.64-.59-1.48-.54-2.12,0h0Z"/>
    <path class="cls-2" d="M170.25,210.01c1.93,0,1.93-3,0-3s-1.93,3,0,3h0Z"/>
    <path class="cls-2" d="M176.33,204.79c.51-3.3,0-6.76-1.44-9.78-1.22,1.4-1.52,3.42-1.21,5.24s1.17,3.51,2.05,5.14"/>
    <path class="cls-2" d="M172.85,207.25c.89-.19,1.8.17,2.59.61,2.17,1.18,3.99,2.93,5.56,4.84-1.72.23-3.45-.49-4.8-1.59s-2.36-2.53-3.35-3.95"/>
    <g>
      <path class="cls-1" d="M156.08,219.82c2.35-2.01,5.01-3.63,7.69-5.16,1.18-.67,2.39-1.35,3.29-2.36.68-.76.93-1.9,1.75-2.5.78-.56,1.83-1.02,2.36-1.84-.82.56-1.63,1.12-2.45,1.68-.57.39-1.15.79-1.65,1.29-.42.42-.77.91-1.17,1.35-2,2.22-5,3.18-7.48,4.85-1.86,1.25-3.28,3.33-5.14,4.58"/>
      <path class="cls-1" d="M157.14,220.88c2.74-2.32,5.9-3.89,8.89-5.82,1.42-.92,2.38-1.97,3.21-3.43.35-.61.81-.84,1.39-1.22.73-.47,1.33-.99,1.84-1.69.88-1.21-.85-2.88-2.05-2.05-1.67,1.15-3.58,2.2-4.9,3.76-1.22,1.44-2.53,2.43-4.18,3.33s-3.24,1.66-4.66,2.82-2.61,2.76-4.16,3.84-.07,3.7,1.51,2.59,2.8-2.56,4.22-3.85c1.34-1.21,3.02-1.96,4.59-2.82s3.12-1.85,4.31-3.23c.65-.75,1.25-1.44,2.07-2.01.89-.62,1.8-1.24,2.7-1.85l-2.05-2.05c-.33.46-.95.72-1.41,1.02-.7.45-1.24.96-1.68,1.66-.35.57-.6,1.18-1.08,1.65-.57.56-1.25.97-1.93,1.38-3.04,1.79-6.05,3.55-8.75,5.83-1.48,1.25.65,3.36,2.12,2.12h0Z"/>
    </g>
  </g>
  <g>
    <path class="cls-1" d="M124.69,252.62c-6.11,65.83-12.23,131.66-18.34,197.49-1.67,17.96-3.35,36-7.71,53.49-3.69,14.8-9.33,29.71-7.42,44.84"/>
    <path class="cls-1" d="M123.19,252.62c-1.83,19.65-3.65,39.3-5.48,58.95-1.82,19.57-3.63,39.13-5.45,58.7s-3.65,39.3-5.48,58.95-3.06,38.45-6.21,57.44c-1.55,9.33-3.84,18.44-6.34,27.55-2.46,8.96-4.82,18.11-4.9,27.46-.02,2.26.11,4.52.38,6.77.23,1.89,3.23,1.92,3,0-1.12-9.28.53-18.48,2.82-27.45,2.34-9.2,5.08-18.26,6.87-27.6,3.6-18.78,4.94-37.95,6.71-56.97,1.83-19.65,3.65-39.3,5.48-58.95,1.82-19.57,3.63-39.13,5.45-58.7,1.83-19.65,3.65-39.3,5.48-58.95l.67-7.21c.18-1.92-2.82-1.91-3,0h0Z"/>
  </g>
  <g>
    <path class="cls-1" d="M132.19,253.46c.7,37.72-5.77,75.28-5.26,113,.85,62.41,20.79,124.91,9.9,186.37-.22,1.23-.49,2.54-1.38,3.41-.86.84-2.11,1.1-3.29,1.29-14.4,2.39-29.43.93-43.1-4.2"/>
    <path class="cls-1" d="M130.69,253.46c.42,23.48-1.9,46.86-3.61,70.25-.86,11.77-1.56,23.57-1.67,35.38s.44,22.69,1.39,33.99c1.92,22.71,5.4,45.25,8.09,67.88,2.66,22.38,4.57,44.96,3.25,67.5-.33,5.67-.86,11.34-1.65,16.96-.38,2.7-.67,5.49-1.34,8.14-.27,1.07-.71,1.83-1.81,2.19-1.23.4-2.58.52-3.85.69-10.73,1.45-21.76.73-32.23-2.05-2.65-.7-5.25-1.54-7.82-2.5-1.81-.67-2.59,2.22-.8,2.89,10.39,3.86,21.53,5.69,32.61,5.33,2.74-.09,5.47-.32,8.18-.67,2.29-.3,5.12-.38,6.93-2.02s2-4.66,2.38-7c.45-2.78.84-5.57,1.18-8.36,2.77-22.85,1.68-45.96-.66-68.8-2.36-23.06-5.99-45.97-8.4-69.02-1.21-11.53-2.11-23.1-2.38-34.69-.28-11.85.16-23.7.89-35.53,1.48-23.9,4.14-47.74,4.35-71.71.03-2.95.01-5.9-.04-8.85-.03-1.93-3.03-1.93-3,0h0Z"/>
  </g>
  <g>
    <path class="cls-1" d="M129.3,292.85c6.66-15.96,17.98-29.93,32.2-39.76-15.24,16.21-27.26,35.44-35.16,56.24"/>
    <path class="cls-1" d="M130.75,293.25c6.55-15.59,17.63-29.23,31.51-38.87l-1.82-2.36c-11.97,12.77-22.01,27.33-29.61,43.1-2.18,4.51-4.15,9.12-5.93,13.8-.69,1.81,2.21,2.59,2.89.8,6.09-15.98,14.62-31.06,25.22-44.49,3.02-3.83,6.21-7.53,9.55-11.09,1.11-1.19-.36-3.37-1.82-2.36-11.29,7.84-20.8,18.13-27.66,30.04-1.97,3.43-3.7,6.98-5.23,10.62-.32.75.34,1.64,1.05,1.85.86.25,1.53-.3,1.85-1.05h0Z"/>
  </g>
  <g>
    <path class="cls-1" d="M124.83,291.78c-11.6-7.26-23.7-13.7-36.2-19.28,14.76,8.75,30.23,18.24,38.24,33.41"/>
    <path class="cls-1" d="M125.59,290.48c-11.61-7.25-23.7-13.69-36.2-19.28-1.72-.77-3.21,1.58-1.51,2.59,11.29,6.7,22.88,13.63,31.49,23.73,2.4,2.81,4.48,5.87,6.22,9.14.91,1.7,3.5.19,2.59-1.51-6.44-12.07-17.46-20.65-28.8-27.87-3.29-2.09-6.63-4.09-9.98-6.08l-1.51,2.59c12.49,5.59,24.59,12.03,36.2,19.28,1.64,1.03,3.15-1.57,1.51-2.59h0Z"/>
  </g>
  <path class="cls-1" d="M143.84,113.73c.78-6.59,1.58-13.18,2.34-19.78s1.33-13.17.66-19.76c-.19-1.9-3.2-1.92-3,0,.67,6.59.1,13.2-.66,19.76s-1.56,13.18-2.34,19.78c-.23,1.91,2.78,1.9,3,0h0Z"/>
  <path class="cls-1" d="M172,165.18c4.78-2.71,8.7-6.59,12.64-10.35s7.93-7.46,12.98-9.46c1.77-.7,1-3.6-.8-2.89-10.61,4.2-16.62,14.59-26.33,20.11-1.68.95-.17,3.55,1.51,2.59h0Z"/>
  <path class="cls-1" d="M105.68,165.9c-3.12-4.96-8.72-7.65-12.89-11.61s-8.09-8.62-13.26-11.56c-1.68-.96-3.19,1.63-1.51,2.59,4.94,2.81,8.58,7.23,12.65,11.1,1.99,1.89,4.13,3.55,6.34,5.17s4.55,3.42,6.08,5.84c1.03,1.63,3.62.13,2.59-1.51h0Z"/>
  <path class="cls-1" d="M172.62,208.58c5.1-3.43,9.53-7.69,13.18-12.62.48-.65.11-1.67-.54-2.05-.76-.45-1.57-.11-2.05.54-3.33,4.5-7.46,8.42-12.11,11.55-.67.45-.97,1.32-.54,2.05.39.67,1.38.99,2.05.54h0Z"/>
  <g>
    <path class="cls-2" d="M231.63,228.36c2.53-2.95,4.8-9.12,4.77-13.01-.05-6.06,3.28-9.53,8.03-11.41.66,4.22,3.23,13.24.16,16.21s-9.1,6.35-12.95,8.2c4.08-1.91,9.5-1.28,13.99-1.75,3.69-.39,9.96,4.49,13.32,6.08-6.7,6.53-18.22-1.48-27.3-4.33"/>
    <path class="cls-2" d="M232.14,226.71c-5.44,2.43-10.88,4.86-16.32,7.29-.74.33-.92,1.41-.54,2.05.45.76,1.31.87,2.05.54,5.44-2.43,10.88-4.86,16.32-7.29.74-.33.92-1.41.54-2.05-.45-.76-1.31-.87-2.05-.54h0Z"/>
    <path class="cls-2" d="M241.43,246.3c.15.28-7.45,2.55-9.58,1.43s-3.86-.98-5.53-2.71c-3.05-3.17-6.11-6.35-9.16-9.52-.26-.27-.54-.55-.9-.62"/>
    <path class="cls-2" d="M216.49,235.21c2.94-1.72,4.56-5.13,4.97-8.51s-1.77-13.25-2.4-16.59c-2.57,1.99-3.93,11.37-3.98,14.62s2.55,7.29,1.4,10.34c1.63.23,3.27.45,4.9.68,3.38.47,6.86.97,9.76,2.78,3.7,2.31,8.29,3.9,10.29,7.78"/>
    <path class="cls-2" d="M216.04,233.88c-5.19,2.47-11,3.99-16.67,4.81-.8.12-1.24,1.13-1.05,1.85.24.86,1.04,1.16,1.85,1.05,5.95-.86,11.95-2.53,17.39-5.11.73-.35.92-1.4.54-2.05-.44-.75-1.32-.89-2.05-.54h0Z"/>
    <path class="cls-2" d="M230.1,229.07c-2.47-2.85-2.46-12.24-1.47-15.88,1.11,1.51,3.23,6.78,3.97,8.5s-.85,5.21-1.36,7.01"/>
    <path class="cls-2" d="M206.83,239.09c2.33,6.42,8.08,11.48,14.75,12.96.24-3.42-1.47-6.8-4.01-9.1s-5.84-3.64-9.19-4.39c-.31-.07-.64-.14-.9-.33-.53-.39-.61-1.13-.66-1.79-.39-5.19-1.74-10.3-3.94-15.01-3.09,5.66-1.24,13.5,4.04,17.19"/>
    <path class="cls-2" d="M201.76,238.31c-1.88.46-3.8.37-5.72.5-1.78.12-3.42.47-5.06,1.16-1.45.62-2.88,1.42-4.44,1.73s-3.18-.73-4.74-.08c-.74.31-1.29,1-1.05,1.85.2.7,1.09,1.36,1.85,1.05.7-.29,1.53.15,2.26.23.83.1,1.66.02,2.48-.15,1.6-.33,3.07-1.12,4.55-1.77,3.42-1.49,7.12-.75,10.67-1.62,1.87-.46,1.08-3.36-.8-2.89h0Z"/>
    <path class="cls-2" d="M181.79,241.54c-4.45,1.51-8.44,4.13-12.97,5.43-4.05,1.17-8.27,1.9-11.51,4.81-1.44,1.3.69,3.41,2.12,2.12,2.97-2.68,7.22-3.11,10.9-4.26,4.26-1.32,8.04-3.79,12.25-5.22,1.82-.62,1.04-3.52-.8-2.89h0Z"/>
    <path class="cls-2" d="M194.22,240.66c3.89,1.95,7.17,5.1,9.29,8.91-2.4.24-4.77-.97-6.47-2.68s-2.84-3.89-3.9-6.06"/>
    <path class="cls-2" d="M188.98,242.48c.87-.8,1.17-2.04,1.32-3.21.39-3.2-.1-6.45-.93-9.56-1.54,1.64-2.08,4.04-1.94,6.29s.9,4.41,1.66,6.53"/>
    <g>
      <path class="cls-1" d="M157.76,251.93c2.65-1.9,6.03-2.34,9.2-3.13,3.91-.98,7.63-2.57,11.28-4.26,1.6-.74,3.24-1.52,4.99-1.71,1.32-.15,2.72.45,3.97.03,1.18-.4,2.46-1.17,3.73-1.12-1.21.44-2.43.89-3.64,1.33-.85.31-1.71.62-2.61.77-.77.13-1.55.13-2.32.22-3.86.44-7.16,2.91-10.79,4.27-2.73,1.03-5.67,1.44-8.4,2.47-1.89.71-3.65,1.7-5.41,2.69-.29-.47-.07-1.01,0-1.55"/>
      <path class="cls-1" d="M158.52,253.23c2.29-1.58,4.98-2.09,7.64-2.7,2.9-.67,5.7-1.61,8.44-2.76s5.33-2.78,8.16-3.36c1.36-.28,2.69.21,4.06.03,1.43-.19,2.65-1.18,4.11-1.21l-.4-2.95c-1.5.55-2.98,1.13-4.49,1.63s-2.96.5-4.49.74c-2.74.44-5.22,1.79-7.69,3-2.66,1.31-5.39,2.04-8.24,2.8-3.09.82-5.85,2.17-8.63,3.72l2.2.9c-.09-.25-.09-.5,0-.76.34-1.89-2.55-2.7-2.89-.8-.15.82-.29,1.55,0,2.35.33.91,1.31,1.4,2.2.9,2.7-1.52,5.35-2.76,8.36-3.54,2.82-.73,5.51-1.52,8.13-2.8,2.36-1.15,4.72-2.53,7.36-2.89,1.53-.21,2.99-.24,4.47-.74s3-1.09,4.49-1.63,1.39-2.99-.4-2.95c-1.61.04-2.8.9-4.31,1.22-1.37.28-2.81-.25-4.22-.01-3,.52-5.78,2.26-8.56,3.42s-5.83,2.17-8.88,2.86c-2.77.63-5.58,1.27-7.96,2.91-1.58,1.09-.08,3.69,1.51,2.59h0Z"/>
    </g>
  </g>
  <g>
    <path class="cls-2" d="M31.43,258.42c-2.53-2.95-4.8-9.12-4.77-13.01.05-6.06-3.28-9.53-8.03-11.41-.66,4.22-3.23,13.24-.16,16.21s9.1,6.35,12.95,8.2c-4.08-1.91-9.5-1.28-13.99-1.75-3.69-.39-9.96,4.49-13.32,6.08,6.7,6.53,18.22-1.48,27.3-4.33"/>
    <path class="cls-2" d="M29.41,259.36c5.44,2.43,10.88,4.86,16.32,7.29.74.33,1.61.21,2.05-.54.37-.64.21-1.72-.54-2.05-5.44-2.43-10.88-4.86-16.32-7.29-.74-.33-1.61-.21-2.05.54-.37.64-.21,1.72.54,2.05h0Z"/>
    <path class="cls-2" d="M21.63,276.36c-.15.28,7.45,2.55,9.58,1.43s3.86-.98,5.53-2.71c3.05-3.17,6.11-6.35,9.16-9.52.26-.27.54-.55.9-.62"/>
    <path class="cls-2" d="M46.57,265.27c-2.94-1.72-4.56-5.13-4.97-8.51s1.77-13.25,2.4-16.59c2.57,1.99,3.93,11.37,3.98,14.62s-2.55,7.29-1.4,10.34c-1.63.23-3.27.45-4.9.68-3.38.47-6.86.97-9.76,2.78-3.7,2.31-8.29,3.9-10.29,7.78"/>
    <path class="cls-2" d="M45.51,266.53c5.43,2.59,11.44,4.26,17.39,5.11.8.12,1.61-.2,1.85-1.05.19-.7-.24-1.73-1.05-1.85-5.67-.82-11.48-2.34-16.67-4.81-.73-.35-1.62-.2-2.05.54-.38.65-.2,1.7.54,2.05h0Z"/>
    <path class="cls-2" d="M32.97,259.13c2.47-2.85,2.46-12.24,1.47-15.88-1.11,1.51-3.23,6.78-3.97,8.5s.85,5.21,1.36,7.01"/>
    <path class="cls-2" d="M56.23,269.15c-2.33,6.42-8.08,11.48-14.75,12.96-.24-3.42,1.47-6.8,4.01-9.1s5.84-3.64,9.19-4.39c.31-.07.64-.14.9-.33.53-.39.61-1.13.66-1.79.39-5.19,1.74-10.3,3.94-15.01,3.09,5.66,1.24,13.5-4.04,17.19"/>
    <path class="cls-2" d="M60.51,271.26c3.55.88,7.25.13,10.67,1.62,1.48.65,2.95,1.43,4.55,1.77.82.17,1.64.25,2.48.15.73-.08,1.56-.52,2.26-.23.75.31,1.64-.34,1.85-1.05.25-.86-.3-1.54-1.05-1.85-1.56-.65-3.13.4-4.74.08s-2.99-1.11-4.44-1.73c-1.64-.7-3.28-1.04-5.06-1.16-1.92-.13-3.84-.04-5.72-.5s-2.67,2.43-.8,2.89h0Z"/>
    <path class="cls-2" d="M80.48,274.49c4.22,1.43,7.99,3.9,12.25,5.22,3.68,1.14,7.93,1.57,10.9,4.26,1.43,1.29,3.56-.83,2.12-2.12-3.24-2.92-7.46-3.64-11.51-4.81-4.53-1.31-8.51-3.92-12.97-5.43-1.83-.62-2.62,2.28-.8,2.89h0Z"/>
    <path class="cls-2" d="M68.84,270.72c-3.89,1.95-7.17,5.1-9.29,8.91,2.4.24,4.77-.97,6.47-2.68s2.84-3.89,3.9-6.06"/>
    <path class="cls-2" d="M74.08,272.54c-.87-.8-1.17-2.04-1.32-3.21-.39-3.2.1-6.45.93-9.56,1.54,1.64,2.08,4.04,1.94,6.29s-.9,4.41-1.66,6.53"/>
    <g>
      <path class="cls-1" d="M105.3,281.99c-2.65-1.9-6.03-2.34-9.2-3.13-3.91-.98-7.63-2.57-11.28-4.26-1.6-.74-3.24-1.52-4.99-1.71-1.32-.15-2.72.45-3.97.03-1.18-.4-2.46-1.17-3.73-1.12,1.21.44,2.43.89,3.64,1.33.85.31,1.71.62,2.61.77.77.13,1.55.13,2.32.22,3.86.44,7.16,2.91,10.79,4.27,2.73,1.03,5.67,1.44,8.4,2.47,1.89.71,3.65,1.7,5.41,2.69.29-.47.07-1.01,0-1.55"/>
      <path class="cls-1" d="M106.06,280.7c-2.38-1.64-5.19-2.28-7.96-2.91-3.05-.69-5.99-1.65-8.88-2.86s-5.56-2.9-8.56-3.42c-1.37-.24-2.7.26-4.04.06-1.58-.24-2.83-1.22-4.5-1.26-1.78-.04-1.92,2.39-.4,2.95s2.98,1.13,4.49,1.63c1.41.47,2.78.55,4.24.72,2.73.31,5.16,1.73,7.59,2.91,2.55,1.24,5.17,2.03,7.91,2.74,3.09.8,5.81,2.04,8.58,3.6.9.5,1.87.02,2.2-.9.29-.8.14-1.53,0-2.35-.34-1.9-3.23-1.09-2.89.8.1.25.1.51,0,.76l2.2-.9c-2.7-1.52-5.4-2.85-8.41-3.66s-5.73-1.51-8.46-2.86c-2.39-1.18-4.82-2.51-7.48-2.97-1.51-.26-3.01-.23-4.47-.71-1.59-.51-3.14-1.13-4.71-1.7l-.4,2.95c1.46.04,2.68,1.03,4.11,1.21s2.7-.31,4.06-.03c2.83.57,5.51,2.25,8.16,3.36s5.54,2.09,8.44,2.76c2.66.61,5.35,1.12,7.64,2.7,1.59,1.1,3.1-1.5,1.51-2.59h0Z"/>
    </g>
  </g>
</svg>