<?xml version="1.0" encoding="UTF-8"?>
<svg id="Layer_1" data-name="Layer 1" xmlns="http://www.w3.org/2000/svg" viewBox="0 0 112.2 171.07">
  <defs>
    <style>
      .cls-1 {
        fill: #67af44;
      }
    </style>
  </defs>
  <path class="cls-1" d="M44.84,74.65c-5.16-10.3-23.42-18.52-30.02-27.96C6.16,34.28,3.93,18.99,4.25,3.85c12.29,3.05,28.52,14.2,33.09,26.01,4.57,11.81,6.87,32.14,7.51,44.79-.53-13.34-2.64-34.41,1.22-47.2,3.18-10.52,20.82-20.13,29.02-27.46,10.12,25.78-17.35,50.81-30.24,74.65"/>
  <path class="cls-1" d="M43.81,70.8c.38,17.64.75,35.28,1.13,52.92.04,1.93,3.04,1.93,3,0-.38-17.64-.75-35.28-1.13-52.92-.04-1.93-3.04-1.93-3,0h0Z"/>
  <path class="cls-1" d="M46.13,123.85c-1.33-9.99-8.76-18.34-17.51-23.35s-18.78-7.21-28.63-9.34c2.48,9.32,11.47,15.31,20.29,19.19,8.82,3.88,18.46,6.72,25.45,13.36,2.49-4.2,4.99-8.4,7.48-12.6,5.15-8.68,10.54-17.62,18.79-23.44,10.54-7.44,27.27-12.01,40.13-13.01.94-.07-11.03,25.77-18.29,28.89-6.53,2.8-32.56,14.97-46.13,18.81-1.06.3-2.12.84-2.72,1.76"/>
  <path class="cls-1" d="M44.88,122.97c.74,15.57-.88,31.16-4.83,46.24-.49,1.87,2.4,2.67,2.89.8,4.02-15.32,5.69-31.22,4.93-47.04-.09-1.92-3.09-1.93-3,0h0Z"/>
  <path class="cls-1" d="M45.02,79.66c-10.61,3.46-22.89,1.28-31.67-5.62,5.39-1.31,10.84-2.62,16.39-2.67s11.28,1.27,15.61,4.74"/>
</svg>