<?xml version="1.0" encoding="UTF-8"?>
<svg id="Layer_1" data-name="Layer 1" xmlns="http://www.w3.org/2000/svg" viewBox="0 0 124.66 301.55">
  <defs>
    <style>
      .cls-1 {
        fill: #7b4d38;
      }

      .cls-2 {
        fill: #67af44;
      }
    </style>
  </defs>
  <path class="cls-2" d="M64.26,69.54c-5.16-10.3-19.36-23.59-30.02-27.96C17.65,34.77,12,21.69,12.32,6.55c12.29,3.05,39.86,6.4,44.43,18.21,4.57,11.81,6.87,32.14,7.51,44.79-.53-13.34,7.43-27.4,11.3-40.18,3.18-10.52,23.69-22.04,31.89-29.36,10.12,25.78-24.97,48.04-43.19,69.54"/>
  <path class="cls-2" d="M63.23,65.69c.38,17.64.75,35.28,1.13,52.92.04,1.93,3.04,1.93,3,0-.38-17.64-.75-35.28-1.13-52.92-.04-1.93-3.04-1.93-3,0h0Z"/>
  <path class="cls-2" d="M124.47,63.41c.94-.07-1.61,23.27-7.1,27.79s-7.1,9.41-13.73,11.97c-12.17,4.69-24.34,9.38-36.5,14.06-1.02.39-2.12.84-2.72,1.76"/>
  <path class="cls-2" d="M65.55,118.74c-1.33-9.99-8.76-18.34-17.51-23.35S9.85,85.01,0,82.88c2.48,9.32,26.52,23.78,35.34,27.66,8.82,3.88,22.83,1.42,29.82,8.06,2.49-4.2,4.99-8.4,7.48-12.6,5.15-8.68,10.54-17.62,18.79-23.44,10.54-7.44,20.18-18.15,33.05-19.15"/>
  <path class="cls-2" d="M64.3,117.86c.65,13.66-.92,27.53-3.51,40.92-.7,3.64-1.51,7.27-2.45,10.85-.49,1.87,2.4,2.67,2.89.8,3.52-13.42,5.52-27.4,6.08-41.26.15-3.77.17-7.55,0-11.31-.09-1.92-3.09-1.93-3,0h0Z"/>
  <path class="cls-2" d="M64.44,74.56c-10.61,3.46-36.24-7.35-45.01-14.24,5.39-1.31,22.22-1.02,27.77-1.07,5.55-.05,13.25,8.3,17.58,11.78"/>
  <path class="cls-2" d="M65.04,149.56c20.19,1.02,40.61-8.87,52.33-25.35-9.07-4.59-20.24-3.8-29.45.49-9.21,4.29-16.64,11.75-22.53,20.03-.55.78-1.12,1.59-1.94,2.07-1.67.99-3.79.36-5.63-.26-14.61-4.89-30.11-7.1-45.5-6.49,11.89,14.92,35.42,18.9,51.56,8.72"/>
  <path class="cls-2" d="M60.04,162.69c-1.28,8.66-6.19,16.27-7.51,24.91-1.12,7.36.9,15.04-1.14,22.27-.58,2.04-1.55,3.81-2.83,5.49-1.36,1.77-2.6,3.68-2.47,6,.11,1.92,3.11,1.93,3,0-.11-2.04,1.4-3.56,2.53-5.1,1.05-1.43,1.84-3.05,2.4-4.73,1.16-3.47,1.3-7.23,1.26-10.86s-.33-7.52.03-11.26c.4-4.14,1.89-8.14,3.35-12,1.73-4.55,3.56-9.09,4.27-13.93.28-1.89-2.61-2.7-2.89-.8h0Z"/>
  <path class="cls-2" d="M45.85,221.3c-.8,10.41.62,20.8.58,31.21s-2.45,19.6-2.97,29.5c-.29,5.42.15,10.9,2,16.03.65,1.8,3.55,1.02,2.89-.8-3.32-9.22-1.7-19.06-.34-28.49.69-4.83,1.31-9.66,1.4-14.54.1-5.17-.21-10.33-.47-15.49-.3-5.8-.53-11.61-.08-17.41.15-1.93-2.85-1.92-3,0h0Z"/>
  <path class="cls-2" d="M54.83,185.78c9.8-8.37,22.17-13.71,34.98-15.11-2.12,6.83-8.13,11.91-14.76,14.59s-13.89,3.28-21.03,3.69"/>
  <path class="cls-2" d="M53.78,202.17c-1.17-3.3-4.2-5.55-7.24-7.28-8.28-4.73-17.71-7.14-27.16-8.44,2.71,6.1,8.62,10.33,14.93,12.51s13.08,2.6,19.75,2.97"/>
  <g>
    <path class="cls-1" d="M43.71,298.24c-2.15-9.42.54-19.16,2.02-28.71,1.82-11.79,1.76-23.78,1.34-35.69-.18-5.23-.42-10.57,1.07-15.59,1.11-3.76,4.35-6.89,4.63-10.81.27-3.68-.38-8.06,1.24-11.46-.19,3.82-.37,7.64-.56,11.45-.13,2.69-.26,5.39-.89,8.01-.53,2.24-1.42,4.38-2.07,6.59-3.23,11.05-.29,22.87-.73,34.37-.33,8.64-2.58,17.13-2.92,25.77-.24,5.97.44,11.92,1.11,17.86-1.61.25-2.84-.96-4.24-1.79"/>
    <path class="cls-1" d="M45.16,297.84c-1.52-6.91-.42-13.98.8-20.84s2.24-13.83,2.61-20.86.27-14.22.04-21.32c-.21-6.45-.85-13.46,2.4-19.31,1.51-2.72,3.1-5.28,3.29-8.47.21-3.39-.42-7.11,1.01-10.31l-2.8-.76c-.18,3.65-.35,7.3-.53,10.96-.16,3.36-.36,6.65-1.35,9.88s-2.11,6.25-2.6,9.57-.61,6.56-.54,9.86c.15,6.72,1.04,13.43.78,20.16s-1.71,13.5-2.48,20.26c-.89,7.84-.22,15.56.67,23.36l1.5-1.5c-1.34.12-2.4-.92-3.48-1.59-1.65-1.02-3.16,1.58-1.51,2.59s3.03,2.17,5,2c.74-.07,1.6-.64,1.5-1.5-.78-6.89-1.51-13.79-.93-20.73s2.09-13.62,2.61-20.5-.26-13.48-.56-20.22c-.14-3.25-.17-6.51.15-9.74s1.23-6.51,2.3-9.69c1.22-3.61,1.71-7.21,1.9-11,.2-4.05.39-8.11.59-12.17.07-1.42-2.18-2.13-2.8-.76-1.33,2.98-1.35,6.14-1.36,9.35,0,1.38.05,2.79-.32,4.12-.39,1.41-1.12,2.68-1.85,3.95-1.57,2.76-2.74,5.4-3.24,8.56-.54,3.42-.55,6.86-.45,10.31.22,7.31.45,14.61.19,21.92s-1.1,14.26-2.37,21.34c-1.41,7.88-2.8,15.9-1.05,23.85.41,1.88,3.31,1.09,2.89-.8h0Z"/>
  </g>
</svg>