<?xml version="1.0" encoding="UTF-8"?>
<svg id="Layer_1" data-name="Layer 1" xmlns="http://www.w3.org/2000/svg" viewBox="0 0 303 548.74">
  <defs>
    <style>
      .cls-1 {
        fill: #7b4d38;
      }

      .cls-2 {
        fill: #67af44;
      }

      .cls-3 {
        fill: #66af45;
      }
    </style>
  </defs>
  <g>
    <path class="cls-1" d="M160.14,174.21c-5.55,3.56-6.39,11.19-6.68,17.77-1.54,34.11-3.76,68.19-6.65,102.22-.08.99-.07,2.2.77,2.74.41.27.93.29,1.42.31.91.03,1.83.06,2.74.09.47.02.98.02,1.38-.23.71-.45.76-1.45.73-2.29-.6-15.29-1.85-30.65-.09-45.85.64-5.55,1.68-11.06,2.27-16.62,1.4-13.27.23-26.66.25-40,0-4.09.17-8.37,2.13-11.96,1.07-1.96,2.7-3.97,2.16-6.14"/>
    <path class="cls-1" d="M159.39,172.92c-5.63,3.73-6.88,10.68-7.31,16.96-.6,8.88-.86,17.8-1.34,26.69-1,18.21-2.18,36.4-3.57,54.58-.35,4.55-.7,9.09-1.07,13.63-.19,2.31-.38,4.63-.57,6.94-.14,1.69-.64,3.81.24,5.38,1.01,1.78,3.06,1.63,4.84,1.69s3.51.14,4.37-1.63c.82-1.66.31-4.04.24-5.8-.1-2.3-.21-4.61-.32-6.91-.42-9.03-.77-18.09-.31-27.13s2.35-17.91,3.14-26.93c.79-9.03.47-18.11.23-27.16-.12-4.4-.27-8.82-.14-13.22.06-1.99.23-3.98.75-5.91s1.45-3.39,2.37-5.05,1.46-3.3,1.09-5.19-3.26-1.09-2.89.8c.32,1.66-1.05,3.28-1.81,4.63-.89,1.57-1.52,3.28-1.89,5.04-.79,3.76-.67,7.67-.62,11.48.1,8.49.55,16.97.38,25.46-.08,4.28-.33,8.55-.85,12.8s-1.24,8.46-1.8,12.7c-1.11,8.4-1.29,16.88-1.1,25.34.1,4.28.28,8.56.48,12.84.1,2.14.2,4.28.3,6.42.05,1.07.1,2.14.14,3.21,0,.27.11.77,0,1.02-.16.33-.13.26-.6.24-.94-.03-2.01.07-2.93-.1-.4-.08-.36-.01-.51-.37-.13-.32-.02-.84,0-1.17.15-2.15.36-4.3.54-6.44.35-4.3.7-8.59,1.03-12.89,1.33-17.1,2.48-34.22,3.46-51.35.49-8.61.94-17.21,1.35-25.82.29-6.21-.19-13.67,3.26-19.16.76-1.21,1.75-2.23,2.94-3.02,1.6-1.06.1-3.66-1.51-2.59h0Z"/>
  </g>
  <g>
    <path class="cls-1" d="M159.27,174.73c4.34-5.57,9.05-10.86,14.07-15.83,3.07-2.12-.04,2.4-.68,3.46-3.87,6.44-9.31,11.77-14.69,17.02"/>
    <path class="cls-1" d="M160.33,175.79c4.37-5.59,9.04-11.26,14.34-15.96.41-.36.03.04.04-.02.02-.11-1.79-1.23-1.53-1.36.05-.02.09-.07-.03.06-.03.04-.04.14-.06.18.1-.23-.12.23-.15.29-.11.22-.23.43-.36.64-.39.67-.81,1.31-1.22,1.97-1.81,2.94-3.89,5.66-6.18,8.25-2.62,2.95-5.45,5.71-8.28,8.47-1.38,1.35.74,3.47,2.12,2.12,5.58-5.45,10.95-10.96,15.1-17.6.82-1.32,3.19-4.23,1.38-5.62-1.16-.9-2.63.07-3.51.9-1.53,1.46-2.98,3.02-4.42,4.57-3.28,3.53-6.41,7.2-9.37,10.99-.5.64-.62,1.49,0,2.12.51.52,1.62.64,2.12,0h0Z"/>
  </g>
  <g>
    <path class="cls-1" d="M161.3,172.79c-.41,1.3-1.25,2.47-2.37,3.25-4.84-4.77-9.82-9.74-12.33-16.05-.73-1.82-1.43-3.95-3.25-4.69.68,5.09,4.21,9.24,7.2,13.42,2.98,4.18,5.65,9.3,4.28,14.25"/>
    <path class="cls-1" d="M159.85,172.39c-.32.93-.89,1.76-1.68,2.36l1.82.23c-3.32-3.27-6.69-6.57-9.29-10.47-1.25-1.87-2.21-3.83-3.05-5.91-.75-1.85-1.65-3.72-3.55-4.61-1.26-.59-2.4.37-2.2,1.69.73,4.9,3.79,8.89,6.63,12.79s6.16,8.9,4.84,14.08c-.48,1.87,2.42,2.67,2.89.8,1.38-5.42-1.13-10.69-4.18-15.05s-6.51-8.19-7.29-13.41l-2.2,1.69c1.72.81,2.18,2.93,2.87,4.54.89,2.1,2.04,4.07,3.36,5.92,2.64,3.68,5.83,6.88,9.05,10.05.43.42,1.29.63,1.82.23,1.46-1.1,2.46-2.41,3.06-4.15.63-1.83-2.26-2.61-2.89-.8h0Z"/>
  </g>
  <path class="cls-1" d="M144.79,159.07c1.93,0,1.93-3,0-3s-1.93,3,0,3h0Z"/>
  <path class="cls-1" d="M144.42,158.42c1.93,0,1.93-3,0-3s-1.93,3,0,3h0Z"/>
  <path class="cls-2" d="M166.6,35.2c-2.61-5.21-9.8-11.94-15.19-14.15-8.4-3.45-11.26-10.07-11.09-17.73,6.22,1.54,20.17,3.24,22.49,9.22s3.48,16.27,3.8,22.67c-.27-6.75,3.76-13.87,5.72-20.34,1.61-5.33,11.99-11.16,16.14-14.86,5.12,13.05-12.64,24.32-21.86,35.2"/>
  <path class="cls-2" d="M165.34,33.25c.19,8.93.38,17.86.57,26.79.04,1.93,3.04,1.93,3,0-.19-8.93-.38-17.86-.57-26.79-.04-1.93-3.04-1.93-3,0h0Z"/>
  <path class="cls-2" d="M197.08,32.1c.48-.04-.82,11.78-3.59,14.07-2.78,2.29-3.59,4.77-6.95,6.06-6.16,2.37-12.32,4.75-18.48,7.12-.52.2-1.07.43-1.38.89"/>
  <path class="cls-2" d="M167.26,60.1c-.67-5.06-4.43-9.28-8.86-11.82s-19.33-5.25-24.32-6.34c1.25,4.72,13.42,12.04,17.89,14s11.56.72,15.09,4.08c1.26-2.13,2.52-4.25,3.79-6.38,2.61-4.39,5.34-8.92,9.51-11.86,5.34-3.77,10.21-9.19,16.73-9.69"/>
  <path class="cls-2" d="M165.88,59.66c.4,8.69-.8,17.61-2.99,26.01-.49,1.87,2.4,2.67,2.89.8,2.25-8.64,3.51-17.88,3.1-26.81-.09-1.92-3.09-1.93-3,0h0Z"/>
  <path class="cls-2" d="M166.69,37.74c-5.37,1.75-18.34-3.72-22.78-7.21,2.73-.66,11.25-.52,14.06-.54s6.71,4.2,8.9,5.96"/>
  <path class="cls-2" d="M167,75.71c10.22.52,20.56-4.49,26.49-12.83-4.59-2.32-10.24-1.93-14.91.25s-8.42,5.95-11.4,10.14c-.28.39-.57.8-.98,1.05-.85.5-1.92.18-2.85-.13-7.39-2.47-15.24-3.59-23.03-3.28,6.02,7.55,17.93,9.57,26.1,4.41"/>
  <path class="cls-2" d="M163.75,82.15c-.45,2.89-1.63,5.53-2.61,8.26-.89,2.48-1.42,4.97-1.42,7.61,0,2.38.31,4.85-.16,7.21-.24,1.21-.7,2.26-1.44,3.25-.82,1.1-1.48,2.13-1.46,3.56.02,1.93,3.02,1.93,3,0-.01-1.17,1.23-2.14,1.76-3.13s.9-2.11,1.1-3.24c.41-2.42.23-4.85.2-7.28-.03-2.6.49-4.95,1.38-7.39.97-2.66,2.1-5.25,2.54-8.06.29-1.89-2.6-2.7-2.89-.8h0Z"/>
  <path class="cls-2" d="M156.68,138.55c-.5,6.74.75,13.48.06,20.22-.64,6.26-2.41,12.66-.23,18.82.64,1.81,3.54,1.03,2.89-.8-2.12-6.01-.19-12.37.39-18.48.62-6.58-.59-13.17-.11-19.76.14-1.93-2.86-1.92-3,0h0Z"/>
  <path class="cls-2" d="M161.83,94.04c4.96-4.24,11.22-6.94,17.71-7.65-1.07,3.46-4.11,6.03-7.47,7.38s-7.03,1.66-10.65,1.87"/>
  <path class="cls-2" d="M161.3,102.33c-.59-1.67-2.13-2.81-3.67-3.69-4.19-2.4-8.96-3.61-13.75-4.27,1.37,3.09,4.36,5.23,7.56,6.33s6.62,1.32,10,1.5"/>
  <g>
    <path class="cls-1" d="M156.2,150.96c-1.09-4.77.28-9.7,1.02-14.53.92-5.97.89-12.04.68-18.07-.09-2.65-.21-5.35.54-7.89.56-1.9,2.2-3.49,2.35-5.47.14-1.86-.19-4.08.63-5.8-.09,1.93-.19,3.87-.28,5.8-.07,1.36-.13,2.73-.45,4.05-.27,1.13-.72,2.22-1.05,3.34-1.63,5.59-.15,11.58-.37,17.4-.17,4.37-1.31,8.67-1.48,13.04-.12,3.02.22,6.04.56,9.04-.81.13-1.44-.49-2.15-.91"/>
    <path class="cls-1" d="M157.65,150.56c-.94-4.43.24-8.89.95-13.26s.96-9.18.92-13.79c-.02-2.26-.12-4.52-.17-6.78-.05-2.09-.1-4.41.73-6.37.69-1.63,1.86-2.98,2.14-4.78s-.24-3.88.49-5.61l-2.8-.76c-.11,2.31-.19,4.62-.34,6.93s-.94,4.15-1.5,6.3c-1.1,4.17-.64,8.49-.39,12.73.26,4.45-.33,8.67-.93,13.07s-.42,9.03.11,13.64l1.5-1.5c-.5.02-.98-.44-1.39-.7-1.64-1.03-3.14,1.56-1.51,2.59.93.59,1.76,1.15,2.9,1.11.74-.03,1.59-.67,1.5-1.5-.53-4.65-.76-9.12-.08-13.77.63-4.34,1.16-8.53.91-12.93s-.76-8.64.54-12.8c.63-2.02,1.19-3.88,1.35-6.01.17-2.38.24-4.77.36-7.16.07-1.41-2.21-2.15-2.8-.76-.8,1.89-.74,3.78-.8,5.8s-1.36,3.37-2.07,5.13c-1.68,4.18-.78,9.26-.74,13.64.05,4.83-.15,9.66-.97,14.42s-1.78,9.24-.79,13.92c.4,1.89,3.29,1.09,2.89-.8h0Z"/>
  </g>
  <g>
    <path class="cls-2" d="M233.95,109c4.2-.48,11.14,1.22,14.62,3.62,5.42,3.74,10.58,2.85,15.17-.29-3.4-3.17-9.96-10.97-14.51-10.01-4.55.96-11.26,4.33-15.28,6.68,4.21-2.51,6.93-7.78,10.09-11.53,2.6-3.09,2.03-11.71,2.63-15.7-9.96,2.06-9.76,17.32-12.72,27.23"/>
    <path class="cls-2" d="M234.28,106.79c-5.5,3.42-11,6.85-16.5,10.27-1.64,1.02-.13,3.61,1.51,2.59,5.5-3.42,11-6.85,16.5-10.27,1.64-1.02.13-3.61-1.51-2.59h0Z"/>
    <path class="cls-2" d="M223.76,89.26c-.17-.3-6.83,5.16-7.12,7.76s-1.47,4.07-.93,6.62c1,4.68,2,9.36,3,14.05.08.39.17.82,0,1.19"/>
    <path class="cls-2" d="M218.56,118.47c3.34-1.6,7.4-.99,10.69.7s10.85,9.66,13.49,12.26c-3.36,1.11-12.63-3.38-15.6-5.32s-5.02-6.74-8.46-7.55c.79-1.61,1.58-3.22,2.37-4.83,1.64-3.32,3.3-6.78,3.44-10.48.17-4.74,1.53-9.85-.74-14"/>
    <path class="cls-2" d="M218.03,116.93c-5.61,3.3-10.77,7.74-15.14,12.55-1.3,1.43.82,3.55,2.12,2.12,4.21-4.64,9.13-8.9,14.53-12.08,1.66-.98.16-3.57-1.51-2.59h0Z"/>
    <path class="cls-2" d="M232.37,109.95c1.07,3.96,9.53,9.67,13.41,10.98-.68-1.92-4.14-7.04-5.24-8.76s-5.21-2.41-7.15-3.04"/>
    <path class="cls-2" d="M209.19,124.81c-4.36-6.01-5.42-14.27-2.7-21.18,3.23,1.87,5.23,5.46,5.76,9.15.53,3.69-.27,7.47-1.64,10.95-.13.33-.26.66-.25,1.01.03.71.65,1.24,1.21,1.68,4.43,3.51,8.22,7.84,11.12,12.69-6.97-.66-12.92-7.1-13.02-14.11"/>
    <path class="cls-2" d="M204.68,127.56c-3.11,2.73-5.58,6.1-8.62,8.9-.58.53-.58,1.59,0,2.12.62.57,1.5.57,2.12,0,3.04-2.8,5.51-6.17,8.62-8.9.59-.52.57-1.6,0-2.12-.63-.58-1.49-.55-2.12,0h0Z"/>
    <path class="cls-2" d="M200.1,135.22c.61-4.69-.23-9.57-2.37-13.79-1.68,2.02-2.03,4.89-1.53,7.47s1.78,4.93,3.09,7.21"/>
    <path class="cls-2" d="M195.27,138.83c1.25-.3,2.55.18,3.69.77,3.12,1.6,5.75,4.01,8.04,6.66-2.42.39-4.9-.58-6.84-2.08s-3.42-3.5-4.87-5.48"/>
    <g>
      <path class="cls-1" d="M193.85,140.2c1.08-.82,2.55-1.5,3.28-2.68-1.14.82-2.27,1.65-3.41,2.47"/>
      <path class="cls-1" d="M194.61,141.49c.58-.44,1.22-.81,1.81-1.24.78-.56,1.49-1.16,2-1.98.34-.54.24-1.38-.23-1.82-.19-.18-.41-.31-.66-.39-.33-.11-.87-.06-1.16.15-1.14.82-2.27,1.65-3.41,2.47-.33.24-.58.5-.69.9-.1.36-.05.84.15,1.16s.51.6.9.69.83.08,1.16-.15c1.14-.82,2.27-1.65,3.41-2.47l-2.05-2.05c-.06.1-.13.19-.2.28l.23-.3c-.28.36-.62.67-.98.94l.3-.23c-.68.52-1.42.94-2.1,1.45-.32.25-.58.49-.69.9-.1.36-.05.84.15,1.16s.51.6.9.69.84.09,1.16-.15h0Z"/>
    </g>
  </g>
  <g>
    <path class="cls-2" d="M75.39,94.47c-4.2-.48-11.14,1.22-14.62,3.62-5.42,3.74-10.58,2.85-15.17-.29,3.4-3.17,9.96-10.97,14.51-10.01s11.26,4.33,15.28,6.68c-4.21-2.51-6.93-7.78-10.09-11.53-2.6-3.09-2.03-11.71-2.63-15.7,9.96,2.06,9.76,17.32,12.72,27.23"/>
    <path class="cls-2" d="M73.55,94.85c5.5,3.42,11,6.85,16.5,10.27,1.64,1.02,3.15-1.57,1.51-2.59-5.5-3.42-11-6.85-16.5-10.27-1.64-1.02-3.15,1.57-1.51,2.59h0Z"/>
    <path class="cls-2" d="M85.58,74.73c.17-.3,6.83,5.16,7.12,7.76s1.47,4.07.93,6.62c-1,4.68-2,9.36-3,14.05-.08.39-.17.82,0,1.19"/>
    <path class="cls-2" d="M90.78,103.94c-3.34-1.6-7.4-.99-10.69.7s-10.85,9.66-13.49,12.26c3.36,1.11,12.63-3.38,15.6-5.32,2.96-1.94,5.02-6.74,8.46-7.55-.79-1.61-1.58-3.22-2.37-4.83-1.64-3.32-3.3-6.78-3.44-10.48-.17-4.74-1.53-9.85.74-14"/>
    <path class="cls-2" d="M89.8,104.99c5.41,3.18,10.33,7.45,14.53,12.08,1.3,1.43,3.42-.69,2.12-2.12-4.37-4.81-9.53-9.25-15.14-12.55-1.67-.98-3.18,1.61-1.51,2.59h0Z"/>
    <path class="cls-2" d="M76.97,95.42c-1.07,3.96-9.53,9.67-13.41,10.98.68-1.92,4.14-7.04,5.24-8.76s5.21-2.41,7.15-3.04"/>
    <path class="cls-2" d="M100.16,110.28c4.36-6.01,5.42-14.27,2.7-21.18-3.23,1.87-5.23,5.46-5.76,9.15-.53,3.69.27,7.47,1.64,10.95.13.33.26.66.25,1.01-.03.71-.65,1.24-1.21,1.68-4.43,3.51-8.22,7.84-11.12,12.69,6.97-.66,12.92-7.1,13.02-14.11"/>
    <path class="cls-2" d="M102.54,115.15c3.11,2.73,5.58,6.1,8.62,8.9.58.53,1.56.61,2.12,0,.53-.58.62-1.55,0-2.12-3.04-2.8-5.51-6.17-8.62-8.9-.59-.52-1.55-.62-2.12,0-.52.57-.63,1.57,0,2.12h0Z"/>
    <path class="cls-2" d="M109.24,120.69c-.61-4.69.23-9.57,2.37-13.79,1.68,2.02,2.03,4.89,1.53,7.47s-1.78,4.93-3.09,7.21"/>
    <path class="cls-2" d="M114.07,124.3c-1.25-.3-2.55.18-3.69.77-3.12,1.6-5.75,4.01-8.04,6.66,2.42.39,4.9-.58,6.84-2.08s3.42-3.5,4.87-5.48"/>
    <g>
      <path class="cls-1" d="M115.49,126.48c-.79-1.1-2.55-2.31-3.28-3.49,1.14.82,2.27,2.46,3.41,3.28"/>
      <path class="cls-1" d="M116.79,125.72c-.5-.68-1.08-1.26-1.69-1.83-.55-.51-1.12-1.02-1.58-1.62l.23.3c-.09-.11-.17-.23-.24-.35l-2.05,2.05s.08.06.12.09l-.3-.23c.61.48,1.14,1.07,1.67,1.64.6.65,1.21,1.26,1.93,1.79.3.22.82.24,1.16.15s.73-.36.9-.69c.18-.35.28-.77.15-1.16l-.15-.36c-.13-.23-.31-.4-.54-.54-.04-.03-.08-.06-.12-.09l.3.23c-.61-.48-1.14-1.07-1.67-1.64-.6-.65-1.21-1.26-1.93-1.79l-.36-.15c-.2-.06-.4-.07-.6-.03-.31.04-.64.17-.86.41-.44.48-.6,1.24-.23,1.82.47.76,1.12,1.4,1.76,2,.57.54,1.18,1.06,1.67,1.68l-.23-.3s.05.07.08.11c.24.33.49.58.9.69.36.1.84.05,1.16-.15s.6-.51.69-.9.08-.84-.15-1.16h0Z"/>
    </g>
  </g>
  <g>
    <path class="cls-1" d="M153.85,294.82c1.44,13.85-4.77,29.41-3.81,43.3.26,3.83,2.93,9.19,1.15,12.59s-1.38,2.67-4.66.66c-2.64-1.61-3.33-5.08-3.62-8.15-1.48-15.86.97-33.36,3.9-49.01"/>
    <path class="cls-1" d="M152.35,294.82c.8,8.09-.82,16.13-2.15,24.08-1.26,7.49-2.79,15.58-.98,23.09.41,1.69.93,3.41,1.05,5.15.11,1.62-.31,2.84-1.14,4.21-.06.1-.27.39-.26.4-.04-.2.71-.03.82-.13-.06.05-1.06-.67-1.25-.8-1.36-.91-2.45-1.65-3.1-3.22-1.39-3.38-1.24-7.56-1.34-11.14-.12-4.31,0-8.63.3-12.93.66-9.72,2.16-19.36,3.95-28.93.35-1.89-2.54-2.7-2.89-.8-1.72,9.22-3.18,18.51-3.92,27.86-.37,4.69-.55,9.4-.45,14.11.09,3.99-.01,8.5,1.34,12.3.6,1.7,1.54,3.23,3.02,4.3.99.71,2.23,1.75,3.43,2.09,2.83.8,4.33-3.94,4.49-5.94.29-3.76-1.57-7.31-1.77-11.03-.23-4.35.19-8.71.82-13.01,1.44-9.8,4-19.7,3.02-29.67-.19-1.9-3.19-1.92-3,0h0Z"/>
  </g>
  <g>
    <path class="cls-1" d="M152.02,218.47c5.68-12.18,13.89-23.17,23.94-32.09-1.28,1.84-2.56,3.69-3.84,5.53-6.05,8.73-12.13,17.5-16.8,27.04"/>
    <path class="cls-1" d="M153.32,219.22c5.67-12.09,13.73-22.9,23.71-31.78l-2.36-1.82c-7.32,10.56-14.95,21.02-20.64,32.57-.85,1.73,1.74,3.25,2.59,1.51,5.69-11.56,13.32-22.02,20.64-32.57,1.02-1.46-1.14-2.9-2.36-1.82-10.14,9.03-18.41,20.1-24.18,32.39-.82,1.74,1.77,3.26,2.59,1.51h0Z"/>
  </g>
  <g>
    <path class="cls-1" d="M153.52,217.59c-3.75-9.41-12.49-15.98-17.08-25.01,6.63,5.73,12.64,12.17,17.9,19.19"/>
    <path class="cls-1" d="M154.96,217.19c-3.93-9.66-12.51-16.2-17.23-25.37l-2.36,1.82c6.53,5.66,12.47,11.98,17.66,18.88,1.15,1.52,3.75.03,2.59-1.51-5.35-7.12-11.4-13.66-18.13-19.49-1.28-1.11-3.16.27-2.36,1.82,4.59,8.91,13.12,15.3,16.93,24.66.72,1.76,3.62.99,2.89-.8h0Z"/>
  </g>
  <path class="cls-1" d="M177.08,158.36c3.33-3.58,6.72-7.09,10.18-10.55,1.37-1.37-.75-3.49-2.12-2.12-3.46,3.45-6.85,6.97-10.18,10.55-.55.59-.59,1.53,0,2.12s1.57.6,2.12,0h0Z"/>
  <path class="cls-1" d="M162.78,98.68c-.43-2.54.39-5.13,1.28-7.48s2.03-4.87,2.53-7.47c.15-.79-.22-1.62-1.05-1.85-.73-.2-1.69.25-1.85,1.05-.54,2.79-1.77,5.36-2.74,8.01s-1.57,5.6-1.08,8.52c.14.8,1.12,1.25,1.85,1.05.85-.23,1.18-1.04,1.05-1.85h0Z"/>
  <path class="cls-1" d="M142.28,152.18c.11.08.22.18.05.04-.06-.05-.12-.1-.18-.15-.11-.09-.21-.18-.32-.27-.22-.19-.44-.39-.64-.6-.43-.42-.82-.88-1.2-1.34-.12-.15.18.24.06.08-.05-.06-.09-.12-.14-.19-.09-.12-.18-.25-.27-.38-.17-.24-.32-.49-.48-.74-.31-.52-.59-1.05-.83-1.6-.14-.32-.57-.6-.9-.69-.36-.1-.84-.05-1.16.15s-.6.51-.69.9c-.1.42-.02.77.15,1.16,1.11,2.48,2.87,4.57,5.02,6.21.29.22.83.24,1.16.15.35-.1.73-.36.9-.69.18-.35.28-.77.15-1.16s-.36-.65-.69-.9h0Z"/>
  <g>
    <path class="cls-2" d="M66.13,151.51c-3.4-.3-8.95,1.23-11.7,3.24-4.29,3.13-8.46,2.53-12.23.1,2.67-2.63,7.79-9.06,11.48-8.38,3.69.68,9.17,3.25,12.46,5.05-3.45-1.93-5.76-6.12-8.38-9.07-2.16-2.43-1.89-9.39-2.47-12.59,8.07,1.44,8.25,13.74,10.85,21.67"/>
    <path class="cls-2" d="M64.48,152.09c4.51,2.64,9.02,5.28,13.52,7.92,1.67.98,3.18-1.61,1.51-2.59-4.51-2.64-9.02-5.28-13.52-7.92-1.67-.98-3.18,1.61-1.51,2.59h0Z"/>
    <path class="cls-2" d="M73.91,135.38c.13-.25,5.62,4.01,5.91,6.1s1.27,3.25.89,5.32c-.7,3.8-1.41,7.59-2.11,11.39-.06.32-.12.66.02.96"/>
    <path class="cls-2" d="M78.74,158.81c-2.73-1.21-5.98-.63-8.6.8s-8.54,8.03-10.6,10.18c2.73.82,10.11-3,12.45-4.63,2.35-1.62,3.89-5.54,6.65-6.27-.67-1.28-1.35-2.56-2.02-3.84-1.39-2.64-2.81-5.39-3-8.37-.24-3.81-1.45-7.9.29-11.3"/>
    <path class="cls-2" d="M77.8,159.91c4.41,2.43,8.45,5.74,11.92,9.37,1.34,1.4,3.46-.73,2.12-2.12-1.82-1.9-3.8-3.66-5.87-5.29s-4.3-3.25-6.66-4.55c-1.69-.93-3.21,1.66-1.51,2.59h0Z"/>
    <path class="cls-2" d="M67.42,152.25c-.77,3.21-7.47,8-10.57,9.15.51-1.56,3.18-5.76,4.03-7.17s4.15-2.05,5.69-2.61"/>
    <path class="cls-2" d="M86.44,163.71c3.39-4.94,4.05-11.62,1.71-17.13-2.56,1.58-4.1,4.52-4.44,7.5s.38,6.02,1.56,8.79c.11.26.23.53.22.81,0,.57-.5,1.01-.94,1.38-3.5,2.93-6.45,6.49-8.69,10.47,5.61-.69,10.26-6,10.19-11.65"/>
    <path class="cls-2" d="M88.24,167.77c1.34,1.13,2.31,2.58,3.4,3.94,1.02,1.26,2.18,2.29,3.57,3.12,1.15.69,2.46,1.34,3.32,2.16.23.22.39.39.49.53.21.29.36.62.43.79.37.91.75,1.72,1.64,2.23,1.68.96,3.19-1.64,1.51-2.59-.1-.06-.14-.14-.23-.36-.17-.4-.3-.81-.51-1.19-.34-.61-.81-1.18-1.32-1.65-1.09-1-2.4-1.68-3.67-2.44s-2.16-1.56-3.17-2.82c-1.07-1.33-2.03-2.75-3.34-3.86-.62-.52-1.51-.61-2.12,0-.54.54-.62,1.6,0,2.12h0Z"/>
    <path class="cls-2" d="M93.99,171.9c-.59-3.77-.02-7.71,1.61-11.16,1.4,1.59,1.75,3.9,1.39,5.98s-1.33,4.01-2.33,5.88"/>
    <path class="cls-2" d="M97.96,174.71c-1.01-.21-2.05.2-2.96.7-2.48,1.36-4.54,3.36-6.34,5.54,1.96.26,3.94-.57,5.47-1.83s2.68-2.9,3.81-4.52"/>
    <g>
      <path class="cls-1" d="M120.63,192.13c-2.71-.92-4.75-3.11-6.93-4.96-2.69-2.28-5.72-4.13-8.79-5.87-1.35-.76-2.73-1.53-3.77-2.68-.78-.86-1.07-2.16-2.01-2.84-.89-.64-2.09-1.15-2.7-2.09.93.64,1.87,1.28,2.8,1.91.66.45,1.32.9,1.88,1.46.48.48.89,1.04,1.34,1.54,2.29,2.53,5.72,3.62,8.56,5.51,2.13,1.42,3.92,3.3,6.05,4.73,1.47.98,1.97,1.19,3.57,1.94-.19.44.42,1.12,0,1.34"/>
      <path class="cls-1" d="M121.03,190.68c-2.29-.83-4.02-2.62-5.82-4.19-2.08-1.81-4.34-3.38-6.68-4.81-1.11-.68-2.24-1.32-3.36-1.96-1.03-.59-2.21-1.21-2.96-2.16-.66-.83-.97-1.87-1.74-2.62s-2.06-1.11-2.73-2.01l-2.05,2.05c1.1.75,2.21,1.49,3.29,2.25s1.78,1.78,2.69,2.71c1.69,1.73,3.87,2.82,5.97,3.94,2.27,1.21,4.19,2.71,6.17,4.35s3.85,2.81,6.08,3.85l-.69-1.69c-.08.56.11,1.07.08,1.59l.44-1.06-.14.15c-1.31,1.42.81,3.54,2.12,2.12.36-.39.57-.76.58-1.31,0-.21-.02-.42-.07-.62-.06-.24-.03-.62-.12-.08.09-.61-.05-1.39-.69-1.69-2.19-1.02-4.1-2.23-5.97-3.79-1.99-1.67-3.98-3.18-6.29-4.4-2.06-1.1-4.19-2.12-5.75-3.9-.87-.98-1.67-1.86-2.74-2.63-1.13-.82-2.31-1.58-3.46-2.37s-2.95.85-2.05,2.05c.74.99,1.65,1.59,2.67,2.25s1.32,1.79,2.05,2.71c1.7,2.13,4.49,3.26,6.77,4.63,2.5,1.5,4.86,3.16,7.04,5.09,2.01,1.78,4,3.51,6.56,4.44,1.82.66,2.6-2.24.8-2.89h0Z"/>
    </g>
  </g>
  <g>
    <path class="cls-2" d="M237.82,151.49c2.18-.2,5.75.77,7.52,2.06,2.76,2,5.44,1.61,7.86.04-1.72-1.68-5.02-5.81-7.39-5.37s-5.89,2.1-7.99,3.26c2.21-1.25,3.69-3.94,5.37-5.84,1.38-1.57,1.2-6.04,1.56-8.09-5.18.94-5.28,8.84-6.93,13.94"/>
    <path class="cls-2" d="M237.64,149.73c-2.89,1.7-5.78,3.41-8.67,5.11-.68.4-.98,1.37-.54,2.05s1.33.96,2.05.54c2.89-1.7,5.78-3.41,8.67-5.11.68-.4.98-1.37.54-2.05s-1.33-.96-2.05-.54h0Z"/>
    <path class="cls-2" d="M232.79,141.13c-.08-.16-3.6,2.59-3.79,3.93s-.81,2.09-.56,3.42c.46,2.44.92,4.87,1.37,7.31.04.21.08.43-.01.62"/>
    <path class="cls-2" d="M229.73,156.19c1.75-.78,3.84-.42,5.53.5s5.5,5.14,6.83,6.52c-1.75.53-6.5-1.91-8.01-2.95s-2.51-3.55-4.28-4.02c.43-.82.86-1.65,1.29-2.47.89-1.7,1.8-3.47,1.91-5.38.15-2.45.92-5.08-.21-7.26"/>
    <path class="cls-2" d="M229.09,154.77c-1.55.86-2.99,1.91-4.38,3.02s-2.59,2.18-3.76,3.41c-.54.57-.61,1.56,0,2.12s1.54.61,2.12,0c1.14-1.19,2.37-2.3,3.66-3.32.07-.06.14-.11.21-.17,0,0,.31-.24.16-.13s.14-.1.17-.13c.09-.07.18-.13.27-.2.33-.25.67-.49,1.01-.72.67-.46,1.35-.89,2.06-1.29s.97-1.38.54-2.05-1.32-.95-2.05-.54h0Z"/>
    <path class="cls-2" d="M236.99,151.96c.5,2.06,4.81,5.13,6.8,5.86-.33-1-2.06-3.7-2.6-4.6s-2.67-1.31-3.66-1.67"/>
    <path class="cls-2" d="M224.8,159.36c-2.18-3.16-2.62-7.46-1.13-11,1.65,1.01,2.64,2.89,2.87,4.81s-.24,3.87-.99,5.65c-.07.17-.14.34-.14.52,0,.37.32.65.6.88,2.25,1.87,4.16,4.16,5.6,6.71-3.6-.43-6.6-3.84-6.56-7.47"/>
    <path class="cls-2" d="M221.9,160.22c-.71.6-1.26,1.34-1.83,2.08-.06.07-.11.14-.17.22-.03.04-.07.09-.1.13.11-.15.13-.17.07-.09-.12.16-.25.31-.38.47-.27.32-.55.62-.87.89-.18.16-.12.03.02,0-.06.02-.18.12-.23.16-.13.08-.27.15-.4.22-.29.15.22-.08.08-.03-.06.02-.12.04-.17.07-.14.05-.28.1-.42.15-.91.33-1.65.78-2.38,1.42-.59.52-.57,1.6,0,2.12.63.58,1.49.55,2.12,0,.08-.07.19-.19.29-.24-.3.17,0,.02.05-.03.14-.1.29-.18.45-.26.06-.03.13-.06.19-.09.26-.13-.32.12-.07.03.14-.05.28-.1.42-.15.82-.29,1.51-.66,2.18-1.23s1.23-1.33,1.78-2.05c.07-.09.13-.17.2-.26.17-.22-.12.15,0,0,.13-.16.25-.31.38-.46.28-.33.58-.64.91-.92.6-.51.56-1.6,0-2.12-.64-.59-1.48-.54-2.12,0h0Z"/>
    <path class="cls-2" d="M215.5,168.86c1.93,0,1.93-3,0-3s-1.93,3,0,3h0Z"/>
    <path class="cls-2" d="M219.96,164.63c.37-2.42,0-4.96-1.05-7.17-.89,1.03-1.11,2.51-.88,3.85s.86,2.58,1.51,3.77"/>
    <path class="cls-2" d="M217.41,166.44c.65-.14,1.32.13,1.9.44,1.59.87,2.92,2.15,4.08,3.55-1.26.17-2.53-.36-3.52-1.16s-1.73-1.86-2.45-2.9"/>
    <g>
      <path class="cls-1" d="M205.11,175.65c1.72-1.47,3.67-2.66,5.64-3.79.86-.49,1.75-.99,2.42-1.73.5-.56.68-1.39,1.28-1.83.57-.41,1.34-.74,1.73-1.35-.6.41-1.2.82-1.8,1.23-.42.29-.85.58-1.21.94-.31.31-.57.67-.86.99-1.46,1.63-3.67,2.33-5.49,3.55-1.36.92-2.41,2.44-3.77,3.36"/>
      <path class="cls-1" d="M206.17,176.71c1.98-1.67,4.28-2.81,6.44-4.21,1.1-.71,1.85-1.53,2.5-2.66.22-.38.46-.48.87-.75.6-.39,1.08-.81,1.49-1.39.88-1.21-.85-2.88-2.05-2.05s-2.68,1.65-3.67,2.82c-.88,1.03-1.8,1.73-2.98,2.38s-2.43,1.26-3.5,2.13-1.86,1.98-2.97,2.76c-.66.46-.97,1.31-.54,2.05.38.66,1.38,1,2.05.54,1.19-.83,2.11-1.92,3.18-2.88.95-.86,2.17-1.39,3.29-2,1.18-.65,2.35-1.4,3.24-2.43.45-.52.87-1.01,1.44-1.41.66-.46,1.32-.91,1.98-1.36l-2.05-2.05c-.13.18-.61.43-.89.61-.57.37-1.02.78-1.38,1.36-.25.4-.41.81-.73,1.13-.39.39-.86.67-1.33.95-2.26,1.33-4.49,2.64-6.5,4.34-.62.52-.54,1.58,0,2.12.61.61,1.5.52,2.12,0h0Z"/>
    </g>
  </g>
  <g>
    <path class="cls-1" d="M152.1,211.78c-4.48,48.27-8.97,96.54-13.45,144.81-1.22,13.17,4.23,25.56,1.04,38.39-2.71,10.85-13.66,40.91-12.26,52.01"/>
    <path class="cls-1" d="M150.6,211.78c-1.71,18.41-3.42,36.82-5.13,55.24-1.71,18.41-3.42,36.82-5.13,55.24-.86,9.21-1.71,18.41-2.57,27.62-.41,4.44-.95,8.85-.75,13.32.19,4.12.8,8.2,1.32,12.28s.99,8.24.82,12.39c-.13,3.11-.72,6.09-1.56,9.08-1.38,4.93-2.95,9.81-4.44,14.71-1.76,5.82-3.48,11.65-4.91,17.56-1.19,4.91-2.35,10-2.45,15.07-.02.91,0,1.81.12,2.72.23,1.89,3.23,1.92,3,0-.53-4.42.47-9.05,1.39-13.35,1.27-5.88,2.91-11.68,4.62-17.45,1.56-5.27,3.23-10.52,4.79-15.8.64-2.17,1.31-4.35,1.74-6.58.79-4.01.85-8.09.54-12.15-.63-8.29-2.61-16.49-1.89-24.84.78-9.21,1.71-18.4,2.56-27.6,1.71-18.41,3.42-36.82,5.13-55.24s3.42-36.82,5.13-55.24l.65-6.97c.18-1.92-2.82-1.91-3,0h0Z"/>
  </g>
  <g>
    <path class="cls-1" d="M157.6,212.39c.52,27.66-4.23,55.2-3.86,82.86.63,45.76,1.24,249.75.58,250.39-.63.61-30.93,3.43-40.95-.33"/>
    <path class="cls-1" d="M156.1,212.39c.44,25.16-3.41,50.13-3.84,75.25-.16,9.53.12,19.07.19,28.6.09,11.21.16,22.41.22,33.62.07,13.46.13,26.93.19,40.39.06,14.36.11,28.71.15,43.07s.07,27.56.09,41.34c.02,11.75.02,23.49.01,35.24,0,8.35-.02,16.69-.08,25.04-.02,2.47-.03,4.94-.08,7.4-.01.71-.02,1.43-.05,2.14,0,.3-.12.76-.06,1.06-.04-.17.08-.5.19-.67.26-.42,1.2-.66.47-.55-.26.04-.51.09-.77.14-.52.08-.36.06-1.01.14-2.65.32-5.32.53-7.99.7-7.3.47-14.7.72-22,.08-2.68-.23-5.43-.58-7.97-1.51-1.81-.67-2.6,2.23-.8,2.89,2.78,1.02,5.83,1.36,8.76,1.62,3.68.32,7.37.38,11.06.34,6.35-.07,12.76-.37,19.07-1.14,1.19-.15,3.47-.09,3.91-1.55.1-.34.09-.77.11-1.12.07-1.61.08-3.23.09-4.84.08-7.06.09-14.13.11-21.19.02-11.01.02-22.03.01-33.04-.01-13.39-.03-26.78-.07-40.16-.03-14.48-.08-28.95-.13-43.43-.05-13.97-.11-27.95-.18-41.92-.06-12.06-.13-24.12-.21-36.18-.06-8.72-.13-17.43-.23-26.15-.12-9.76.19-19.49.83-29.23.84-12.66,2.06-25.3,2.67-37.98.29-6.13.43-12.26.32-18.4-.03-1.93-3.03-1.93-3,0h0Z"/>
  </g>
  <g>
    <path class="cls-1" d="M155.48,241.27c4.88-11.7,13.18-21.95,23.61-29.16-11.17,11.89-19.99,25.99-25.78,41.24"/>
    <path class="cls-1" d="M156.93,241.67c4.77-11.33,12.83-21.24,22.92-28.26l-1.82-2.36c-11.36,12.13-20.24,26.38-26.16,41.9-.69,1.81,2.21,2.59,2.89.8,5.73-15.02,14.41-28.85,25.39-40.58,1.11-1.19-.36-3.37-1.82-2.36-10.8,7.51-19.2,17.94-24.3,30.05-.32.75.34,1.64,1.05,1.85.86.25,1.53-.3,1.85-1.05h0Z"/>
  </g>
  <g>
    <path class="cls-1" d="M152.21,240.49c-8.5-5.32-17.38-10.05-26.54-14.14,10.82,6.42,22.17,13.37,28.04,24.5"/>
    <path class="cls-1" d="M152.96,239.19c-8.51-5.31-17.38-10.04-26.54-14.14-1.72-.77-3.21,1.58-1.51,2.59,10.46,6.21,21.58,12.9,27.5,23.96.91,1.7,3.5.19,2.59-1.51-6.17-11.52-17.68-18.57-28.58-25.04l-1.51,2.59c9.16,4.1,18.03,8.82,26.54,14.14,1.64,1.03,3.15-1.57,1.51-2.59h0Z"/>
  </g>
  <path class="cls-1" d="M166.41,83.4c.57-4.82,1.16-9.64,1.71-14.47s.97-9.67.49-14.52c-.19-1.9-3.19-1.92-3,0,.49,4.85.07,9.7-.49,14.52s-1.14,9.65-1.71,14.47c-.23,1.91,2.78,1.9,3,0h0Z"/>
  <path class="cls-1" d="M187,148.01c3.53-2,6.43-4.86,9.34-7.64s5.71-5.4,9.35-6.84c.75-.3,1.28-1,1.05-1.85-.2-.72-1.09-1.35-1.85-1.05-7.83,3.1-12.24,10.72-19.41,14.79-1.68.95-.17,3.55,1.51,2.59h0Z"/>
  <path class="cls-1" d="M138.51,147.98c-2.31-3.67-6.4-5.64-9.48-8.57s-6-6.38-9.83-8.57c-1.68-.96-3.19,1.63-1.51,2.59,3.6,2.05,6.25,5.28,9.22,8.1,1.49,1.42,3.11,2.66,4.77,3.88s3.18,2.4,4.24,4.08,3.62.13,2.59-1.51h0Z"/>
  <path class="cls-1" d="M187.45,179.83c3.8-2.56,7.09-5.72,9.81-9.4.47-.63.13-1.7-.54-2.05-.78-.41-1.55-.14-2.05.54-.33.44-.46.62-.84,1.08-.33.41-.68.82-1.03,1.21-.69.77-1.4,1.52-2.15,2.23-1.56,1.49-2.98,2.63-4.72,3.8-.65.44-1,1.34-.54,2.05.42.65,1.36,1.01,2.05.54h0Z"/>
  <g>
    <path class="cls-2" d="M257.66,184.03c1.85-2.17,3.52-6.68,3.5-9.54-.04-4.44,2.4-6.99,5.89-8.37.48,3.1,2.37,9.71.11,11.89s-6.67,4.66-9.5,6.02c2.99-1.4,6.97-.94,10.25-1.28,2.71-.29,7.31,3.29,9.77,4.46-4.91,4.79-13.36-1.08-20.02-3.17"/>
    <path class="cls-2" d="M257.82,182.47c-3.99,1.78-7.98,3.56-11.97,5.34-.74.33-.92,1.41-.54,2.05.45.76,1.31.87,2.05.54,3.99-1.78,7.98-3.56,11.97-5.34.74-.33.92-1.41.54-2.05-.45-.76-1.31-.87-2.05-.54h0Z"/>
    <path class="cls-2" d="M264.84,197.18c.11.21-5.47,1.87-7.03,1.05s-2.83-.72-4.05-1.98c-2.24-2.33-4.48-4.65-6.72-6.98-.19-.2-.4-.4-.66-.45"/>
    <path class="cls-2" d="M246.55,189.05c2.15-1.26,3.34-3.76,3.65-6.24s-1.3-9.71-1.76-12.17c-1.89,1.46-2.88,8.34-2.92,10.72s1.87,5.35,1.03,7.58c1.2.17,2.4.33,3.59.5,2.48.34,5.03.71,7.15,2.04,2.71,1.69,6.08,2.86,7.54,5.7"/>
    <path class="cls-2" d="M246.02,187.73c-3.75,1.79-8,2.89-12.13,3.49-.8.12-1.24,1.13-1.05,1.85.24.86,1.04,1.16,1.85,1.05,4.4-.63,8.83-1.88,12.84-3.79.73-.35.92-1.4.54-2.05-.44-.75-1.32-.89-2.05-.54h0Z"/>
    <path class="cls-2" d="M256.53,184.55c-1.81-2.09-1.81-8.98-1.07-11.64.82,1.1,2.37,4.97,2.91,6.23s-.62,3.82-1,5.14"/>
    <path class="cls-2" d="M239.47,191.89c1.71,4.71,5.93,8.42,10.81,9.51.18-2.51-1.08-4.98-2.94-6.67s-4.28-2.67-6.74-3.22c-.23-.05-.47-.1-.66-.24-.39-.29-.45-.83-.48-1.31-.29-3.8-1.27-7.55-2.89-11.01-2.26,4.15-.91,9.9,2.96,12.6"/>
    <path class="cls-2" d="M235.64,190.94c-1.34.33-2.72.26-4.09.35s-2.61.36-3.87.89c-1.04.44-2.08,1.04-3.21,1.25-1.18.22-2.3-.55-3.47-.06-.75.31-1.28.99-1.05,1.85.19.71,1.09,1.36,1.85,1.05.45-.19,1.07.13,1.55.18.65.07,1.29,0,1.92-.12,1.2-.25,2.31-.85,3.43-1.34,2.46-1.07,5.17-.52,7.73-1.15,1.87-.46,1.08-3.36-.8-2.89h0Z"/>
    <path class="cls-2" d="M221,193.3c-3.27,1.11-6.19,3.03-9.51,3.99-3.04.88-6.18,1.44-8.62,3.63-1.44,1.3.69,3.41,2.12,2.12,2.12-1.91,5.2-2.2,7.82-3.02,3.12-.97,5.89-2.78,8.98-3.83,1.82-.62,1.04-3.52-.8-2.89h0Z"/>
    <path class="cls-2" d="M230.23,193.04c2.85,1.43,5.26,3.74,6.81,6.53-1.76.17-3.5-.71-4.75-1.97s-2.08-2.86-2.86-4.45"/>
    <path class="cls-2" d="M226.38,194.38c.64-.58.86-1.49.97-2.35.28-2.34-.07-4.73-.68-7.01-1.13,1.21-1.53,2.96-1.42,4.61s.66,3.23,1.22,4.79"/>
    <g>
      <path class="cls-1" d="M203.49,201.31c1.94-1.4,4.42-1.72,6.74-2.3,2.86-.72,5.59-1.88,8.27-3.12,1.18-.54,2.37-1.11,3.66-1.25.97-.11,1.99.33,2.91.02.87-.29,1.8-.86,2.73-.82-.89.32-1.78.65-2.67.97-.63.23-1.26.46-1.91.57-.56.09-1.14.1-1.7.16-2.83.32-5.25,2.13-7.91,3.13-2,.75-4.16,1.06-6.16,1.81-1.38.52-2.68,1.25-3.97,1.97-.21-.34-.05-.74,0-1.14"/>
      <path class="cls-1" d="M204.25,202.61c1.69-1.15,3.65-1.51,5.61-1.96,2.06-.48,4.06-1.16,6.01-1.97s3.84-2,5.86-2.44c1.01-.22,1.95.1,2.96.01,1.11-.1,2.03-.86,3.13-.91l-.4-2.95c-1.14.42-2.27.87-3.42,1.24-1.08.34-2.16.33-3.26.52-2.01.35-3.82,1.34-5.63,2.23-1.94.95-3.92,1.47-6,2.03-2.27.61-4.32,1.61-6.37,2.76l2.2.9v-.34c.34-1.89-2.55-2.7-2.89-.8-.13.69-.2,1.26,0,1.94.28.94,1.35,1.38,2.2.9,1.96-1.1,3.89-1.99,6.07-2.56,2.06-.54,4.01-1.11,5.93-2.04s3.63-1.92,5.71-2.15c2.23-.25,4.15-.95,6.26-1.72,1.5-.55,1.4-3.02-.4-2.95-1.17.05-2.03.64-3.13.87s-2.22-.17-3.34.04c-2.19.42-4.21,1.67-6.25,2.52s-4.22,1.56-6.43,2.07c-2.07.47-4.15.96-5.93,2.17-1.59,1.08-.09,3.68,1.51,2.59h0Z"/>
    </g>
  </g>
  <g>
    <path class="cls-2" d="M59.41,204.88c-1.85-2.17-3.52-6.68-3.5-9.54.04-4.44-2.4-6.99-5.89-8.37-.48,3.1-2.37,9.71-.11,11.89s6.67,4.66,9.5,6.02c-2.99-1.4-6.97-.94-10.25-1.28-2.71-.29-7.31,3.29-9.77,4.46,4.91,4.79,13.36-1.08,20.02-3.17"/>
    <path class="cls-2" d="M57.72,205.92c3.99,1.78,7.98,3.56,11.97,5.34.74.33,1.61.21,2.05-.54.37-.64.21-1.72-.54-2.05-3.99-1.78-7.98-3.56-11.97-5.34-.74-.33-1.61-.21-2.05.54-.37.64-.21,1.72.54,2.05h0Z"/>
    <path class="cls-2" d="M52.22,218.04c-.11.21,5.47,1.87,7.03,1.05s2.83-.72,4.05-1.98c2.24-2.33,4.48-4.65,6.72-6.98.19-.2.4-.4.66-.45"/>
    <path class="cls-2" d="M70.51,209.91c-2.15-1.26-3.34-3.76-3.65-6.24s1.3-9.71,1.76-12.17c1.89,1.46,2.88,8.34,2.92,10.72s-1.87,5.35-1.03,7.58c-1.2.17-2.4.33-3.59.5-2.48.34-5.03.71-7.15,2.04-2.71,1.69-6.08,2.86-7.54,5.7"/>
    <path class="cls-2" d="M69.53,211.17c4.02,1.91,8.45,3.16,12.84,3.79.8.12,1.61-.2,1.85-1.05.19-.7-.24-1.73-1.05-1.85-4.12-.59-8.37-1.7-12.13-3.49-.73-.35-1.62-.2-2.05.54-.38.65-.2,1.7.54,2.05h0Z"/>
    <path class="cls-2" d="M60.53,205.41c1.81-2.09,1.81-8.98,1.07-11.64-.82,1.1-2.37,4.97-2.91,6.23s.62,3.82,1,5.14"/>
    <path class="cls-2" d="M77.59,212.75c-1.71,4.71-5.93,8.42-10.81,9.51-.18-2.51,1.08-4.98,2.94-6.67s4.28-2.67,6.74-3.22c.23-.05.47-.1.66-.24.39-.29.45-.83.48-1.31.29-3.8,1.27-7.55,2.89-11.01,2.26,4.15.91,9.9-2.96,12.6"/>
    <path class="cls-2" d="M80.62,214.69c2.56.63,5.27.08,7.73,1.15,1.12.49,2.23,1.08,3.43,1.34.64.13,1.28.2,1.92.12.48-.05,1.1-.37,1.55-.18.75.31,1.65-.34,1.85-1.05.24-.86-.3-1.53-1.05-1.85-1.17-.49-2.29.28-3.47.06s-2.16-.8-3.21-1.25c-1.25-.53-2.5-.8-3.87-.89s-2.75-.02-4.09-.35c-1.87-.46-2.67,2.43-.8,2.89h0Z"/>
    <path class="cls-2" d="M95.26,217.05c3.09,1.05,5.86,2.86,8.98,3.83,2.62.81,5.7,1.11,7.82,3.02,1.43,1.29,3.56-.83,2.12-2.12-2.43-2.19-5.57-2.75-8.62-3.63-3.32-.96-6.24-2.88-9.51-3.99-1.83-.62-2.62,2.28-.8,2.89h0Z"/>
    <path class="cls-2" d="M86.84,213.9c-2.85,1.43-5.26,3.74-6.81,6.53,1.76.17,3.5-.71,4.75-1.97s2.08-2.86,2.86-4.45"/>
    <path class="cls-2" d="M90.68,215.23c-.64-.58-.86-1.49-.97-2.35-.28-2.34.07-4.73.68-7.01,1.13,1.21,1.53,2.96,1.42,4.61s-.66,3.23-1.22,4.79"/>
    <g>
      <path class="cls-1" d="M113.57,222.17c-1.94-1.4-4.42-1.72-6.74-2.3-2.86-.72-5.59-1.88-8.27-3.12-1.18-.54-2.37-1.11-3.66-1.25-.97-.11-1.99.33-2.91.02-.87-.29-1.8-.86-2.73-.82.89.32,1.78.65,2.67.97.63.23,1.26.46,1.91.57.56.09,1.14.1,1.7.16,2.83.32,5.25,2.13,7.91,3.13,2,.75,4.16,1.06,6.16,1.81,1.38.52,2.68,1.25,3.97,1.97.21-.34.05-.74,0-1.14"/>
      <path class="cls-1" d="M114.33,220.87c-1.79-1.21-3.86-1.7-5.93-2.17-2.21-.5-4.34-1.19-6.43-2.07s-4.06-2.1-6.25-2.52c-1.12-.22-2.25.19-3.34-.04s-1.96-.82-3.13-.87c-1.78-.08-1.91,2.4-.4,2.95,2.11.77,4.02,1.47,6.26,1.72,2.08.23,3.86,1.25,5.71,2.15s3.88,1.5,5.93,2.04c2.18.57,4.1,1.46,6.07,2.56.85.48,1.93.04,2.2-.9.2-.68.12-1.25,0-1.94-.34-1.9-3.23-1.09-2.89.8v.34c.74-.3,1.47-.6,2.21-.9-2.05-1.15-4.1-2.14-6.37-2.76-2.07-.56-4.06-1.07-6-2.03-1.81-.89-3.62-1.88-5.63-2.23-1.1-.19-2.19-.17-3.26-.52-1.15-.37-2.28-.83-3.42-1.24l-.4,2.95c1.11.05,2.03.81,3.13.91,1,.09,1.96-.23,2.96-.01,2.02.44,3.95,1.66,5.86,2.44s3.95,1.49,6.01,1.97c1.96.45,3.92.81,5.61,1.96,1.6,1.09,3.1-1.51,1.51-2.59h0Z"/>
    </g>
  </g>
  <g>
    <path class="cls-1" d="M152.58,276.39c20.63-9.15,42.61-15.27,65-18.1-4.24-2.84-9.81-2.39-14.84-1.54-19.53,3.3-37.99,11.01-56.26,18.65"/>
    <path class="cls-1" d="M153.34,277.68c15.86-7.01,32.51-12.22,49.53-15.53,4.88-.95,9.78-1.74,14.71-2.37,1.43-.18,2.1-1.93.76-2.8-3.73-2.41-8.27-2.66-12.57-2.18-4.88.54-9.72,1.63-14.47,2.82-9.91,2.49-19.55,5.93-29.05,9.68-5.42,2.14-10.79,4.39-16.17,6.64-.75.32-1.27.99-1.05,1.85.19.71,1.1,1.36,1.85,1.05,18.15-7.6,36.53-15.29,56.03-18.62,4.62-.79,9.78-1.31,13.91,1.35l.76-2.8c-17.63,2.25-34.97,6.43-51.65,12.58-4.76,1.76-9.47,3.67-14.11,5.73-1.76.78-.24,3.36,1.51,2.59h0Z"/>
  </g>
  <g>
    <path class="cls-1" d="M146.93,285.61c-5.48-7.68-13.66-13.38-22.77-15.86-11.96-3.25-25.56-1.21-36.09-7.74,10.52.27,21.01,1.47,31.31,3.58,9.54,1.96,19.07,4.76,27.29,10"/>
    <path class="cls-1" d="M148.23,284.85c-4.97-6.89-11.81-12.2-19.74-15.26s-17.13-3.07-25.75-4.35c-4.87-.72-9.66-1.95-13.89-4.53l-.76,2.8c8.12.22,16.22.96,24.23,2.29,7.54,1.25,15.1,2.87,22.29,5.53,3.96,1.46,7.76,3.3,11.33,5.55,1.64,1.03,3.14-1.56,1.51-2.59-6.49-4.09-13.75-6.77-21.16-8.66-7.84-2.01-15.87-3.33-23.91-4.18-4.75-.5-9.52-.81-14.29-.94-1.52-.04-1.99,2.04-.76,2.8,7.43,4.53,16.21,5.11,24.65,5.96,4.23.43,8.46.95,12.55,2.15s7.72,2.96,11.14,5.28c3.85,2.6,7.25,5.9,9.97,9.68,1.12,1.55,3.72.06,2.59-1.51h0Z"/>
  </g>
  <g>
    <path class="cls-3" d="M131.15,184.05c-.28-4.25.03-8.54.94-12.71.11-.5.39-1.13.9-1.07.37.04.58.45.72.8,2.37,6.15,2.98,12.97,1.74,19.45-7.27-2.12-14.02-6.04-19.46-11.31,3.08-.75,6.36-.24,9.29.97s5.52,3.1,7.92,5.16"/>
    <path class="cls-2" d="M132.65,184.05c-.14-2.19-.13-4.39.04-6.58.08-1.02.19-2.05.35-3.06.09-.57.19-1.15.3-1.72.05-.25.1-.51.15-.76.05-.22.22-.46.02-.34l-.76.2c-.36-.36-.5-.42-.43-.18.06.18.13.36.2.54.12.35.24.69.36,1.04.26.81.5,1.63.71,2.46.38,1.53.66,3.08.82,4.65.32,3.27.21,6.58-.4,9.81l1.85-1.05c-7.05-2.08-13.5-5.84-18.8-10.93l-.66,2.51c5.91-1.34,11.43,2.07,15.75,5.75,1.46,1.25,3.59-.87,2.12-2.12-5.19-4.43-11.61-8.12-18.67-6.52-1.1.25-1.45,1.75-.66,2.51,5.67,5.45,12.58,9.47,20.12,11.7.73.22,1.7-.26,1.85-1.05,1.24-6.66.79-13.73-1.67-20.08-.52-1.34-1.64-2.61-3.22-1.84-1.46.72-1.56,2.83-1.79,4.22-.59,3.58-.78,7.2-.56,10.82.12,1.92,3.12,1.93,3,0h0Z"/>
  </g>
  <g>
    <path class="cls-3" d="M135.82,190.33c-3.31,5.6-9.15,9.63-15.55,10.74-.63.11-1.41.14-1.79-.39-.35-.48-.14-1.16.11-1.7,2.46-5.39,7.96-9.25,13.86-9.74"/>
    <path class="cls-2" d="M134.52,189.58c-2.46,4.11-6.34,7.37-10.85,9.03-1.15.42-2.34.78-3.55.98-.05,0-.52.04-.54.07,0,0-.04.01-.05.02l.13.16c.08.2.14.22.17.05.1-.08.2-.46.26-.59.15-.3.31-.6.48-.89,1.14-1.97,2.74-3.68,4.61-4.96,2.16-1.47,4.65-2.45,7.26-2.68.81-.07,1.5-.64,1.5-1.5,0-.75-.69-1.57-1.5-1.5-6.02.54-11.62,4.04-14.59,9.35-.77,1.38-1.69,3.25-.45,4.65,1.11,1.24,2.85.89,4.28.57,2.94-.66,5.79-1.92,8.26-3.63,2.9-2,5.34-4.57,7.15-7.59.99-1.66-1.6-3.17-2.59-1.51h0Z"/>
  </g>
  <g>
    <path class="cls-3" d="M117.34,222.47c-1.73-3.72-3.37-7.49-4.9-11.3,3.26.66,6.12,2.67,8.36,5.12s3.95,5.34,5.64,8.2c-5.26,2.38-10.96,3.79-16.72,4.13-.8.05-1.92-.24-1.83-1.04.03-.27.22-.5.4-.71,2.06-2.27,4.95-3.75,7.99-4.1"/>
    <path class="cls-2" d="M118.63,221.72c-1.68-3.6-3.26-7.25-4.75-10.94l-1.85,1.85c6.43,1.39,10.01,7.38,13.11,12.63l.54-2.05c-4.24,1.9-8.81,3.18-13.43,3.7-.99.11-2,.1-2.97.21-.07,0-.23-.08-.23-.08,0,.88.14,1.15.4.8.1-.11.2-.22.31-.32.33-.33.67-.64,1.04-.93,1.57-1.22,3.52-2.06,5.49-2.31.8-.1,1.5-.62,1.5-1.5,0-.73-.69-1.6-1.5-1.5-2.89.37-5.52,1.45-7.77,3.32-1.05.87-2.43,2.06-2.07,3.58.29,1.26,1.56,1.83,2.74,1.93,1.41.12,2.92-.17,4.31-.36,1.57-.21,3.13-.49,4.67-.86,3.11-.73,6.11-1.8,9.03-3.1.74-.33.91-1.41.54-2.05-3.49-5.92-7.68-12.46-14.9-14.01-1-.21-2.31.7-1.85,1.85,1.59,3.93,3.27,7.81,5.06,11.65.34.73,1.4.92,2.05.54.75-.44.88-1.32.54-2.05h0Z"/>
  </g>
  <g>
    <path class="cls-3" d="M179.41,211.7c-.32-6.3-.13-12.62.56-18.89,1.23-.36,2.05,1.24,2.26,2.5.85,5.31.16,10.85-1.98,15.78,4.01,1.55,8.16,2.7,12.39,3.45.22.04.46.08.67.01.73-.22.67-1.31.28-1.97-1.18-1.98-3.67-2.77-5.98-2.88s-4.63.29-6.91-.06"/>
    <path class="cls-2" d="M180.91,211.7c-.31-6.3-.12-12.61.56-18.89l-1.1,1.45c-.37.07-.11-.07-.03.18s.23.45.31.71c.2.66.25,1.38.31,2.06.13,1.47.15,2.94.05,4.41-.19,2.98-.9,5.96-2.07,8.71-.4.95-.09,1.83.9,2.2,3.01,1.15,6.09,2.1,9.24,2.81,1.34.31,3.26,1.03,4.63.65,1.21-.34,1.76-1.57,1.63-2.74-.29-2.61-3.12-4.23-5.43-4.75-3.04-.69-6.15.04-9.21-.37-.81-.11-1.49.77-1.5,1.5,0,.9.7,1.39,1.5,1.5,2.36.31,4.71-.08,7.07.07.9.06,1.84.24,2.67.61.38.17.77.39,1.1.65.29.24.5.71.78.91.03.02.04.13.07.15.04.14.14.07.3-.21.36-.17.4-.26.12-.27-.25-.23-1.38-.26-1.75-.34-1.18-.25-2.36-.52-3.53-.83-2.34-.62-4.63-1.37-6.89-2.24l.9,2.2c1.64-3.85,2.55-7.95,2.54-12.14,0-2.83-.14-9.16-4.51-8.34-.69.13-1.03.82-1.1,1.45-.69,6.27-.87,12.58-.56,18.89.1,1.92,3.1,1.93,3,0h0Z"/>
  </g>
  <g>
    <path class="cls-3" d="M192.86,204.96c-.11-5.21-.07-10.41.13-15.62.03-.89.47-2.1,1.33-1.9.42.1.68.53.85.93,1.82,4.13.73,8.92-.55,13.25-.09.29-.17.62-.02.89.12.21.35.33.57.43,4.29,1.96,8.67,3.75,13.11,5.35-5.25.85-10.85-.76-14.85-4.27"/>
    <path class="cls-2" d="M194.36,204.96c-.09-4.38-.08-8.77.05-13.15.02-.55.03-1.1.05-1.64,0-.25.18-.95.09-1.19,0-.06.02-.12.04-.17.11-.32-.19-.34-.9-.05-.04.08.38.92.42,1.03.59,1.83.62,3.78.39,5.68s-.87,3.83-1.32,5.75c-.2.85-.22,1.65.36,2.35s1.55.97,2.35,1.33c3.94,1.76,7.94,3.37,11.99,4.84v-2.89c-4.75.72-9.76-.76-13.39-3.88-1.46-1.25-3.59.86-2.12,2.12,4.53,3.89,10.42,5.55,16.31,4.65,1.61-.24,1.23-2.45,0-2.89-3.49-1.27-6.95-2.63-10.35-4.13-.37-.16-.74-.33-1.11-.49s-.9-.57-1.29-.58c-.11,0-.52-.36-.04.13.36.37.12.19.28-.11.22-.4.28-.99.4-1.43.43-1.63.77-3.28.95-4.95s.14-3.28-.16-4.91c-.26-1.38-.74-3.37-2.04-4.14s-2.75-.04-3.37,1.21c-.7,1.4-.51,3.25-.55,4.77-.12,4.25-.13,8.49-.04,12.74.04,1.93,3.04,1.93,3,0h0Z"/>
  </g>
  <g>
    <path class="cls-2" d="M195.53,177.89c1.42.14,2.72.86,3.97,1.55,2.79,1.56,5.57,3.12,8.36,4.68-2.18-4.64-7.3-7.73-12.42-7.48,1.2-3.94,2.7-7.79,4.46-11.5.85,4.05-.01,8.43-2.33,11.85"/>
    <path class="cls-2" d="M195.53,179.39c1.99.26,3.92,1.74,5.62,2.7,1.98,1.11,3.97,2.22,5.95,3.33,1.37.77,2.69-.74,2.05-2.05-2.47-5.12-8.04-8.43-13.71-8.22l1.45,1.9c1.17-3.82,2.61-7.54,4.31-11.14l-2.74-.36c.74,3.72-.1,7.55-2.18,10.7-1.07,1.62,1.53,3.12,2.59,1.51,2.53-3.84,3.37-8.52,2.48-13.01-.24-1.22-2.2-1.51-2.74-.36-1.82,3.84-3.37,7.8-4.62,11.86-.28.91.49,1.93,1.45,1.9,4.7-.17,9.08,2.52,11.12,6.74l2.05-2.05c-2.2-1.23-4.4-2.46-6.59-3.69-2.08-1.17-4.08-2.43-6.49-2.75-.8-.11-1.5.76-1.5,1.5,0,.9.69,1.39,1.5,1.5h0Z"/>
  </g>
  <g>
    <path class="cls-2" d="M176.72,185.06c-.11-4.95-.22-9.9-.33-14.85,2.48,1.16,3.89,3.96,4.07,6.69s-.67,5.42-1.68,7.97c1.45.07,2.92.14,4.28.64s2.6,1.53,2.99,2.93c-3.15-.57-6.21-1.61-9.06-3.06"/>
    <path class="cls-2" d="M178.22,185.06c-.11-4.95-.22-9.9-.33-14.85l-2.26,1.3c4.96,2.46,3.28,8.94,1.69,12.96-.38.96.57,1.86,1.45,1.9,1.96.09,5.08.17,5.82,2.47l1.85-1.85c-3.03-.57-5.95-1.52-8.7-2.91-1.72-.86-3.24,1.72-1.51,2.59,2.98,1.5,6.13,2.59,9.42,3.21,1.06.2,2.22-.67,1.85-1.85-1.22-3.8-5.23-4.51-8.72-4.67l1.45,1.9c1.23-3.12,2.16-6.45,1.55-9.82-.49-2.7-2.13-5.29-4.62-6.53-.98-.49-2.28.09-2.26,1.3.11,4.95.22,9.9.33,14.85.04,1.93,3.04,1.93,3,0h0Z"/>
  </g>
  <g>
    <path class="cls-3" d="M143.34,154.38c-.38-4.4-.17-8.86.63-13.2,1.67.35,2.26,2.41,2.35,4.12.15,3.08-.33,6.19-1.39,9.08"/>
    <path class="cls-2" d="M144.84,154.38c-.36-4.27-.19-8.58.58-12.8l-1.85,1.05c.3.07.22.04.37.14-.16-.11.22.21.27.27-.1-.13.17.31.2.37.08.16.08.17.16.43.29.95.29,1.73.28,2.8-.03,2.52-.51,4.98-1.36,7.35-.27.76.31,1.64,1.05,1.85.83.23,1.57-.28,1.85-1.05,1.05-2.91,1.55-6.03,1.45-9.12-.08-2.37-.83-5.28-3.46-5.93-.73-.18-1.7.23-1.85,1.05-.81,4.49-1.07,9.05-.69,13.6.07.81.64,1.5,1.5,1.5.76,0,1.57-.69,1.5-1.5h0Z"/>
  </g>
  <g>
    <path class="cls-3" d="M175.35,157.1l9.45,1.51c.27.04.62.05.75-.19.08-.15.03-.34-.03-.5-.7-1.88-2.69-3.06-4.69-3.28s-3.99.36-5.86,1.1"/>
    <path class="cls-2" d="M174.95,158.54l5.65.9,2.77.44c.92.15,1.96.47,2.82-.06,1.99-1.21.22-3.89-1.04-4.92s-2.85-1.65-4.52-1.79c-2.07-.18-4.16.42-6.07,1.17-.75.29-1.28,1.01-1.05,1.85.2.72,1.09,1.34,1.85,1.05.97-.38,1.96-.72,2.98-.93.46-.09.84-.14,1.33-.16.26,0,.52,0,.77,0,.13,0,.26.02.39.03-.21-.03.06.01.14.03.35.07.88.22,1.09.31s.69.36.98.56c.21.14-.13-.12.06.05.08.07.15.13.23.2.1.09.34.35.34.35-.07-.08.09.13.11.15.06.08.11.17.16.26s.09.19.14.27c.04.08.04.09.02.03-.09-.19-.06-.38.09-.6l.54-.54c.1-.04.21-.06.32-.08h-.12c.14,0,.1,0-.13-.04l-.21-.03-1.23-.2-2.57-.41-5.03-.8c-.8-.13-1.61.21-1.85,1.05-.2.71.24,1.72,1.05,1.85h0Z"/>
  </g>
  <g>
    <path class="cls-2" d="M277.76,242.74c3.98,1.43,9.45,6.02,11.51,9.71,3.21,5.75,8.23,7.23,13.73,6.45-1.65-4.34-4.09-14.24-8.59-15.39-4.5-1.15-12.02-1.09-16.65-.76,4.89-.39,9.66-3.91,14.15-5.89,3.69-1.62,6.99-9.6,9.3-12.91-9.84-2.55-16.41,11.22-23.44,18.8"/>
    <path class="cls-2" d="M279.14,240.9c-6.45.64-12.89,1.28-19.34,1.92-.81.08-1.5.63-1.5,1.5,0,.75.69,1.58,1.5,1.5,6.45-.64,12.89-1.28,19.34-1.92.81-.08,1.5-.63,1.5-1.5,0-.75-.69-1.58-1.5-1.5h0Z"/>
    <path class="cls-2" d="M277.35,220.53c-.01-.35-8.41,1.61-9.82,3.81s-3.12,3-3.76,5.53c-1.17,4.64-2.35,9.28-3.52,13.92-.1.39-.21.81-.52,1.07"/>
    <path class="cls-2" d="M259.78,244.43c3.7.04,7.07,2.38,9.28,5.35,2.21,2.97,5.46,13.46,6.68,16.96-3.5-.49-9.83-8.62-11.64-11.66s-1.52-8.26-4.25-10.51c1.42-1.09,2.84-2.19,4.26-3.28,2.94-2.26,5.96-4.62,7.71-7.88,2.25-4.17,5.73-8.15,5.52-12.89"/>
    <path class="cls-2" d="M260.08,242.8c-6.52.49-13.08,2.15-19.15,4.55-.75.3-1.28,1-1.05,1.85.2.72,1.09,1.35,1.85,1.05,5.81-2.29,12.11-3.97,18.35-4.44,1.91-.14,1.93-3.14,0-3h0Z"/>
    <path class="cls-2" d="M275.93,242.9c-.79,4.02,4.27,12.88,7.17,15.78.24-2.02-.61-8.14-.83-10.17s-3.61-4.46-5.07-5.89"/>
    <path class="cls-2" d="M248.57,245.98c-1.26-7.31,1.45-15.19,6.94-20.19,2.07,3.1,2.28,7.21,1.12,10.75s-3.55,6.58-6.31,9.09c-.26.24-.53.48-.67.8-.29.65.04,1.4.34,2.04,2.42,5.11,3.91,10.66,4.37,16.3-5.96-3.68-8.45-12.08-5.45-18.4"/>
    <path class="cls-2" d="M243.4,246.42c-3.8,1.07-6.87,3.78-10.87,4.21-1.72.18-3.5.24-5.16.75-.79.24-1.58.57-2.26,1.03-.38.26-.74.56-1.08.87-.19.18-.55.69-.85.72-.81.09-1.49.62-1.5,1.5,0,.74.7,1.59,1.5,1.5,1.03-.12,1.78-.5,2.55-1.19.61-.54,1.12-1.05,1.9-1.36,1.63-.65,3.46-.65,5.19-.85,1.98-.22,3.75-.74,5.55-1.6,1.94-.93,3.75-2.09,5.83-2.68,1.86-.52,1.07-3.42-.8-2.89h0Z"/>
    <path class="cls-2" d="M222.8,254.14c-4.56.88-9.25.63-13.81,1.55-4.31.87-8.72,2.94-13.19,1.97-1.88-.41-2.69,2.48-.8,2.89,4.79,1.03,9.28-.71,13.89-1.78s9.84-.81,14.7-1.75c1.89-.37,1.09-3.26-.8-2.89h0Z"/>
    <path class="cls-2" d="M235.82,251.29c2.62-3.94,4.02-8.68,3.97-13.41-2.4,1.07-3.98,3.49-4.67,6.02s-.58,5.21-.42,7.83"/>
    <path class="cls-2" d="M229.89,252.4c1.25.28,2.21,1.29,2.97,2.32,2.09,2.81,3.38,6.14,4.27,9.53-2.34-.72-4.14-2.69-5.22-4.89s-1.52-4.65-1.95-7.07"/>
    <g>
      <path class="cls-1" d="M195.32,260.3c3.53.37,6.96-1.04,10.37-2,4.21-1.18,8.59-1.69,12.95-2.06,1.91-.16,3.87-.31,5.63-1.07,1.32-.57,2.32-1.89,3.73-2.16,1.33-.26,2.95-.22,4.12-.96-1.38.24-2.77.47-4.15.71-.97.17-1.95.33-2.88.68-.79.29-1.53.71-2.31,1.04-3.88,1.66-8.32,1.11-12.49,1.78-3.13.5-6.13,1.69-9.26,2.2-2.16.35-4.36.37-6.56.38-.02.6.48.99.84,1.47"/>
      <path class="cls-1" d="M195.32,261.8c3.42.29,6.65-.84,9.88-1.79,3.4-1.01,6.88-1.6,10.4-1.98,3.15-.34,6.69-.21,9.59-1.65,1.18-.58,2.07-1.72,3.4-1.97,1.5-.28,2.93-.32,4.3-1.08,1.58-.88.44-3.01-1.16-2.74-3.09.53-6.07.89-8.93,2.22s-6.08,1.4-9.23,1.6-6.13.9-9.18,1.73c-3.3.9-6.5,1.16-9.91,1.19-.73,0-1.61.69-1.5,1.5.14,1.08.6,1.7,1.28,2.53,1.23,1.49,3.34-.64,2.12-2.12-.05-.07-.44-.69-.4-.41l-1.5,1.5c3.42-.03,6.73-.25,10.05-1.12s6.19-1.63,9.48-1.82c3.1-.18,6.27-.28,9.18-1.48,1.47-.6,2.78-1.27,4.36-1.57,1.65-.32,3.32-.57,4.98-.85l-1.16-2.74c-1.26.7-2.76.48-4.11.89-1.2.37-2.06,1.26-3.11,1.89-1.37.82-3.08.99-4.63,1.13s-3.24.28-4.86.47c-3.24.38-6.46.89-9.6,1.79s-6.35,2.16-9.75,1.88c-1.92-.16-1.91,2.84,0,3h0Z"/>
    </g>
  </g>
  <g>
    <path class="cls-2" d="M27.71,234.88c-4.17.7-10.37,4.25-13.05,7.51-4.18,5.09-9.38,5.65-14.66,3.91,2.4-3.98,6.55-13.29,11.18-13.62,4.64-.33,12.02,1.06,16.52,2.2-4.74-1.25-8.81-5.57-12.88-8.3-3.35-2.25-5.18-10.69-6.86-14.36,10.14-.77,14.16,13.95,19.74,22.66"/>
    <path class="cls-2" d="M26.01,235.74c6.23,1.77,12.46,3.54,18.69,5.32,1.86.53,2.65-2.36.8-2.89-6.23-1.77-12.46-3.54-18.69-5.32-1.86-.53-2.65,2.36-.8,2.89h0Z"/>
    <path class="cls-2" d="M32.05,213.09c.08-.34,7.99,3.08,8.99,5.49s2.54,3.51,2.72,6.11c.33,4.78.66,9.55.99,14.33.03.4.07.83.32,1.14"/>
    <path class="cls-2" d="M45.11,239.73c-3.65-.61-7.38,1.09-10.08,3.62-2.7,2.53-7.76,12.28-9.58,15.51,3.54.14,11.21-6.74,13.52-9.41s2.96-7.86,6.05-9.59c-1.2-1.33-2.41-2.66-3.61-3.98-2.49-2.74-5.04-5.6-6.2-9.12-1.47-4.5-4.19-9.04-3.15-13.66"/>
    <path class="cls-2" d="M44.43,241c6.07,1.57,11.97,4.3,17.3,7.59,1.65,1.02,3.15-1.58,1.51-2.59-5.53-3.42-11.71-6.27-18.01-7.9-1.87-.48-2.67,2.41-.8,2.89h0Z"/>
    <path class="cls-2" d="M29.48,235.36c.07,4.1-6.49,11.92-9.86,14.25.12-2.03,2.04-7.91,2.62-9.86s4.34-3.75,6.03-4.9"/>
    <path class="cls-2" d="M55.86,243.24c2.54-6.97,1.27-15.21-3.25-21.1-2.59,2.69-3.52,6.69-3.01,10.39s2.32,7.11,4.6,10.07c.21.28.44.56.52.9.17.69-.28,1.37-.7,1.95-3.29,4.6-5.74,9.8-7.19,15.26,6.52-2.56,10.45-10.39,8.62-17.15"/>
    <path class="cls-2" d="M59.47,247.24c1.94.94,3.54,2.36,5.25,3.63,1.58,1.18,3.24,2.05,5.13,2.62,1.62.49,3.36.8,4.85,1.64,1.62.91,2.21,2.89,4.07,3.43s2.65-2.36.8-2.89c-.62-.18-1.07-1.23-1.49-1.69-.59-.63-1.32-1.16-2.08-1.56-1.6-.84-3.38-1.25-5.1-1.75s-3.29-1.36-4.78-2.48c-1.67-1.25-3.24-2.63-5.13-3.54-1.73-.84-3.25,1.75-1.51,2.59h0Z"/>
    <path class="cls-2" d="M78.72,258.64c4.66,1.81,9.7,2.36,14.29,4.39,4.13,1.82,8.17,4.23,12.85,4.06,1.92-.07,1.93-3.07,0-3-4.51.16-8.43-2.47-12.46-4.14-4.48-1.86-9.36-2.45-13.88-4.21-1.8-.7-2.58,2.2-.8,2.89h0Z"/>
    <path class="cls-2" d="M67.47,250.73c-1.88-4.34-2.42-9.26-1.52-13.9,2.17,1.48,3.3,4.14,3.52,6.75s-.35,5.23-.98,7.78"/>
    <path class="cls-2" d="M73.1,252.87c-1.28.06-2.4.88-3.34,1.75-2.55,2.39-4.42,5.44-5.89,8.62,2.43-.29,4.55-1.91,6-3.89s2.33-4.31,3.17-6.61"/>
    <g>
      <path class="cls-1" d="M105.72,266.77c-3.54-.26-6.66-2.26-9.85-3.81-3.94-1.91-8.15-3.18-12.38-4.32-1.85-.5-3.75-.99-5.36-2.06-1.2-.8-1.95-2.27-3.29-2.79-1.26-.49-2.87-.74-3.89-1.67,1.32.48,2.64.95,3.96,1.43.93.34,1.86.67,2.71,1.18.73.43,1.38.97,2.09,1.44,3.53,2.33,7.99,2.57,11.98,3.97,3,1.05,5.73,2.75,8.72,3.81,2.07.73,4.23,1.13,6.38,1.54-.09.59-.64.89-1.09,1.29"/>
      <path class="cls-1" d="M105.72,265.27c-3.16-.3-5.93-2.04-8.71-3.41-3.05-1.51-6.25-2.66-9.51-3.64-1.59-.48-3.21-.89-4.81-1.35-1.4-.4-2.93-.84-4.07-1.79-.99-.83-1.68-1.92-2.87-2.5s-2.71-.66-3.74-1.51l-1.46,2.51c1.58.57,3.18,1.11,4.75,1.72s2.65,1.56,3.99,2.39c2.56,1.57,5.55,2.2,8.43,2.9,3.2.77,6.03,2.06,9,3.44,3.12,1.45,6.3,2.28,9.67,2.91l-1.05-1.85c-.07.2-.56.51-.7.63-1.48,1.25.65,3.36,2.12,2.12.7-.59,1.19-1.07,1.47-1.96.23-.73-.27-1.7-1.05-1.85-3.43-.64-6.62-1.49-9.77-3-2.91-1.39-5.75-2.59-8.89-3.35-2.93-.71-5.89-1.31-8.41-3.05-1.24-.86-2.41-1.6-3.82-2.16-1.63-.64-3.3-1.2-4.95-1.8-1.38-.5-2.61,1.56-1.46,2.51s2.48,1.35,3.89,1.83,2.05,1.69,3.15,2.54c2.59,2.03,6.24,2.52,9.32,3.43,3.44,1.01,6.8,2.23,10,3.86s6.01,3.11,9.46,3.44c1.92.18,1.91-2.82,0-3h0Z"/>
    </g>
  </g>
  <g>
    <path class="cls-2" d="M228.88,226.54c2.57-.4,6.87.48,9.06,1.87,3.42,2.16,6.56,1.49,9.31-.55-2.17-1.86-6.39-6.49-9.15-5.79s-6.81,2.94-9.22,4.47c2.52-1.65,4.07-4.95,5.91-7.33,1.52-1.96.96-7.24,1.23-9.7-6.06,1.51-5.57,10.87-7.14,17.03"/>
    <path class="cls-2" d="M228.77,224.65c-3.29,2.24-6.59,4.47-9.88,6.71-.67.45-.97,1.32-.54,2.05.39.66,1.38,1,2.05.54,3.29-2.24,6.59-4.47,9.88-6.71.67-.45.97-1.32.54-2.05-.39-.66-1.38-1-2.05-.54h0Z"/>
    <path class="cls-2" d="M222.14,214.66c-.11-.18-4.07,3.34-4.18,4.94-.11,1.6-.8,2.54-.41,4.09.73,2.85,1.46,5.7,2.18,8.55.06.24.12.5.03.73"/>
    <path class="cls-2" d="M219.66,232.73c2.01-1.06,4.52-.79,6.58.17s6.9,5.67,8.58,7.2c-2.04.76-7.84-1.77-9.71-2.88s-3.24-4.01-5.38-4.43c.45-1.01.89-2.01,1.34-3.02.92-2.08,1.86-4.24,1.86-6.52,0-2.91.7-6.08-.8-8.58"/>
    <path class="cls-2" d="M219.03,231.27c-3.41,2.19-6.51,5.06-9.11,8.16-.5.6-.63,1.54,0,2.12.56.51,1.58.64,2.12,0,1.26-1.5,2.63-2.9,4.08-4.22.74-.67,1.49-1.32,2.27-1.94,0,0,.37-.29.15-.12.08-.06.15-.12.23-.17.2-.15.41-.31.62-.46.38-.27.76-.53,1.16-.79.66-.42.99-1.35.54-2.05-.42-.66-1.35-.99-2.05-.54h0Z"/>
    <path class="cls-2" d="M227.93,227.16c.75,2.4,6.09,5.7,8.5,6.42-.46-1.16-2.72-4.22-3.43-5.25s-3.26-1.35-4.46-1.69"/>
    <path class="cls-2" d="M214.06,236.85c-2.83-3.58-3.68-8.63-2.18-12.94,2.03,1.07,3.34,3.22,3.76,5.48s.02,4.6-.74,6.76c-.07.2-.15.41-.13.63.04.44.43.74.78,1,2.81,2.05,5.24,4.61,7.14,7.52-4.3-.24-8.1-4.04-8.34-8.34"/>
    <path class="cls-2" d="M210.98,238.21c-.99.96-1.71,2.14-2.48,3.27-.36.53-.57.83-1.06,1.31-.18.18-.37.34-.57.5.26-.2-.09.06-.11.08-.11.08-.22.15-.33.23-.9.62-1.86,1.2-2.64,1.98-.42.42-.8.9-1.06,1.43-.16.32-.27.65-.38.98-.01.03-.11.39-.07.23.04-.09.02-.06-.05.08.04-.06.09-.11.16-.15-.67.45-.97,1.32-.54,2.05.39.67,1.38.99,2.05.54.72-.48,1.08-1.13,1.34-1.95.04-.13.08-.26.13-.39-.12.3.05-.07.07-.11.06-.11.13-.22.21-.32-.18.27.05-.06.09-.09.17-.19.36-.37.56-.54.02-.02.36-.29.11-.09.11-.08.21-.16.32-.24.44-.31.89-.6,1.33-.91,1.12-.78,2-1.66,2.8-2.77s1.34-2.12,2.25-3.01c.58-.56.57-1.55,0-2.12s-1.54-.57-2.12,0h0Z"/>
    <path class="cls-2" d="M202.12,248.42c-2.33,1.92-5.11,3.21-7.38,5.22-1.83,1.61-3.5,3.76-5.93,4.46-1.85.53-1.06,3.43.8,2.89,2.85-.82,4.82-3.01,6.94-4.94,2.35-2.13,5.26-3.49,7.7-5.5.63-.52.53-1.59,0-2.12-.62-.62-1.49-.52-2.12,0h0Z"/>
    <path class="cls-2" d="M208.73,243.46c.26-2.9-.38-5.87-1.79-8.41-.98,1.28-1.13,3.05-.75,4.62s1.21,2.98,2.07,4.35"/>
    <path class="cls-2" d="M205.86,245.8c.76-.21,1.57.05,2.29.38,1.95.9,3.63,2.32,5.1,3.89-1.48.3-3.03-.24-4.25-1.11s-2.19-2.06-3.13-3.24"/>
    <g>
      <path class="cls-1" d="M189.51,260.2c2.01-.83,3.45-2.6,5.02-4.12,1.93-1.87,4.14-3.43,6.39-4.91.99-.65,2-1.3,2.73-2.23.55-.7.7-1.7,1.38-2.26.64-.53,1.53-.98,1.95-1.73-.68.53-1.36,1.07-2.03,1.6-.48.38-.96.75-1.36,1.21-.34.39-.62.83-.94,1.24-1.61,2.04-4.17,3.04-6.22,4.63-1.55,1.19-2.81,2.71-4.36,3.91-1.07.82-2.25,1.48-3.43,2.13.16.33.55.4.88.55"/>
      <path class="cls-1" d="M190.26,261.5c1.86-.82,3.28-2.3,4.68-3.72,1.55-1.56,3.24-2.93,5.04-4.18,1.65-1.14,3.58-2.13,4.82-3.75.51-.66.69-1.6,1.32-2.15.76-.68,1.56-1.1,2.13-1.99.4-.62.19-1.51-.39-1.94-.64-.48-1.36-.36-1.97.12-.8.63-1.6,1.24-2.39,1.88s-1.31,1.32-1.9,2.1c-1.09,1.44-2.67,2.31-4.17,3.24-1.67,1.04-3.1,2.28-4.52,3.63-1.55,1.49-3.2,2.59-5.07,3.62-.66.36-1.01,1.41-.54,2.05.5.68,1.02.93,1.78,1.23s1.65-.33,1.85-1.05c.24-.86-.29-1.54-1.05-1.85-.24-.1-.2-.07-.4-.23l.54.54-.12-.17-.54,2.05c1.88-1.04,3.63-2.16,5.2-3.64,1.48-1.39,2.89-2.69,4.63-3.77,1.56-.97,3.2-1.94,4.39-3.38.63-.77,1.14-1.54,1.92-2.18.82-.68,1.67-1.32,2.51-1.98l-2.36-1.82c-.42.66-1.26.98-1.81,1.51-.67.66-.85,1.52-1.37,2.26-.49.7-1.27,1.2-1.97,1.67-.87.58-1.74,1.15-2.6,1.76-1.69,1.2-3.32,2.48-4.78,3.95-1.36,1.35-2.61,2.79-4.39,3.57-.74.33-.91,1.41-.54,2.05.45.76,1.31.87,2.05.54h0Z"/>
    </g>
  </g>
  <g>
    <path class="cls-2" d="M112.71,247.05c-2.21-.34-5.92.41-7.81,1.61-2.95,1.86-5.66,1.28-8.02-.47,1.87-1.6,5.5-5.6,7.89-4.99s5.87,2.53,7.94,3.85c-2.17-1.42-3.51-4.26-5.1-6.32-1.31-1.69-.82-6.24-1.06-8.36,5.23,1.3,4.8,9.37,6.16,14.68"/>
    <path class="cls-2" d="M111.39,247.83c2.84,1.93,5.68,3.85,8.51,5.78.65.44,1.69.15,2.05-.54.4-.76.16-1.58-.54-2.05-2.84-1.93-5.68-3.85-8.51-5.78-.65-.44-1.69-.15-2.05.54-.4.76-.16,1.58.54,2.05h0Z"/>
    <path class="cls-2" d="M118.52,236.81c.09-.16,3.51,2.88,3.61,4.26s.69,2.19.35,3.52c-.63,2.46-1.26,4.91-1.88,7.37-.05.21-.1.43-.03.63"/>
    <path class="cls-2" d="M120.65,252.38c-1.73-.92-3.89-.68-5.67.14s-5.95,4.88-7.4,6.2c1.76.66,6.76-1.52,8.36-2.49s2.8-3.46,4.64-3.82c-.38-.87-.77-1.74-1.15-2.6-.79-1.79-1.6-3.66-1.6-5.62,0-2.51-.6-5.24.69-7.39"/>
    <path class="cls-2" d="M119.78,253.54c.32.21.64.42.95.64.18.13.36.26.53.39.08.06.16.12.24.19-.17-.13-.07-.05.04.03.69.54,1.36,1.12,2.01,1.71,1.25,1.14,2.43,2.34,3.52,3.63.51.6,1.61.56,2.12,0,.59-.64.54-1.48,0-2.12-2.25-2.69-4.94-5.17-7.89-7.07-.66-.43-1.68-.16-2.05.54-.39.74-.17,1.6.54,2.05h0Z"/>
    <path class="cls-2" d="M113.52,247.58c-.65,2.07-5.25,4.92-7.33,5.53.4-1,2.34-3.64,2.96-4.52s2.81-1.16,3.85-1.46"/>
    <path class="cls-2" d="M125.48,255.94c2.44-3.09,3.17-7.44,1.88-11.15-1.75.92-2.88,2.78-3.24,4.72s-.01,3.96.64,5.83c.06.18.13.36.11.54-.03.38-.37.64-.68.86-2.42,1.77-4.52,3.97-6.15,6.48,3.7-.2,6.99-3.48,7.19-7.19"/>
    <path class="cls-2" d="M126.16,259.08c.21.2.39.41.58.63.22.26-.06-.1.11.15.08.12.17.23.25.35.33.47.63.96.97,1.42.71.99,1.48,1.77,2.48,2.46.38.26.77.51,1.15.78.09.07.19.13.28.2-.2-.15-.06-.05.05.05.17.14.33.3.48.46.06.07.24.34.04.04.06.09.12.18.18.28.02.04.17.32.07.12s.04.15.06.2c.24.78.58,1.4,1.27,1.86.65.44,1.69.15,2.05-.54.4-.76.16-1.58-.54-2.05.07.04.32.31.15.1.16.2.02.03-.02-.11-.1-.31-.21-.61-.35-.9-.22-.46-.55-.88-.9-1.24-.69-.71-1.55-1.23-2.36-1.78-.09-.06-.19-.13-.28-.2-.07-.05-.34-.27-.06-.03-.16-.13-.31-.25-.45-.39-.18-.18-.35-.37-.52-.57-.22-.26.06.1-.11-.15-.08-.12-.17-.23-.25-.35-.7-1-1.33-2.06-2.21-2.92-.56-.55-1.57-.6-2.12,0s-.6,1.54,0,2.12h0Z"/>
    <path class="cls-2" d="M133.79,267.88c2.1,1.74,4.62,2.91,6.64,4.74,1.86,1.69,3.58,3.59,6.07,4.31,1.86.53,2.65-2.36.8-2.89-1.99-.57-3.43-2.39-5.02-3.79-1.96-1.73-4.35-2.84-6.36-4.5-.62-.52-1.51-.61-2.12,0-.53.53-.63,1.6,0,2.12h0Z"/>
    <path class="cls-2" d="M130.07,261.63c-.22-2.5.32-5.06,1.55-7.25.84,1.1.97,2.63.65,3.98s-1.05,2.57-1.78,3.75"/>
    <path class="cls-2" d="M132.55,263.65c-.65-.19-1.35.04-1.97.33-1.68.78-3.13,2-4.4,3.35,1.27.26,2.61-.2,3.66-.96s1.89-1.78,2.69-2.8"/>
    <g>
      <path class="cls-1" d="M146.64,276.06c-1.74-.72-2.98-2.24-4.32-3.55-1.66-1.62-3.57-2.96-5.51-4.23-.85-.56-1.72-1.12-2.35-1.93-.47-.6-.6-1.47-1.19-1.95-.55-.46-1.32-.85-1.68-1.49.58.46,1.17.92,1.75,1.38.41.32.82.65,1.17,1.04.3.34.53.72.81,1.07,1.39,1.76,3.59,2.62,5.36,3.99,1.33,1.03,2.42,2.34,3.75,3.37.92.71,1.94,1.27,2.96,1.83-.14.28-.47.34-.76.47"/>
      <path class="cls-1" d="M147.4,274.77c-1.49-.65-2.53-1.83-3.65-2.96-1.3-1.31-2.75-2.46-4.26-3.52-.7-.5-1.42-.97-2.13-1.45-.59-.39-1.28-.81-1.7-1.39-.45-.62-.61-1.38-1.16-1.95-.47-.49-1.24-.77-1.61-1.34l-2.36,1.82c.69.54,1.38,1.07,2.06,1.62s1.13,1.19,1.67,1.87c1.05,1.3,2.51,2.17,3.9,3.04s2.62,1.96,3.84,3.12c1.4,1.33,2.95,2.34,4.63,3.27l-.54-2.05-.11.15.54-.54c-.22.16-.03.07-.3.17-.75.3-1.28,1-1.05,1.85.2.71,1.09,1.35,1.85,1.05.71-.29,1.19-.52,1.66-1.16s.12-1.69-.54-2.05c-1.55-.86-2.94-1.76-4.23-2.99s-2.54-2.33-4.04-3.26c-1.22-.76-2.53-1.47-3.44-2.61-.53-.67-.98-1.33-1.64-1.88-.71-.59-1.44-1.14-2.16-1.7-.59-.46-1.34-.62-1.97-.12-.56.45-.8,1.3-.39,1.94.5.77,1.18,1.17,1.86,1.76.49.42.63,1.16,1.01,1.68,1.07,1.51,2.84,2.4,4.33,3.44s2.92,2.18,4.22,3.48,2.51,2.6,4.17,3.33c.74.33,1.61.22,2.05-.54.37-.64.21-1.72-.54-2.05h0Z"/>
    </g>
  </g>
  <g>
    <path class="cls-2" d="M185.94,108.28c-.02-2.81-1.7-7.24-3.56-9.34-2.9-3.27-2.73-6.74-1.03-10.01,2.36,1.99,8.03,5.68,7.76,8.75s-1.95,7.77-3.17,10.6c1.32-2.97,4.57-5.19,6.78-7.57,1.83-1.96,7.55-2.28,10.13-3-.55,6.72-10.62,7.82-16.91,10.57"/>
    <path class="cls-2" d="M185.16,106.73c-1.81,3.9-3.62,7.8-5.44,11.69-.34.73-.21,1.62.54,2.05.65.38,1.71.2,2.05-.54l5.44-11.69c.34-.73.21-1.62-.54-2.05-.65-.38-1.71-.2-2.05.54h0Z"/>
    <path class="cls-2" d="M199.76,113.4c.21.09-2.85,4.91-4.54,5.31s-2.56,1.3-4.29,1.14c-3.16-.28-6.33-.56-9.49-.84-.27-.02-.55-.04-.78.09"/>
    <path class="cls-2" d="M180.94,119.17c.78-2.33.05-4.95-1.32-6.98s-7.24-6.37-9.16-7.9c-.46,2.3,3.24,8.05,4.76,9.84s4.84,2.76,5.65,4.96c1-.65,1.99-1.3,2.99-1.95,2.06-1.34,4.2-2.72,6.62-3.11,3.1-.5,6.36-1.8,9.28-.64"/>
    <path class="cls-2" d="M179.79,118.25c-1.65,3.79-4.06,7.41-6.68,10.46-.53.61-.6,1.52,0,2.12.54.54,1.59.62,2.12,0,2.85-3.3,5.41-7.06,7.15-11.07.32-.74.22-1.61-.54-2.05-.63-.37-1.73-.21-2.05.54h0Z"/>
    <path class="cls-2" d="M185.44,109.39c-2.69-.38-7.13-5.5-8.31-7.95,1.32.29,4.97,2.16,6.19,2.75s2.01,3.24,2.58,4.46"/>
    <path class="cls-2" d="M177.52,125.86c4.31,2.39,9.83,2.42,14.16.08-1.49-1.98-4.02-3-6.49-3.06s-4.9.78-7.08,1.96c-.2.11-.41.23-.65.25-.47.04-.87-.33-1.2-.66-2.67-2.64-5.82-4.78-9.25-6.3,1,4.54,5.71,7.94,10.34,7.44"/>
    <path class="cls-2" d="M174,127.68c-.69,1-1.81,1.89-2.73,2.79-.97.95-1.77,2-2.35,3.22-.46.96-.96,2.22-1.52,2.94.1-.12-.14.15-.16.18-.1.11-.2.2-.31.3-.22.21.09-.02-.15.11-.13.07-.25.15-.39.22-.68.35-1.35.76-1.68,1.48s-.21,1.61.54,2.05c.65.38,1.71.2,2.05-.54.09-.16.09-.18,0-.07l.11-.1c-.2.09.21-.1.22-.1.27-.14.53-.26.78-.44.58-.4,1.04-.87,1.46-1.44.71-.94,1.14-2.04,1.64-3.09.55-1.15,1.17-1.93,2.08-2.8,1.07-1.02,2.15-1.99,3.01-3.22.46-.67.12-1.67-.54-2.05-.75-.44-1.59-.13-2.05.54h0Z"/>
    <path class="cls-2" d="M164.65,138.89c-1.71,2.92-2.63,6.22-4.47,9.07-1.72,2.66-3.63,5.08-4.03,8.33-.1.81.76,1.5,1.5,1.5.89,0,1.4-.69,1.5-1.5.33-2.74,2.5-5,3.9-7.26,1.69-2.73,2.57-5.86,4.19-8.63.98-1.67-1.62-3.18-2.59-1.51h0Z"/>
    <path class="cls-2" d="M171.4,132.68c3.04-.78,6.32-.62,9.27.45-1.2,1.27-3.06,1.73-4.79,1.6s-3.39-.78-4.99-1.45"/>
    <path class="cls-2" d="M169.41,136.15c.1-.85-.32-1.66-.8-2.37-1.3-1.92-3.11-3.46-5.03-4.76-.06,1.63.78,3.18,1.92,4.34s2.58,1.97,4,2.77"/>
    <g>
      <path class="cls-1" d="M156.89,156.08c.54-2.29,2.18-4.13,3.52-6.06,1.66-2.38,2.94-5.01,4.13-7.66.52-1.16,1.04-2.36,1.91-3.29.65-.7,1.69-1.04,2.17-1.87.45-.78.78-1.8,1.5-2.37-.45.81-.9,1.63-1.35,2.44-.32.57-.64,1.15-1.05,1.66-.36.43-.78.81-1.16,1.22-1.89,2.07-2.52,4.97-3.85,7.44-1,1.85-2.4,3.47-3.41,5.32-.69,1.28-1.18,2.65-1.67,4.02-.38-.12-.52-.52-.73-.85"/>
      <path class="cls-1" d="M158.34,156.48c.51-1.95,1.8-3.52,2.96-5.13,1.34-1.85,2.46-3.84,3.45-5.9.85-1.76,1.49-4.31,3.04-5.59.68-.56,1.44-.94,1.96-1.67s.74-1.68,1.43-2.3l-2.36-1.82c-.55.99-1.07,1.98-1.64,2.96-.53.9-1.25,1.53-1.92,2.32-1.36,1.6-2.11,3.52-2.9,5.43-.84,2-2,3.73-3.21,5.52-1.31,1.94-2.18,4.03-2.97,6.23l2.2-.9c-.08-.09-.15-.2-.2-.31-.99-1.65-3.59-.15-2.59,1.51.34.58.67,1.05,1.27,1.39.9.5,1.88.02,2.2-.9.75-2.1,1.63-4,2.89-5.84s2.31-3.56,3.16-5.58c.73-1.74,1.4-3.56,2.73-4.94,1.53-1.6,2.5-3.45,3.57-5.38.84-1.51-1.1-2.97-2.36-1.82-.75.69-1.1,1.55-1.59,2.41-.43.75-1.26,1.06-1.88,1.63-1.72,1.58-2.44,4.1-3.43,6.14s-2.18,4.14-3.56,6.04c-1.3,1.78-2.59,3.53-3.16,5.7-.49,1.87,2.4,2.67,2.89.8h0Z"/>
    </g>
  </g>
  <g>
    <path class="cls-2" d="M128.82,82.65c.02-2.81,1.7-7.24,3.56-9.34,2.9-3.27,2.73-6.74,1.03-10.01-2.36,1.99-8.03,5.68-7.76,8.75.27,3.07,1.95,7.77,3.17,10.6-1.32-2.97-4.57-5.19-6.78-7.57-1.83-1.96-7.55-2.28-10.13-3,.55,6.72,10.62,7.82,16.91,10.57"/>
    <path class="cls-2" d="M127.01,82.62c1.81,3.9,3.62,7.8,5.44,11.69.34.73,1.4.92,2.05.54.75-.44.88-1.31.54-2.05-1.81-3.9-3.62-7.8-5.44-11.69-.34-.73-1.4-.92-2.05-.54-.75.44-.88,1.31-.54,2.05h0Z"/>
    <path class="cls-2" d="M115,87.77c-.21.09,2.85,4.91,4.54,5.31s2.56,1.3,4.29,1.14c3.16-.28,6.33-.56,9.49-.84.27-.02.55-.04.78.09"/>
    <path class="cls-2" d="M133.82,93.55c-.78-2.33-.05-4.95,1.32-6.98,1.38-2.03,7.24-6.37,9.16-7.9.46,2.3-3.24,8.05-4.76,9.84s-4.84,2.76-5.65,4.96c-1-.65-1.99-1.3-2.99-1.95-2.06-1.34-4.2-2.72-6.62-3.11-3.1-.5-6.36-1.8-9.28-.64"/>
    <path class="cls-2" d="M132.38,94.14c1.74,4.01,4.3,7.76,7.15,11.07.53.61,1.58.54,2.12,0,.61-.61.53-1.51,0-2.12-2.63-3.04-5.03-6.66-6.68-10.46-.32-.74-1.41-.91-2.05-.54-.77.45-.86,1.31-.54,2.05h0Z"/>
    <path class="cls-2" d="M129.32,83.77c2.69-.38,7.13-5.5,8.31-7.95-1.32.29-4.97,2.16-6.19,2.75s-2.01,3.24-2.58,4.46"/>
    <path class="cls-2" d="M137.24,100.23c-4.31,2.39-9.83,2.42-14.16.08,1.49-1.98,4.02-3,6.49-3.06s4.9.78,7.08,1.96c.2.11.41.23.65.25.47.04.87-.33,1.2-.66,2.67-2.64,5.82-4.78,9.25-6.3-1,4.54-5.71,7.94-10.34,7.44"/>
    <path class="cls-2" d="M138.18,103.56c.84,1.2,1.89,2.15,2.94,3.15.94.89,1.58,1.69,2.14,2.86.49,1.03.91,2.11,1.6,3.03.43.59.9,1.08,1.5,1.49.25.17.52.29.78.44.03.02.36.18.24.13-.06-.06-.04-.04.08.07-.08-.11-.08-.09,0,.07.34.74,1.4.92,2.05.54.76-.44.88-1.31.54-2.05s-1.01-1.13-1.68-1.48c-.13-.07-.26-.15-.39-.22-.22-.12,0,.03-.1-.07-.2-.17-.38-.36-.55-.56.17.21-.08-.12-.11-.16-.08-.12-.16-.25-.23-.37-.15-.26-.29-.52-.42-.79-.25-.52-.48-1.05-.73-1.57-.57-1.2-1.34-2.23-2.29-3.16s-2.09-1.84-2.8-2.86c-.46-.66-1.31-.97-2.05-.54-.66.38-1,1.38-.54,2.05h0Z"/>
    <path class="cls-2" d="M147.52,114.77c1.62,2.77,2.5,5.9,4.19,8.63,1.4,2.26,3.57,4.51,3.9,7.26.1.8.62,1.5,1.5,1.5.73,0,1.6-.69,1.5-1.5-.39-3.25-2.31-5.66-4.03-8.33-1.84-2.85-2.77-6.15-4.47-9.07-.97-1.67-3.57-.16-2.59,1.51h0Z"/>
    <path class="cls-2" d="M143.36,107.05c-3.04-.78-6.32-.62-9.27.45,1.2,1.27,3.06,1.73,4.79,1.6s3.39-.78,4.99-1.45"/>
    <path class="cls-2" d="M145.35,110.52c-.1-.85.32-1.66.8-2.37,1.3-1.92,3.11-3.46,5.03-4.76.06,1.63-.78,3.18-1.92,4.34s-2.58,1.97-4,2.77"/>
    <g>
      <path class="cls-1" d="M157.87,130.45c-.54-2.29-2.18-4.13-3.52-6.06-1.66-2.38-2.94-5.01-4.13-7.66-.52-1.16-1.04-2.36-1.91-3.29-.65-.7-1.69-1.04-2.17-1.87-.45-.78-.78-1.8-1.5-2.37.45.81.9,1.63,1.35,2.44.32.57.64,1.15,1.05,1.66.36.43.78.81,1.16,1.22,1.89,2.07,2.52,4.97,3.85,7.44,1,1.85,2.4,3.47,3.41,5.32.69,1.28,1.18,2.65,1.67,4.02.38-.12.52-.52.73-.85"/>
      <path class="cls-1" d="M159.31,130.05c-.55-2.1-1.79-3.82-3.05-5.55-1.42-1.95-2.61-4.02-3.66-6.19-.97-2.01-1.69-4.44-3.33-6.04-.59-.57-1.46-.9-1.91-1.59-.57-.88-.86-1.81-1.66-2.54-1.25-1.14-3.2.29-2.36,1.82,1.03,1.86,1.95,3.72,3.45,5.26,1.39,1.42,2.09,3.26,2.85,5.06.82,1.96,1.84,3.67,3.04,5.42,1.31,1.9,2.23,3.84,3,6,.33.92,1.31,1.39,2.2.9.6-.33.93-.81,1.27-1.39.99-1.66-1.6-3.17-2.59-1.51-.05.11-.12.22-.2.31l2.2.9c-.76-2.13-1.6-4.17-2.86-6.06s-2.46-3.61-3.32-5.68c-.78-1.86-1.51-3.72-2.8-5.3-.64-.78-1.4-1.41-1.93-2.29-.61-1.02-1.16-2.09-1.74-3.13l-2.36,1.82c.65.59.87,1.47,1.35,2.19.51.78,1.26,1.17,1.97,1.73,1.6,1.27,2.25,3.87,3.12,5.65.97,2,2.05,3.95,3.35,5.76,1.19,1.66,2.54,3.26,3.06,5.27.49,1.87,3.38,1.07,2.89-.8h0Z"/>
    </g>
  </g>
</svg>