<?xml version="1.0" encoding="UTF-8"?>
<svg id="Layer_1" data-name="Layer 1" xmlns="http://www.w3.org/2000/svg" viewBox="0 0 63.94 112.21">
  <defs>
    <style>
      .cls-1 {
        fill: #67af44;
      }
    </style>
  </defs>
  <path class="cls-1" d="M36.35,66.83c-4.62-9.22-12.56-16.29-18.46-24.75C10.13,30.97-.28,17,0,3.45c11,2.73,25.53,12.72,29.62,23.29,4.09,10.57,6.15,28.77,6.72,40.09-.47-11.94-2.36-30.81,1.09-42.25C40.29,15.16,56.08,6.55,63.42,0c3.95,23.94-15.53,45.49-27.07,66.83"/>
  <path class="cls-1" d="M35.27,63.38c.34,15.79.67,31.59,1.01,47.38.04,1.93,3.04,1.93,3,0-.34-15.79-.67-31.59-1.01-47.38-.04-1.93-3.04-1.93-3,0h0Z"/>
</svg>