<?xml version="1.0" encoding="UTF-8"?>
<svg id="Layer_1" data-name="Layer 1" xmlns="http://www.w3.org/2000/svg" viewBox="0 0 332.24 536.51">
  <defs>
    <style>
      .cls-1 {
        fill: #7b4d38;
      }

      .cls-2 {
        fill: #67af44;
      }
    </style>
  </defs>
  <g>
    <path class="cls-1" d="M168.5,291.75c-10.96,7.03-12.62,22.1-13.2,35.11-3.04,67.39-7.42,134.72-13.14,201.94-.17,1.97-.15,4.34,1.51,5.41.82.52,1.84.57,2.81.61,1.8.06,3.61.12,5.41.19.94.03,1.94.05,2.73-.45,1.41-.88,1.51-2.86,1.44-4.53-1.19-30.2-3.65-60.55-.19-90.57,1.26-10.97,3.31-21.84,4.47-32.83,2.77-26.22.45-52.67.49-79.03.01-8.09.34-16.53,4.21-23.63,2.11-3.86,5.34-7.85,4.27-12.12"/>
    <path class="cls-1" d="M167.75,290.45c-10.95,7.15-13.04,21.19-13.78,33.23-1.05,17.22-1.65,34.48-2.59,51.71s-2.03,35.5-3.19,53.24-2.4,35.31-3.73,52.95c-.67,8.86-1.37,17.73-2.08,26.59-.36,4.39-.72,8.78-1.08,13.16-.19,2.24-.38,4.47-.57,6.71-.13,1.59-.29,3.27.23,4.81,1.33,4,5.82,3.45,9.23,3.57,1.83.06,3.9.36,5.48-.78,1.32-.96,1.78-2.53,1.9-4.09.15-1.89-.07-3.84-.15-5.73-.09-2.22-.19-4.43-.3-6.65-.2-4.44-.42-8.87-.62-13.31-.78-17.47-1.35-34.98-.31-52.45.52-8.76,1.57-17.45,2.86-26.13s2.6-17.18,3.31-25.84c1.42-17.5.8-35.07.34-52.6-.22-8.6-.53-17.24-.27-25.84.12-3.85.43-7.7,1.35-11.45s2.72-7.02,4.67-10.4c1.74-3,3.12-6.21,2.34-9.73-.42-1.88-3.31-1.09-2.89.8.77,3.47-1.64,6.73-3.31,9.55-1.88,3.19-3.22,6.61-3.99,10.23-1.61,7.59-1.29,15.52-1.19,23.23.22,17.06,1.13,34.11.71,51.17-.21,8.45-.78,16.89-1.85,25.28s-2.5,16.71-3.56,25.09c-2.12,16.86-2.35,33.87-1.9,50.84.23,8.47.61,16.93,1.01,25.39.2,4.27.4,8.54.58,12.81.08,1.88.35,3.86.15,5.73-.06.54-.15,1.22-.59,1.6-.68.6-1.99.33-2.81.3-.98-.03-1.97-.07-2.95-.1s-2.2.07-3.19-.22c-1.44-.43-1.46-2.09-1.42-3.35.12-4.14.68-8.31,1.02-12.43.71-8.61,1.4-17.22,2.07-25.84,1.33-17.15,2.58-34.3,3.74-51.46,1.15-17.08,2.22-34.16,3.2-51.24.98-17.17,1.88-34.34,2.69-51.52.34-7.15.4-14.38,1.39-21.48.81-5.86,2.27-11.86,5.58-16.85,1.57-2.37,3.6-4.39,5.98-5.95,1.61-1.05.11-3.65-1.51-2.59h0Z"/>
  </g>
  <g>
    <path class="cls-1" d="M166.78,292.77c8.58-11.01,17.87-21.46,27.79-31.28,6.07-4.2-.09,4.75-1.34,6.83-7.65,12.73-18.4,23.25-29.03,33.62"/>
    <path class="cls-1" d="M167.84,293.83c4.63-5.93,9.46-11.71,14.49-17.31,2.41-2.68,4.86-5.33,7.36-7.93,1.3-1.36,2.62-2.7,3.94-4.04.55-.55,1.08-1.14,1.66-1.66.39-.35,1.07-.63,1.37-.93.32-.32.1.11.1-.07,0,.16-1.22-1.06-1.07-1.05,0,0,.02-.04,0,0-.05.09-.06.24-.1.34-.26.67-.67,1.45-1.07,2.16-.78,1.37-1.65,2.68-2.47,4.02-3.65,5.91-7.79,11.4-12.4,16.6-5.23,5.9-10.88,11.42-16.52,16.92-1.38,1.35.74,3.47,2.12,2.12,10.85-10.59,21.43-21.3,29.46-34.25.96-1.55,1.98-3.08,2.84-4.7.66-1.25,1.86-3.39.57-4.65-1.86-1.8-4.78,1.17-5.96,2.35-2.88,2.88-5.71,5.82-8.48,8.81-6.29,6.79-12.28,13.84-17.98,21.14-1.17,1.5.93,3.64,2.12,2.12h0Z"/>
  </g>
  <g>
    <path class="cls-1" d="M170.78,288.94c-.8,2.57-2.48,4.87-4.68,6.42-9.57-9.43-19.39-19.23-24.37-31.71-1.43-3.6-2.83-7.81-6.42-9.27,1.35,10.05,8.32,18.26,14.22,26.51,5.9,8.25,11.15,18.37,8.45,28.15"/>
    <path class="cls-1" d="M169.33,288.54c-.73,2.21-2.11,4.15-3.99,5.53l1.82.23c-5.1-5.03-10.21-10.09-14.7-15.69-2.23-2.78-4.27-5.7-6.05-8.79s-2.96-6.04-4.26-9.17-2.91-6.18-6.08-7.57c-1.27-.55-2.39.35-2.2,1.69,2.27,15.97,17.03,25.96,21.95,40.82,1.4,4.24,1.88,8.68.72,13.04-.5,1.87,2.4,2.66,2.89.8,4.48-16.9-10.53-29.93-18.15-43.12-2.22-3.84-3.89-7.92-4.52-12.33l-2.2,1.69c2.68,1.17,3.93,3.86,4.96,6.43,1.25,3.1,2.53,6.15,4.2,9.05,3.5,6.12,8.05,11.59,12.87,16.71,2.75,2.92,5.6,5.74,8.46,8.56.43.43,1.29.62,1.82.23,2.55-1.86,4.38-4.32,5.37-7.32.61-1.84-2.29-2.63-2.89-.8h0Z"/>
  </g>
  <path class="cls-1" d="M138.17,260.36c1.93,0,1.93-3,0-3s-1.93,3,0,3h0Z"/>
  <path class="cls-1" d="M137.44,259.09c1.93,0,1.93-3,0-3s-1.93,3,0,3h0Z"/>
  <path class="cls-2" d="M181.53,69.54c-5.16-10.3-19.36-23.59-30.02-27.96-16.59-6.81-22.24-19.9-21.92-35.03,12.29,3.05,39.86,6.4,44.43,18.21,4.57,11.81,6.87,32.14,7.51,44.79-.53-13.34,7.43-27.4,11.3-40.18,3.18-10.52,23.69-22.04,31.89-29.36,10.12,25.78-24.97,48.04-43.19,69.54"/>
  <path class="cls-2" d="M180.5,65.69c.38,17.64.75,35.28,1.13,52.92.04,1.93,3.04,1.93,3,0-.38-17.64-.75-35.28-1.13-52.92-.04-1.93-3.04-1.93-3,0h0Z"/>
  <path class="cls-2" d="M241.74,63.41c.94-.07-1.61,23.27-7.1,27.79s-7.1,9.41-13.73,11.97c-12.17,4.69-24.34,9.38-36.5,14.06-1.02.39-2.12.84-2.72,1.76"/>
  <path class="cls-2" d="M182.82,118.74c-1.33-9.99-8.76-18.34-17.51-23.35s-38.19-10.38-48.05-12.52c2.48,9.32,26.52,23.78,35.34,27.66,8.82,3.88,22.83,1.42,29.82,8.06,2.49-4.2,4.99-8.4,7.48-12.6,5.15-8.68,10.54-17.62,18.79-23.44,10.54-7.44,20.18-18.15,33.05-19.15"/>
  <path class="cls-2" d="M181.57,117.86c.65,13.66-.92,27.53-3.51,40.92-.7,3.64-1.51,7.27-2.45,10.85-.49,1.87,2.4,2.67,2.89.8,3.52-13.42,5.52-27.4,6.08-41.26.15-3.77.17-7.55,0-11.31-.09-1.92-3.09-1.93-3,0h0Z"/>
  <path class="cls-2" d="M181.71,74.56c-10.61,3.46-36.24-7.35-45.01-14.24,5.39-1.31,22.22-1.02,27.77-1.07,5.55-.05,13.25,8.3,17.58,11.78"/>
  <path class="cls-2" d="M182.31,149.56c20.19,1.02,40.61-8.87,52.33-25.35-9.07-4.59-20.24-3.8-29.45.49-9.21,4.29-16.64,11.75-22.53,20.03-.55.78-1.12,1.59-1.94,2.07-1.67.99-3.79.36-5.63-.26-14.61-4.89-30.11-7.1-45.5-6.49,11.89,14.92,35.42,18.9,51.56,8.72"/>
  <path class="cls-2" d="M177.31,162.69c-1.28,8.66-6.19,16.27-7.51,24.91-1.12,7.36.9,15.04-1.14,22.27-.58,2.04-1.55,3.81-2.83,5.49-1.36,1.77-2.6,3.68-2.47,6,.11,1.92,3.11,1.93,3,0-.11-2.04,1.4-3.56,2.53-5.1,1.05-1.43,1.84-3.05,2.4-4.73,1.16-3.47,1.3-7.23,1.26-10.86s-.33-7.52.03-11.26c.4-4.14,1.89-8.14,3.35-12,1.73-4.55,3.56-9.09,4.27-13.93.28-1.89-2.61-2.7-2.89-.8h0Z"/>
  <path class="cls-2" d="M163.12,221.3c-.8,10.41.62,20.8.58,31.21s-2.45,19.6-2.97,29.5c-.29,5.42.15,10.9,2,16.03.65,1.8,3.55,1.02,2.89-.8-3.32-9.22-1.7-19.06-.34-28.49.69-4.83,1.31-9.66,1.4-14.54.1-5.17-.21-10.33-.47-15.49-.3-5.8-.53-11.61-.08-17.41.15-1.93-2.85-1.92-3,0h0Z"/>
  <path class="cls-2" d="M172.1,185.78c9.8-8.37,22.17-13.71,34.98-15.11-2.12,6.83-8.13,11.91-14.76,14.59s-13.89,3.28-21.03,3.69"/>
  <path class="cls-2" d="M171.05,202.17c-1.17-3.3-4.2-5.55-7.24-7.28-8.28-4.73-17.71-7.14-27.16-8.44,2.71,6.1,8.62,10.33,14.93,12.51s13.08,2.6,19.75,2.97"/>
  <g>
    <path class="cls-1" d="M160.98,298.24c-2.15-9.42.54-19.16,2.02-28.71,1.82-11.79,1.76-23.78,1.34-35.69-.18-5.23-.42-10.57,1.07-15.59,1.11-3.76,4.35-6.89,4.63-10.81.27-3.68-.38-8.06,1.24-11.46-.19,3.82-.37,7.64-.56,11.45-.13,2.69-.26,5.39-.89,8.01-.53,2.24-1.42,4.38-2.07,6.59-3.23,11.05-.29,22.87-.73,34.37-.33,8.64-2.58,17.13-2.92,25.77-.24,5.97.44,11.92,1.11,17.86-1.61.25-2.84-.96-4.24-1.79"/>
    <path class="cls-1" d="M162.43,297.84c-1.52-6.91-.42-13.98.8-20.84s2.24-13.83,2.61-20.86.27-14.22.04-21.32c-.21-6.45-.85-13.46,2.4-19.31,1.51-2.72,3.1-5.28,3.29-8.47.21-3.39-.42-7.11,1.01-10.31l-2.8-.76c-.18,3.65-.35,7.3-.53,10.96-.16,3.36-.36,6.65-1.35,9.88s-2.11,6.25-2.6,9.57-.61,6.56-.54,9.86c.15,6.72,1.04,13.43.78,20.16s-1.71,13.5-2.48,20.26c-.89,7.84-.22,15.56.67,23.36l1.5-1.5c-1.34.12-2.4-.92-3.48-1.59-1.65-1.02-3.16,1.58-1.51,2.59s3.03,2.17,5,2c.74-.07,1.6-.64,1.5-1.5-.78-6.89-1.51-13.79-.93-20.73s2.09-13.62,2.61-20.5-.26-13.48-.56-20.22c-.14-3.25-.17-6.51.15-9.74s1.23-6.51,2.3-9.69c1.22-3.61,1.71-7.21,1.9-11,.2-4.05.39-8.11.59-12.17.07-1.42-2.18-2.13-2.8-.76-1.33,2.98-1.35,6.14-1.36,9.35,0,1.38.05,2.79-.32,4.12-.39,1.41-1.12,2.68-1.85,3.95-1.57,2.76-2.74,5.4-3.24,8.56-.54,3.42-.55,6.86-.45,10.31.22,7.31.45,14.61.19,21.92s-1.1,14.26-2.37,21.34c-1.41,7.88-2.8,15.9-1.05,23.85.41,1.88,3.31,1.09,2.89-.8h0Z"/>
  </g>
  <g>
    <path class="cls-2" d="M273.39,200.96c8.3-.95,22,2.41,28.88,7.15,10.71,7.38,20.9,5.63,29.97-.57-6.72-6.26-19.68-21.68-28.67-19.78-8.98,1.9-22.25,8.56-30.18,13.19,8.31-4.97,13.7-15.37,19.93-22.79,5.13-6.1,4-23.13,5.2-31.01-19.68,4.07-19.29,34.21-25.13,53.8"/>
    <path class="cls-2" d="M274.79,197.85c-10.87,6.76-21.73,13.53-32.6,20.29-1.64,1.02-.13,3.61,1.51,2.59,10.87-6.76,21.73-13.53,32.6-20.29,1.64-1.02.13-3.61-1.51-2.59h0Z"/>
    <path class="cls-2" d="M253.26,161.95c-.33-.6-13.5,10.2-14.07,15.33s-2.91,8.04-1.83,13.09c1.97,9.25,3.95,18.5,5.92,27.75.17.78.33,1.62,0,2.35"/>
    <path class="cls-2" d="M242.99,219.67c6.6-3.15,14.61-1.95,21.12,1.38s21.44,19.09,26.64,24.23c-6.64,2.19-24.96-6.69-30.81-10.51-5.85-3.82-9.91-13.31-16.71-14.92,1.56-3.18,3.13-6.36,4.69-9.54,3.23-6.57,6.53-13.39,6.8-20.7.34-9.36,3.03-19.45-1.46-27.66"/>
    <path class="cls-2" d="M242.67,217.88c-5.54,3.25-10.7,7.14-15.62,11.25s-9.67,8.55-14,13.32c-1.29,1.43.82,3.55,2.12,2.12,8.39-9.24,18.23-17.77,29.01-24.1,1.66-.98.16-3.57-1.51-2.59h0Z"/>
    <path class="cls-2" d="M270.28,202.84c2.1,7.82,18.82,19.1,26.49,21.7-1.34-3.79-8.18-13.91-10.35-17.3s-10.3-4.76-14.12-6.01"/>
    <path class="cls-2" d="M224.47,232.19c-8.62-11.86-10.71-28.19-5.34-41.84,6.38,3.69,10.33,10.79,11.38,18.09,1.04,7.3-.54,14.76-3.24,21.62-.25.64-.52,1.31-.49,2,.06,1.41,1.28,2.44,2.39,3.32,8.76,6.94,16.24,15.48,21.97,25.07-13.78-1.31-25.52-14.03-25.73-27.87"/>
    <path class="cls-2" d="M216.6,238.65c-6.14,5.38-11.02,12.05-17.02,17.58-1.42,1.31.7,3.43,2.12,2.12,6-5.53,10.88-12.19,17.02-17.58,1.45-1.28-.67-3.39-2.12-2.12h0Z"/>
    <path class="cls-2" d="M206.51,252.75c1.2-9.27-.45-18.9-4.69-27.24-3.31,3.99-4.02,9.66-3.01,14.75,1,5.09,3.52,9.74,6.1,14.24"/>
    <path class="cls-2" d="M196.98,259.88c2.47-.59,5.04.36,7.29,1.51,6.16,3.16,11.35,7.93,15.89,13.15-4.78.77-9.69-1.14-13.52-4.11-3.83-2.97-6.76-6.91-9.63-10.82"/>
    <g>
      <path class="cls-1" d="M194.17,262.59c2.13-1.62,5.04-2.96,6.47-5.29-2.25,1.63-4.49,3.25-6.74,4.88"/>
      <path class="cls-1" d="M194.93,263.88c2.43-1.84,5.34-3.16,7.01-5.83.34-.54.24-1.38-.23-1.82s-1.27-.63-1.82-.23c-2.25,1.63-4.49,3.25-6.74,4.88-.63.46-1.01,1.33-.54,2.05.41.63,1.37,1.03,2.05.54,2.25-1.63,4.49-3.25,6.74-4.88l-2.05-2.05c-.09.14-.18.27-.27.41-.19.28.21-.26,0,0-.04.05-.08.1-.12.15-.22.26-.47.51-.72.75s-.5.45-.76.66c-.16.13-.11.06.02-.02-.08.05-.17.13-.25.18-.14.1-.28.2-.42.3-1.13.79-2.32,1.49-3.41,2.32-.32.25-.58.49-.69.9-.1.36-.05.84.15,1.16.4.62,1.38,1.04,2.05.54h0Z"/>
    </g>
  </g>
  <g>
    <path class="cls-2" d="M58.85,193.8c-8.3-.95-22,2.41-28.88,7.15-10.71,7.38-20.9,5.63-29.97-.57,6.72-6.26,19.68-21.68,28.67-19.78,8.98,1.9,22.25,8.56,30.18,13.19-8.31-4.97-13.7-15.37-19.93-22.79-5.13-6.1-4-23.13-5.2-31.01,19.68,4.07,19.29,34.21,25.13,53.8"/>
    <path class="cls-2" d="M55.94,193.28c10.87,6.76,21.73,13.53,32.6,20.29,1.64,1.02,3.15-1.57,1.51-2.59-10.87-6.76-21.73-13.53-32.6-20.29-1.64-1.02-3.15,1.57-1.51,2.59h0Z"/>
    <path class="cls-2" d="M78.99,154.79c.33-.6,13.5,10.2,14.07,15.33s2.91,8.04,1.83,13.09c-1.97,9.25-3.95,18.5-5.92,27.75-.17.78-.33,1.62,0,2.35"/>
    <path class="cls-2" d="M89.25,212.51c-6.6-3.15-14.61-1.95-21.12,1.38s-21.44,19.09-26.64,24.23c6.64,2.19,24.96-6.69,30.81-10.51,5.85-3.82,9.91-13.31,16.71-14.92-1.56-3.18-3.13-6.36-4.69-9.54-3.23-6.57-6.53-13.39-6.8-20.7-.34-9.36-3.03-19.45,1.46-27.66"/>
    <path class="cls-2" d="M88.06,213.31c10.78,6.34,20.62,14.86,29.01,24.1,1.3,1.43,3.42-.69,2.12-2.12-4.33-4.77-9.05-9.19-14-13.32s-10.08-8-15.62-11.25c-1.67-.98-3.18,1.61-1.51,2.59h0Z"/>
    <path class="cls-2" d="M61.97,195.68c-2.1,7.82-18.82,19.1-26.49,21.7,1.34-3.79,8.18-13.91,10.35-17.3s10.3-4.76,14.12-6.01"/>
    <path class="cls-2" d="M107.77,225.03c8.62-11.86,10.71-28.19,5.34-41.84-6.38,3.69-10.33,10.79-11.38,18.09s.54,14.76,3.24,21.62c.25.64.52,1.31.49,2-.06,1.41-1.28,2.44-2.39,3.32-8.76,6.94-16.24,15.48-21.97,25.07,13.78-1.31,25.52-14.03,25.73-27.87"/>
    <path class="cls-2" d="M113.52,233.62c6.14,5.38,11.02,12.05,17.02,17.58,1.42,1.31,3.54-.81,2.12-2.12-6-5.53-10.88-12.19-17.02-17.58-1.45-1.27-3.58.85-2.12,2.12h0Z"/>
    <path class="cls-2" d="M125.73,245.59c-1.2-9.27.45-18.9,4.69-27.24,3.31,3.99,4.02,9.66,3.01,14.75s-3.52,9.74-6.1,14.24"/>
    <path class="cls-2" d="M135.27,252.72c-2.47-.59-5.04.36-7.29,1.51-6.16,3.16-11.35,7.93-15.89,13.15,4.78.77,9.69-1.14,13.52-4.11s6.76-6.91,9.63-10.82"/>
    <g>
      <path class="cls-1" d="M138.07,257.03c-1.57-2.17-5.04-4.57-6.47-6.9,2.25,1.63,4.49,4.85,6.74,6.48"/>
      <path class="cls-1" d="M139.37,256.27c-.99-1.35-2.22-2.48-3.44-3.62-.61-.57-1.22-1.15-1.8-1.75-.26-.27-.51-.55-.75-.84-.06-.08-.12-.15-.18-.23.27.32.06.07,0,0-.11-.15-.21-.3-.3-.46l-2.05,2.05s.08.06.12.09c.09.07.05.04-.11-.08.07.03.14.11.2.16.15.12.29.24.43.37.28.25.55.51.82.78.58.58,1.13,1.18,1.68,1.78,1.12,1.21,2.25,2.41,3.59,3.39.64.47,1.7.13,2.05-.54.41-.78.14-1.56-.54-2.05-.04-.03-.08-.06-.12-.09-.09-.07-.05-.04.11.08-.07-.03-.14-.11-.2-.16-.15-.12-.29-.24-.43-.37-.28-.25-.55-.51-.82-.78-.58-.58-1.13-1.18-1.68-1.78-1.12-1.21-2.25-2.41-3.59-3.39-.51-.37-1.4-.22-1.82.23-.44.48-.6,1.24-.23,1.82.89,1.42,2.12,2.6,3.34,3.74.61.57,1.23,1.14,1.82,1.73.27.26.53.53.78.81.13.14.26.29.38.43.05.07.11.16.17.21l-.12-.16s.07.09.1.14c.46.63,1.32,1.01,2.05.54.63-.4,1.03-1.37.54-2.05h0Z"/>
    </g>
  </g>
</svg>