<?xml version="1.0" encoding="UTF-8"?>
<svg id="Layer_1" data-name="Layer 1" xmlns="http://www.w3.org/2000/svg" viewBox="0 0 275.75 535.36">
  <defs>
    <style>
      .cls-1 {
        fill: #7b4d38;
      }

      .cls-2 {
        fill: #67af44;
      }
    </style>
  </defs>
  <g>
    <g>
      <path class="cls-1" d="M139.85,242.14c-9.1,5.84-10.47,18.34-10.96,29.14-2.52,55.93-6.16,111.81-10.91,167.6-.14,1.63-.12,3.6,1.26,4.49.68.44,1.53.48,2.34.5,1.5.05,2.99.1,4.49.16.78.03,1.61.04,2.27-.37,1.17-.73,1.25-2.38,1.2-3.76-.99-25.07-3.03-50.25-.15-75.17,1.05-9.11,2.75-18.13,3.71-27.24,2.3-21.76.37-43.71.41-65.59.01-6.71.28-13.72,3.5-19.61,1.75-3.21,4.43-6.52,3.54-10.06"/>
      <path class="cls-1" d="M139.09,240.84c-9.11,5.97-10.92,17.56-11.55,27.61-.9,14.37-1.38,28.77-2.16,43.14-1.61,29.53-3.54,59.04-5.78,88.53-.57,7.45-1.15,14.91-1.76,22.36-.3,3.64-.6,7.29-.9,10.93-.15,1.82-.32,3.64-.46,5.46-.09,1.23-.1,2.52.34,3.69,1.24,3.3,5.12,2.81,8,2.91,1.42.05,3,.24,4.27-.53,1.21-.73,1.74-2.06,1.89-3.41s0-2.74-.05-4.1c-.08-1.97-.17-3.93-.26-5.9-.16-3.61-.34-7.22-.5-10.83-.66-14.57-1.16-29.18-.33-43.75.42-7.4,1.28-14.73,2.37-22.06s2.16-14.2,2.76-21.35c1.22-14.6.7-29.26.32-43.89-.19-7.21-.45-14.45-.23-21.66.1-3.16.36-6.32,1.12-9.4s2.21-5.71,3.8-8.46c1.5-2.59,2.66-5.3,2.01-8.33-.41-1.89-3.3-1.09-2.89.8.64,2.98-1.59,5.76-2.99,8.19-1.48,2.57-2.5,5.35-3.1,8.25-1.31,6.29-1.05,12.86-.96,19.25.19,14.15.94,28.3.59,42.46-.17,6.98-.64,13.94-1.52,20.87s-2.06,13.76-2.93,20.66c-1.78,13.99-1.98,28.1-1.61,42.18.18,7.06.51,14.11.84,21.16.16,3.44.32,6.89.47,10.33.07,1.57.23,3.18.17,4.75-.02.46,0,1.18-.35,1.54-.46.48-1.53.27-2.12.25-1.54-.05-3.28.1-4.81-.18-1.4-.27-1.37-1.58-1.32-2.78.14-3.45.57-6.91.86-10.35.58-7.04,1.15-14.07,1.69-21.11,2.21-28.49,4.14-57,5.77-85.53.81-14.1,1.54-28.2,2.21-42.31.28-5.95.34-11.96,1.13-17.88.66-4.88,1.85-9.88,4.6-14.04,1.29-1.95,2.95-3.61,4.9-4.89,1.61-1.05.11-3.65-1.51-2.59h0Z"/>
    </g>
    <g>
      <path class="cls-1" d="M138.42,242.98c7.12-9.13,14.83-17.81,23.06-25.96,5.04-3.48-.07,3.94-1.11,5.67-6.35,10.56-15.27,19.29-24.09,27.9"/>
      <path class="cls-1" d="M139.48,244.04c3.76-4.81,7.67-9.5,11.74-14.05,2.09-2.33,4.22-4.63,6.38-6.89.98-1.02,1.96-2.03,2.95-3.03.55-.55,1.08-1.15,1.66-1.66.32-.28.9-.48,1.16-.79-.03.03.07-.14.02-.03-.19.5-1.42-1-1.23-1.07-.08.03.27-.21,0-.05-.05.03-.09.3-.12.36-.16.45-.55,1.14-.85,1.65-.65,1.14-1.37,2.23-2.06,3.35-2.99,4.86-6.41,9.38-10.2,13.65-4.35,4.9-9.03,9.48-13.71,14.05-1.38,1.35.74,3.47,2.12,2.12,9.07-8.85,17.83-17.8,24.57-28.6.81-1.3,1.66-2.57,2.36-3.93.59-1.15,1.49-2.91.33-4.02-1.64-1.56-4.1.77-5.18,1.85-2.44,2.43-4.82,4.92-7.16,7.44-5.21,5.63-10.18,11.48-14.9,17.52-1.17,1.5.93,3.64,2.12,2.12h0Z"/>
    </g>
    <g>
      <path class="cls-1" d="M141.74,239.81c-.67,2.14-2.06,4.04-3.89,5.33-7.94-7.82-16.09-15.96-20.22-26.32-1.19-2.99-2.35-6.48-5.33-7.7,1.12,8.34,6.91,15.15,11.8,22,4.89,6.85,9.26,15.25,7.01,23.36"/>
      <path class="cls-1" d="M140.29,239.41c-.59,1.77-1.69,3.33-3.2,4.44l1.82.23c-5.42-5.34-10.91-10.74-15.18-17.07-2.07-3.06-3.74-6.29-5.1-9.72-1.15-2.92-2.52-6.1-5.57-7.45-1.26-.56-2.4.35-2.2,1.69,1.18,8.21,6.5,14.84,11.22,21.35s9.81,14.76,7.59,23.22c-.49,1.87,2.4,2.67,2.89.8,2.28-8.68-2.02-17.23-6.92-24.17-4.8-6.81-10.67-13.45-11.9-21.99l-2.2,1.69c2.96,1.31,3.81,4.83,4.96,7.57,1.42,3.38,3.23,6.56,5.35,9.56,4.32,6.11,9.63,11.41,14.94,16.65.43.43,1.29.62,1.82.23,2.17-1.6,3.72-3.66,4.58-6.23.61-1.84-2.28-2.62-2.89-.8h0Z"/>
    </g>
    <path class="cls-1" d="M114.67,216.34c1.93,0,1.93-3,0-3s-1.93,3,0,3h0Z"/>
    <path class="cls-1" d="M114.07,215.29c1.93,0,1.93-3,0-3s-1.93,3,0,3h0Z"/>
    <path class="cls-2" d="M150.66,57.72c-4.28-8.55-16.07-19.58-24.91-23.21-13.77-5.65-18.46-16.51-18.19-29.07,10.2,2.53,33.08,5.31,36.87,15.11,3.79,9.8,5.7,26.67,6.23,37.17-.44-11.07,6.17-22.74,9.38-33.35,2.64-8.73,19.66-18.29,26.47-24.37,8.4,21.4-20.73,39.87-35.84,57.72"/>
    <path class="cls-2" d="M149.55,54.52c.31,14.64.62,29.28.94,43.92.04,1.93,3.04,1.93,3,0-.31-14.64-.62-29.28-.94-43.92-.04-1.93-3.04-1.93-3,0h0Z"/>
    <path class="cls-2" d="M200.64,52.63c.78-.06-1.34,19.31-5.89,23.07-4.55,3.75-5.89,7.81-11.4,9.94-10.1,3.89-20.2,7.78-30.3,11.67-.85.33-1.76.7-2.26,1.46"/>
    <path class="cls-2" d="M151.74,98.55c-1.1-8.29-7.27-15.22-14.53-19.38s-31.7-8.62-39.88-10.39c2.06,7.73,22.01,19.74,29.33,22.96,7.32,3.22,18.95,1.18,24.75,6.69,2.07-3.49,4.14-6.97,6.21-10.46,4.28-7.2,8.75-14.62,15.59-19.45,8.75-6.18,16.75-15.06,27.43-15.89"/>
    <path class="cls-2" d="M150.44,97.82c.34,7.2-.14,14.44-.99,21.6-.85,7.17-2.13,14.32-3.96,21.31-.49,1.87,2.4,2.67,2.89.8,1.86-7.12,3.13-14.39,4.01-21.69.88-7.29,1.38-14.67,1.04-22.02-.09-1.92-3.09-1.93-3,0h0Z"/>
    <path class="cls-2" d="M150.81,61.88c-8.81,2.87-30.08-6.1-37.36-11.82,4.47-1.08,18.44-.85,23.05-.89s11,6.89,14.59,9.77"/>
    <path class="cls-2" d="M151.31,124.13c16.76.85,33.71-7.36,43.43-21.04-7.53-3.81-16.8-3.16-24.44.4s-13.81,9.75-18.7,16.62c-.46.64-.93,1.32-1.61,1.72-1.39.82-3.14.3-4.67-.22-12.13-4.05-24.99-5.89-37.76-5.38,9.87,12.39,29.4,15.69,42.79,7.24"/>
    <path class="cls-2" d="M146.91,134.96c-.69,4.63-2.6,8.91-4.18,13.27-1.49,4.11-2.39,8.19-2.39,12.57,0,3.96.49,8.04-.29,11.97-.38,1.91-1.07,3.7-2.22,5.28-1.27,1.75-2.62,3.38-2.51,5.67.09,1.92,3.09,1.93,3,0-.09-2.11,1.94-3.68,2.9-5.39s1.54-3.57,1.85-5.48c.62-3.87.3-7.77.27-11.67-.03-4.27.82-8.15,2.28-12.15,1.59-4.37,3.49-8.64,4.18-13.27.28-1.89-2.61-2.7-2.89-.8h0Z"/>
    <path class="cls-2" d="M135.13,183.67c-.66,8.62.51,17.23.48,25.85-.03,8.25-2.02,16.27-2.46,24.48-.24,4.54.12,9.12,1.66,13.42.65,1.8,3.55,1.03,2.89-.8-2.75-7.66-1.39-15.81-.27-23.65.58-4.07,1.09-8.14,1.16-12.25.07-4.19-.18-8.38-.4-12.57-.25-4.83-.44-9.66-.07-14.49.15-1.93-2.85-1.92-3,0h0Z"/>
    <path class="cls-2" d="M142.84,154.19c8.14-6.95,18.4-11.38,29.03-12.54-1.76,5.67-6.75,9.89-12.25,12.11-5.5,2.22-11.53,2.72-17.46,3.06"/>
    <path class="cls-2" d="M141.96,167.79c-.97-2.74-3.49-4.6-6.01-6.04-6.87-3.93-14.7-5.92-22.54-7,2.25,5.07,7.15,8.57,12.39,10.39,5.24,1.82,10.85,2.16,16.39,2.46"/>
    <g>
      <path class="cls-1" d="M133.61,247.53c-1.79-7.82.45-15.9,1.67-23.83,1.51-9.78,1.46-19.73,1.11-29.62-.15-4.34-.35-8.77.88-12.94.92-3.12,3.61-5.72,3.85-8.97.22-3.05-.31-6.69,1.03-9.51-.15,3.17-.31,6.34-.46,9.51-.11,2.23-.22,4.47-.74,6.65-.44,1.86-1.18,3.64-1.72,5.47-2.68,9.17-.24,18.98-.61,28.53-.28,7.17-2.14,14.21-2.43,21.39-.2,4.95.36,9.9.92,14.82-1.33.21-2.36-.8-3.52-1.49"/>
      <path class="cls-1" d="M135.06,247.13c-1.24-5.7-.34-11.52.67-17.18s1.87-11.52,2.17-17.37.23-11.85.03-17.77c-.18-5.4-.67-11.14,2.07-16.02,1.26-2.25,2.5-4.37,2.66-7.01s-.35-5.78.8-8.37l-2.8-.76c-.14,2.85-.28,5.7-.42,8.56s-.25,5.71-1.08,8.47c-.78,2.6-1.73,5.08-2.17,7.78s-.56,5.43-.52,8.16c.09,5.5.81,10.98.68,16.49s-1.35,11.39-2.03,17.08c-.79,6.65-.25,13.19.51,19.82l1.5-1.5c-1.06.08-1.91-.75-2.76-1.28-1.65-1.02-3.15,1.57-1.51,2.59,1.35.84,2.59,1.82,4.28,1.69.74-.06,1.6-.64,1.5-1.5-.67-5.88-1.27-11.76-.73-17.68s1.78-11.35,2.16-17.09-.29-11.02-.52-16.53c-.11-2.75-.12-5.52.19-8.26s1.13-5.3,1.99-7.91c.99-2.98,1.31-6.01,1.46-9.13s.32-6.5.47-9.75c.07-1.42-2.19-2.13-2.8-.76-1.06,2.39-1.16,4.9-1.17,7.48,0,1.15.07,2.36-.19,3.49-.28,1.23-.91,2.32-1.53,3.41-1.27,2.24-2.27,4.38-2.71,6.95-.48,2.82-.52,5.67-.44,8.52.17,6.14.39,12.26.18,18.4s-.93,12.07-2,18.07c-1.17,6.52-2.27,13.14-.83,19.71.41,1.89,3.3,1.09,2.89-.8h0Z"/>
    </g>
    <g>
      <path class="cls-2" d="M226.91,166.79c6.89-.79,18.26,2,23.97,5.94,8.89,6.13,17.35,4.67,24.87-.47-5.58-5.19-16.34-17.99-23.79-16.41-7.46,1.58-18.47,7.11-25.05,10.95,6.9-4.12,11.37-12.76,16.54-18.91,4.26-5.06,3.32-19.2,4.32-25.74-16.33,3.38-16.01,28.39-20.86,44.65"/>
      <path class="cls-2" d="M227.93,163.99c-9.02,5.61-18.04,11.23-27.06,16.84-1.64,1.02-.13,3.61,1.51,2.59,9.02-5.61,18.04-11.23,27.06-16.84,1.64-1.02.13-3.61-1.51-2.59h0Z"/>
      <path class="cls-2" d="M210.19,134.41c-.27-.5-11.2,8.47-11.68,12.72s-2.41,6.67-1.52,10.86c1.64,7.68,3.28,15.35,4.92,23.03.14.65.27,1.34,0,1.95"/>
      <path class="cls-2" d="M201.67,182.32c5.48-2.62,12.13-1.62,17.53,1.15s17.8,15.84,22.11,20.11c-5.51,1.81-20.71-5.55-25.57-8.72-4.86-3.17-8.22-11.04-13.87-12.38,1.3-2.64,2.59-5.28,3.89-7.92,2.68-5.45,5.42-11.11,5.64-17.18.29-7.76,2.51-16.14-1.22-22.96"/>
      <path class="cls-2" d="M201.28,180.61c-9.14,5.37-17.52,12.6-24.63,20.43-1.3,1.43.82,3.55,2.12,2.12,6.95-7.66,15.09-14.71,24.02-19.96,1.66-.98.16-3.57-1.51-2.59h0Z"/>
      <path class="cls-2" d="M224.32,168.35c1.75,6.49,15.62,15.86,21.99,18.01-1.11-3.15-6.79-11.54-8.59-14.36s-8.55-3.95-11.72-4.99"/>
      <path class="cls-2" d="M186.3,192.71c-7.16-9.85-8.88-23.4-4.43-34.72,5.29,3.06,8.57,8.95,9.44,15.01s-.45,12.25-2.69,17.95c-.21.53-.43,1.09-.41,1.66.05,1.17,1.07,2.03,1.98,2.75,7.27,5.76,13.48,12.85,18.24,20.81-11.44-1.09-21.18-11.64-21.35-23.13"/>
      <path class="cls-2" d="M179.59,197.89c-5.09,4.47-9.15,10-14.13,14.59-1.42,1.31.7,3.43,2.12,2.12,4.98-4.59,9.03-10.12,14.13-14.59.61-.53.55-1.57,0-2.12-.6-.6-1.51-.54-2.12,0h0Z"/>
      <path class="cls-2" d="M171.4,209.77c1-7.7-.38-15.69-3.89-22.61-2.75,3.31-3.33,8.02-2.5,12.24s2.92,8.08,5.06,11.82"/>
      <path class="cls-2" d="M163.48,215.69c2.05-.49,4.18.3,6.05,1.26,5.11,2.62,9.42,6.58,13.19,10.92-3.97.64-8.04-.95-11.22-3.41s-5.61-5.74-7.99-8.98"/>
      <g>
        <path class="cls-1" d="M161.15,217.94c1.77-1.35,4.19-2.46,5.37-4.39-1.86,1.35-3.73,2.7-5.59,4.05"/>
        <path class="cls-1" d="M161.91,219.23c2.05-1.55,4.5-2.67,5.91-4.93.34-.54.24-1.38-.23-1.82s-1.27-.63-1.82-.23c-1.86,1.35-3.73,2.7-5.59,4.05-.33.24-.58.5-.69.9-.1.36-.05.84.15,1.16.41.63,1.37,1.03,2.05.54,1.86-1.35,3.73-2.7,5.59-4.05l-2.05-2.05c-.07.11-.15.22-.22.34-.17.25.23-.28.04-.05-.03.04-.07.08-.1.13-.19.22-.39.43-.6.62s-.42.37-.63.54c-.19.15-.02,0,.07-.05-.07.05-.14.1-.2.15-.11.08-.23.17-.35.25-.94.66-1.92,1.24-2.83,1.93-.32.25-.58.49-.69.9-.1.36-.05.84.15,1.16.4.62,1.38,1.04,2.05.54h0Z"/>
      </g>
    </g>
    <g>
      <path class="cls-2" d="M48.84,160.85c-6.89-.79-18.26,2-23.97,5.94-8.89,6.13-17.35,4.67-24.87-.47,5.58-5.19,16.34-17.99,23.79-16.41s18.47,7.11,25.05,10.95c-6.9-4.12-11.37-12.76-16.54-18.91-4.26-5.06-3.32-19.2-4.32-25.74,16.33,3.38,16.01,28.39,20.86,44.65"/>
      <path class="cls-2" d="M46.3,160.64c9.02,5.61,18.04,11.23,27.06,16.84,1.64,1.02,3.15-1.57,1.51-2.59-9.02-5.61-18.04-11.23-27.06-16.84-1.64-1.02-3.15,1.57-1.51,2.59h0Z"/>
      <path class="cls-2" d="M65.55,128.47c.27-.5,11.2,8.47,11.68,12.72s2.41,6.67,1.52,10.86c-1.64,7.68-3.28,15.35-4.92,23.03-.14.65-.27,1.34,0,1.95"/>
      <path class="cls-2" d="M74.07,176.37c-5.48-2.62-12.13-1.62-17.53,1.15s-17.8,15.84-22.11,20.11c5.51,1.81,20.71-5.55,25.57-8.72,4.86-3.17,8.22-11.04,13.87-12.38-1.3-2.64-2.59-5.28-3.89-7.92-2.68-5.45-5.42-11.11-5.64-17.18-.29-7.76-2.51-16.14,1.22-22.96"/>
      <path class="cls-2" d="M72.96,177.26c8.93,5.25,17.07,12.31,24.02,19.96,1.3,1.43,3.42-.69,2.12-2.12-7.11-7.84-15.49-15.06-24.63-20.43-1.67-.98-3.18,1.61-1.51,2.59h0Z"/>
      <path class="cls-2" d="M51.43,162.4c-1.75,6.49-15.62,15.86-21.99,18.01,1.11-3.15,6.79-11.54,8.59-14.36,1.8-2.81,8.55-3.95,11.72-4.99"/>
      <path class="cls-2" d="M89.45,186.77c7.16-9.85,8.88-23.4,4.43-34.72-5.29,3.06-8.57,8.95-9.44,15.01s.45,12.25,2.69,17.95c.21.53.43,1.09.41,1.66-.05,1.17-1.07,2.03-1.98,2.75-7.27,5.76-13.48,12.85-18.24,20.81,11.44-1.09,21.18-11.64,21.35-23.13"/>
      <path class="cls-2" d="M94.04,194.07c5.09,4.47,9.15,10,14.13,14.59,1.42,1.31,3.54-.81,2.12-2.12-4.98-4.59-9.03-10.12-14.13-14.59-.61-.53-1.52-.6-2.12,0-.54.54-.61,1.58,0,2.12h0Z"/>
      <path class="cls-2" d="M104.35,203.83c-1-7.7.38-15.69,3.89-22.61,2.75,3.31,3.33,8.02,2.5,12.24s-2.92,8.08-5.06,11.82"/>
      <path class="cls-2" d="M112.27,209.75c-2.05-.49-4.18.3-6.05,1.26-5.11,2.62-9.42,6.58-13.19,10.92,3.97.64,8.04-.95,11.22-3.41s5.61-5.74,7.99-8.98"/>
      <g>
        <path class="cls-1" d="M114.6,213.32c-1.3-1.8-4.19-3.79-5.37-5.73,1.86,1.35,3.73,4.03,5.59,5.38"/>
        <path class="cls-1" d="M115.89,212.57c-.83-1.14-1.86-2.09-2.9-3.05-.51-.47-1.01-.95-1.49-1.45-.21-.23-.42-.46-.62-.7-.05-.06-.1-.13-.15-.19.29.36.1.13.04.05-.09-.12-.17-.25-.25-.38l-2.05,2.05c.09.07.26.25-.04-.04.05.05.11.09.16.13.12.1.24.2.36.31.23.21.46.43.68.65.48.48.94.98,1.4,1.47.95,1.02,1.9,2.03,3.03,2.85.3.22.82.24,1.16.15s.73-.36.9-.69c.41-.78.14-1.56-.54-2.05-.09-.07-.26-.25.04.04-.05-.05-.11-.09-.16-.13-.12-.1-.24-.2-.36-.31-.23-.21-.46-.43-.68-.65-.48-.48-.94-.98-1.4-1.47-.95-1.02-1.9-2.03-3.03-2.85-.51-.37-1.4-.22-1.82.23-.44.48-.6,1.24-.23,1.82.75,1.2,1.78,2.19,2.81,3.15.51.47,1.02.94,1.51,1.43.22.22.44.44.65.67.11.12.21.24.31.36.05.06.1.12.14.18l-.14-.19s.06.08.09.12c.24.33.49.58.9.69.36.1.84.05,1.16-.15.63-.4,1.03-1.37.54-2.05h0Z"/>
      </g>
    </g>
  </g>
  <g>
    <path class="cls-1" d="M129.54,439.89c2.36,22.7,4.32,45.45,5.89,68.22.43,6.28.76,12.93-2.16,18.5s-10.36,9.28-15.73,5.99c-4.32-2.64-5.47-8.33-5.94-13.37-2.42-26,1.59-54.7,6.39-80.37"/>
    <path class="cls-1" d="M128.04,439.89c1.49,14.31,2.82,28.64,3.99,42.99.58,7.09,1.12,14.18,1.62,21.28.44,6.21,1.35,12.86-.54,18.93-1.46,4.67-5.45,9.01-10.62,9.25-5.53.26-8.01-4.88-8.91-9.56-.56-2.93-.71-5.95-.89-8.92-.2-3.34-.3-6.69-.32-10.03-.03-6.67.26-13.34.78-19.98,1.18-14.97,3.52-29.82,6.28-44.57.35-1.89-2.54-2.7-2.89-.8-2.6,13.94-4.84,27.96-6.11,42.09-.64,7.12-1.03,14.26-1.06,21.41-.03,6.58.11,13.27,1.02,19.8.74,5.26,2.78,11.03,8.22,13,4.97,1.8,10.68-.77,13.98-4.57,4.1-4.73,4.76-11.32,4.59-17.33-.21-7.36-.95-14.74-1.52-22.08-1.32-16.99-2.86-33.95-4.62-50.9-.2-1.9-3.2-1.92-3,0h0Z"/>
  </g>
  <g>
    <path class="cls-1" d="M126.53,314.7c9.32-19.97,22.77-37.99,39.26-52.61-2.1,3.02-4.2,6.05-6.29,9.07-9.93,14.31-19.89,28.69-27.55,44.34"/>
    <path class="cls-1" d="M127.83,315.45c7.26-15.5,16.94-29.82,28.69-42.28,3.29-3.5,6.75-6.84,10.34-10.03l-2.36-1.82c-9.36,13.5-18.99,26.87-27.24,41.09-2.34,4.03-4.55,8.14-6.61,12.32-.85,1.73,1.74,3.25,2.59,1.51,7.21-14.68,16.4-28.24,25.69-41.65,2.72-3.92,5.44-7.84,8.15-11.76,1.02-1.46-1.14-2.9-2.36-1.82-12.87,11.44-23.92,24.92-32.61,39.78-2.49,4.27-4.79,8.65-6.88,13.13-.81,1.74,1.77,3.26,2.59,1.51h0Z"/>
  </g>
  <g>
    <path class="cls-1" d="M128.98,313.25c-6.15-15.43-20.49-26.2-28-41.01,10.88,9.39,20.73,19.96,29.34,31.46"/>
    <path class="cls-1" d="M130.43,312.86c-6.36-15.76-20.49-26.4-28.16-41.37l-2.36,1.82c10.77,9.32,20.56,19.76,29.11,31.16,1.14,1.53,3.75.03,2.59-1.51-8.71-11.61-18.6-22.27-29.58-31.76-1.28-1.11-3.15.26-2.36,1.82,7.53,14.71,21.61,25.2,27.85,40.66.71,1.77,3.62,1,2.89-.8h0Z"/>
  </g>
  <path class="cls-1" d="M166.95,215.46c5.46-5.87,11.03-11.63,16.7-17.29,1.37-1.37-.75-3.49-2.12-2.12-5.67,5.66-11.24,11.43-16.7,17.29-1.31,1.41.8,3.54,2.12,2.12h0Z"/>
  <path class="cls-1" d="M143.47,162.06c-1.49-8.77,4.64-16.7,6.25-25.01.36-1.89-2.53-2.69-2.89-.8-1.74,9.04-7.87,17.04-6.25,26.61.32,1.9,3.21,1.09,2.89-.8h0Z"/>
  <path class="cls-1" d="M110.07,206.84c.16.12-.06-.05-.12-.09-.1-.08-.2-.16-.29-.24-.18-.14-.35-.29-.52-.44-.36-.32-.71-.64-1.06-.98-.7-.69-1.36-1.43-1.97-2.2-.16-.2.11.15-.04-.06-.08-.1-.15-.2-.23-.3-.15-.2-.3-.41-.44-.62-.27-.4-.53-.8-.78-1.21-.51-.84-.96-1.72-1.36-2.62-.32-.72-1.42-.94-2.05-.54-.74.48-.88,1.28-.54,2.05,1.74,3.91,4.5,7.25,7.88,9.84.63.48,1.71.12,2.05-.54.42-.79.13-1.54-.54-2.05h0Z"/>
  <g>
    <path class="cls-2" d="M43.57,230.88c-3.58-.31-9.43,1.29-12.33,3.41-4.52,3.3-8.91,2.66-12.88.11,2.82-2.77,8.2-9.54,12.09-8.83,3.88.71,9.66,3.42,13.12,5.31-3.63-2.04-6.07-6.45-8.83-9.56-2.28-2.56-1.99-9.89-2.6-13.26,8.5,1.52,8.69,14.47,11.43,22.82"/>
    <path class="cls-2" d="M41.87,231.42c4.75,2.78,9.5,5.56,14.24,8.34,1.67.98,3.18-1.61,1.51-2.59-4.75-2.78-9.5-5.56-14.24-8.34-1.67-.98-3.18,1.61-1.51,2.59h0Z"/>
    <path class="cls-2" d="M51.77,213.88c.13-.26,5.92,4.23,6.23,6.42s1.34,3.42.94,5.6c-.74,4-1.48,8-2.22,11.99-.06.34-.12.7.02,1.01"/>
    <path class="cls-2" d="M56.85,238.56c-2.87-1.28-6.3-.67-9.06.84s-8.99,8.45-11.17,10.72c2.88.86,10.65-3.16,13.12-4.88s4.1-5.83,7.01-6.61c-.71-1.35-1.42-2.7-2.13-4.04-1.46-2.78-2.96-5.68-3.16-8.82-.26-4.02-1.53-8.32.31-11.9"/>
    <path class="cls-2" d="M55.9,239.65c4.65,2.57,8.91,6.05,12.58,9.88,1.34,1.4,3.46-.73,2.12-2.12-1.92-2-4.01-3.85-6.18-5.57s-4.52-3.41-7-4.78c-1.69-.93-3.21,1.66-1.51,2.59h0Z"/>
    <path class="cls-2" d="M44.93,231.65c-.81,3.38-7.87,8.43-11.13,9.63.53-1.65,3.35-6.07,4.25-7.55s4.37-2.16,6-2.75"/>
    <path class="cls-2" d="M64.95,243.73c3.57-5.2,4.27-12.24,1.8-18.04-2.7,1.66-4.31,4.76-4.68,7.9s.4,6.34,1.64,9.25c.12.27.24.56.23.85,0,.61-.52,1.06-.99,1.45-3.68,3.08-6.8,6.84-9.15,11.03,5.91-.72,10.8-6.32,10.73-12.27"/>
    <path class="cls-2" d="M66.91,247.94c1.41,1.19,2.43,2.72,3.58,4.14,1.07,1.32,2.29,2.4,3.75,3.28,1.21.73,2.57,1.39,3.51,2.29.44.42.78.91.99,1.43.38.94.77,1.78,1.69,2.3,1.68.96,3.19-1.64,1.51-2.59-.33-.19-.02.05-.13-.13-.08-.12-.12-.21-.15-.3-.17-.41-.31-.84-.53-1.23-.35-.64-.84-1.23-1.38-1.72-1.15-1.05-2.52-1.77-3.85-2.55s-2.31-1.68-3.35-2.98c-1.12-1.4-2.13-2.89-3.52-4.06-.62-.52-1.51-.61-2.12,0-.54.54-.62,1.6,0,2.12h0Z"/>
    <path class="cls-2" d="M72.91,252.35c-.62-3.97-.03-8.13,1.7-11.76,1.47,1.68,1.84,4.1,1.47,6.3s-1.4,4.23-2.45,6.19"/>
    <path class="cls-2" d="M77.09,255.3c-1.07-.23-2.16.21-3.12.74-2.61,1.43-4.79,3.54-6.67,5.84,2.06.28,4.15-.6,5.76-1.92s2.83-3.05,4.01-4.76"/>
    <g>
      <path class="cls-1" d="M100.97,273.66c-2.85-.96-5-3.27-7.3-5.22-2.83-2.41-6.03-4.35-9.26-6.18-1.42-.81-2.88-1.61-3.97-2.83-.82-.91-1.12-2.28-2.11-2.99-.93-.67-2.2-1.22-2.84-2.2.98.67,1.97,1.34,2.95,2.02.69.47,1.39.95,1.98,1.54.51.51.93,1.09,1.41,1.63,2.41,2.66,6.03,3.81,9.01,5.8,2.24,1.5,4.13,3.48,6.37,4.98,1.55,1.04,2.08,1.25,3.76,2.04-.2.47.44,1.18,0,1.41"/>
      <path class="cls-1" d="M101.37,272.21c-2.43-.88-4.28-2.79-6.19-4.45-2.15-1.87-4.5-3.51-6.93-5-1.19-.73-2.4-1.41-3.62-2.11-1.1-.63-2.32-1.29-3.13-2.29-.71-.87-1.03-1.99-1.86-2.78s-2.16-1.16-2.86-2.11l-2.05,2.05c1.16.79,2.33,1.56,3.47,2.37s1.89,1.88,2.85,2.86c1.77,1.81,4.06,2.96,6.27,4.14,2.4,1.28,4.43,2.86,6.51,4.59s4.05,2.95,6.39,4.04l-.69-1.69c-.09.59.12,1.11.08,1.66l.44-1.06-.14.15c-1.31,1.42.81,3.54,2.12,2.12.36-.39.58-.77.59-1.32,0-.21-.02-.43-.08-.63-.06-.22-.04-.65-.12-.12.09-.61-.05-1.39-.69-1.69-2.32-1.08-4.33-2.36-6.3-4.01-2.09-1.76-4.19-3.34-6.6-4.63-2.17-1.16-4.42-2.24-6.08-4.12-.91-1.03-1.75-1.95-2.87-2.76-1.19-.86-2.43-1.67-3.64-2.5s-2.95.85-2.05,2.05c.82,1.1,1.84,1.68,2.94,2.44.99.68,1.3,1.88,2.04,2.8,1.81,2.24,4.77,3.44,7.18,4.89,2.59,1.56,5.04,3.28,7.3,5.28,2.12,1.88,4.21,3.72,6.92,4.7,1.82.66,2.6-2.24.8-2.89h0Z"/>
    </g>
  </g>
  <g>
    <path class="cls-2" d="M218.03,224.67c3.58-.32,9.43,1.27,12.34,3.38,4.53,3.28,8.92,2.64,12.88.07-2.82-2.76-8.23-9.52-12.11-8.8-3.88.72-9.65,3.44-13.11,5.35,3.63-2.05,6.05-6.46,8.81-9.58,2.27-2.57,1.96-9.9,2.56-13.27-8.5,1.54-8.65,14.5-11.37,22.85"/>
    <path class="cls-2" d="M218.22,222.61c-4.74,2.79-9.48,5.58-14.22,8.38-1.66.98-.15,3.57,1.51,2.59,4.74-2.79,9.48-5.58,14.22-8.38,1.66-.98.15-3.57-1.51-2.59h0Z"/>
    <path class="cls-2" d="M209.79,207.69c-.13-.26-5.91,4.24-6.21,6.44s-1.33,3.43-.92,5.6c.75,4,1.5,7.99,2.25,11.99.06.34.12.7-.02,1.01"/>
    <path class="cls-2" d="M204.77,232.38c2.87-1.29,6.3-.68,9.06.82s9.01,8.43,11.19,10.69c-2.88.87-10.65-3.14-13.13-4.84s-4.12-5.82-7.02-6.59c.71-1.35,1.41-2.7,2.12-4.05,1.46-2.79,2.95-5.68,3.14-8.82.25-4.02,1.51-8.33-.34-11.9"/>
    <path class="cls-2" d="M204.21,230.88c-2.47,1.37-4.77,3.04-6.99,4.8s-4.25,3.58-6.17,5.59c-1.33,1.4.79,3.52,2.12,2.12,3.66-3.84,7.91-7.33,12.55-9.91,1.69-.94.18-3.53-1.51-2.59h0Z"/>
    <path class="cls-2" d="M216.67,225.44c.82,3.38,7.89,8.41,11.16,9.6-.54-1.64-3.37-6.06-4.27-7.54s-4.37-2.15-6-2.73"/>
    <path class="cls-2" d="M196.68,237.57c-3.58-5.19-4.3-12.23-1.85-18.03,2.7,1.65,4.33,4.74,4.7,7.89s-.39,6.34-1.62,9.26c-.12.27-.24.56-.23.85.01.61.53,1.06.99,1.45,3.69,3.07,6.82,6.82,9.18,11.01-5.91-.71-10.82-6.3-10.76-12.25"/>
    <path class="cls-2" d="M192.62,239.67c-2.12,1.79-3.28,4.28-5.36,6.06-.29.25-.75.53-1.21.76-.06.03-.12.05-.17.08.15-.06.17-.07.07-.03-.09.04-.19.07-.28.11-.23.08-.46.16-.68.25-1.31.48-2.42,1.16-3.47,2.08-.61.53-.55,1.57,0,2.12.6.6,1.51.54,2.12,0,.46-.4.93-.74,1.48-1.02.1-.05.21-.1.31-.15.33-.16-.18.06.12-.05.23-.08.46-.17.69-.25,1.18-.42,2.19-.95,3.15-1.76,2.11-1.8,3.26-4.28,5.36-6.06.62-.52.54-1.58,0-2.12-.61-.61-1.5-.52-2.12,0h0Z"/>
    <path class="cls-2" d="M181.44,252.19c1.93,0,1.93-3,0-3s-1.93,3,0,3h0Z"/>
    <path class="cls-2" d="M188.75,246.22c.61-3.97,0-8.13-1.73-11.75-1.47,1.68-1.83,4.11-1.45,6.31s1.41,4.22,2.47,6.18"/>
    <path class="cls-2" d="M184.57,249.18c1.07-.23,2.16.21,3.12.73,2.61,1.42,4.8,3.53,6.69,5.82-2.06.28-4.15-.59-5.77-1.91-1.61-1.32-2.83-3.04-4.02-4.75"/>
    <g>
      <path class="cls-1" d="M164.41,264.28c2.83-2.41,6.02-4.36,9.25-6.21,1.42-.81,2.87-1.62,3.96-2.84.82-.91,1.12-2.28,2.11-3,.93-.67,2.2-1.22,2.84-2.21-.98.67-1.96,1.35-2.95,2.02-.69.47-1.39.95-1.98,1.55-.51.51-.93,1.1-1.41,1.63-2.4,2.67-6.02,3.83-9,5.83-2.24,1.5-3.94,4-6.18,5.51"/>
      <path class="cls-1" d="M165.47,265.34c3.32-2.8,7.13-4.7,10.75-7.05,1.66-1.07,2.77-2.31,3.75-4.01.45-.78,1.04-1.1,1.77-1.57.83-.54,1.52-1.13,2.1-1.93.88-1.21-.85-2.88-2.05-2.05-1.99,1.37-4.25,2.62-5.83,4.47-1.48,1.75-3.08,2.96-5.09,4.05-1.9,1.04-3.85,1.97-5.54,3.34-1.78,1.45-3.17,3.35-5.06,4.67-1.57,1.1-.07,3.7,1.51,2.59,1.88-1.31,3.33-3.05,5.02-4.58s3.67-2.39,5.58-3.44,3.71-2.2,5.12-3.83c.8-.93,1.54-1.76,2.55-2.47,1.08-.75,2.16-1.49,3.24-2.23l-2.05-2.05c-.44.6-1.2.95-1.81,1.34-.79.51-1.41,1.09-1.91,1.89-.44.71-.74,1.46-1.35,2.05-.7.69-1.54,1.21-2.38,1.7-3.63,2.14-7.23,4.24-10.46,6.97-1.48,1.25.65,3.36,2.12,2.12h0Z"/>
    </g>
  </g>
</svg>