<?xml version="1.0" encoding="UTF-8"?>
<svg id="Layer_1" data-name="Layer 1" xmlns="http://www.w3.org/2000/svg" viewBox="0 0 73.06 125.17">
  <defs>
    <style>
      .cls-1 {
        fill: #67af44;
      }
    </style>
  </defs>
  <path class="cls-1" d="M40.62,74.65c-5.16-10.3-23.42-18.52-30.02-27.96C1.94,34.28-.29,18.99.03,3.85c12.29,3.05,28.52,14.2,33.09,26.01,4.57,11.81,6.87,32.14,7.51,44.79-.53-13.34-2.64-34.41,1.22-47.2,3.18-10.52,20.82-20.13,29.02-27.46,10.12,25.78-17.35,50.81-30.24,74.65"/>
  <path class="cls-1" d="M39.6,70.8c.38,17.64.75,35.28,1.13,52.92.04,1.93,3.04,1.93,3,0-.38-17.64-.75-35.28-1.13-52.92-.04-1.93-3.04-1.93-3,0h0Z"/>
</svg>